<?xml version="1.0" encoding="utf-8"?>
<!-- Generator: Adobe Illustrator 17.0.2, SVG Export Plug-In . SVG Version: 6.00 Build 0)  -->
<!DOCTYPE svg PUBLIC "-//W3C//DTD SVG 1.1//EN" "http://www.w3.org/Graphics/SVG/1.1/DTD/svg11.dtd">
<svg version="1.1" id="Layer_1" xmlns="http://www.w3.org/2000/svg" xmlns:xlink="http://www.w3.org/1999/xlink" x="0px" y="0px"
	 width="504px" height="504px" viewBox="0 0 504 504" enable-background="new 0 0 504 504" xml:space="preserve">
<g>
	
		<polyline opacity="0.125" fill="none" stroke="#000000" stroke-width="0.75" stroke-linecap="round" stroke-linejoin="round" stroke-miterlimit="10" points="
		194.93,176.77 194.93,176.77 195.43,176.76 195.83,177.95 195.63,179.15 195.48,179.86 198.17,180.18 200.21,180.44 200.86,180.52 
		202.15,180.68 203.24,180.81 203.64,180.86 205.38,180.81 207.03,181.03 208.47,181.22 210.36,181.28 211.96,181.49 213.8,181.77 
		215.39,181.94 216.89,182.11 218.63,182.35 220.02,182.49 221.97,182.77 222.11,182.77 224.06,183.05 225.4,183.19 226.64,183.36 
		228.54,183.61 229.98,183.81 231.62,184 232.22,184.06 233.26,184.12 235.36,184.49 236.9,184.72 238.84,184.87 240.64,185.13 
		242.63,185.34 243.07,183.99 243.32,182.64 243.62,181.22 243.67,180.27 244.92,180.29 246.96,180.61 248.15,181.62 249.05,182.9 
		251.04,183.26 252.23,183.71 253.28,184.14 254.22,183.42 254.87,182.38 256.22,182.52 257.81,183.01 259.65,183.63 261.6,184.2 
		262.74,184.54 263.78,184.73 264.28,184.87 265.63,185.26 267.32,185 268.17,184.03 269.01,183 269.86,182.25 270.56,181.37 
		271.15,180.72 272.2,181.36 273.09,181.45 273.15,181.29 273.09,181.38 272.45,181.37 272.05,181.3 272.2,181.34 273.74,181.44 
		274.69,181.44 275.24,181.7 275.38,180.64 276.23,180.48 276.53,179.64 276.88,178.82 277.43,177.97 277.87,177.06 278.42,175.93 
		278.87,175.06 279.12,174.62 279.72,173.31 279.92,173.04 280.27,172.11 280.91,170.91 281.41,169.72 281.61,169.19 282.6,167.7 
		283.1,166.92 283.65,166.71 284,166.28 284.35,165.8 284.84,165.21 285.39,164.65 285.84,163.68 286.54,162.67 287.53,161.68 
		288.68,160.81 289.87,160.11 290.92,159.8 292.16,159.48 293.31,159.31 294.55,159.19 295.65,159.26 296.99,159.54 297.99,159.91 
		298.88,160.49 300.13,161.17 301.47,160.88 302.62,160.18 303.41,159.48 303.86,158.49 304.96,157.78 305.56,156.93 306,156.11 
		305.86,155.44 305.36,154.63 304.76,153.81 304.01,153.04 303.07,152.12 302.12,151.23 301.37,150.61 300.18,149.74 299.93,149.79 
		300.38,150.21 301.03,150.74 301.87,150.65 302.22,150.41 302.52,150.16 302.82,149.79 303.37,149.17 303.86,148.69 304.71,148 
		306.2,147.09 307.75,146.25 309.59,146.25 310.93,146.04 312.28,145.55 313.37,144.7 314.42,144.15 315.11,143.68 315.81,143.23 
		316.46,142.91 316.96,142.76 317.3,142.87 317.6,143.08 317.85,143.47 318.4,143.48 319.25,142.99 320.49,142.26 321.54,141.65 
		322.78,140.9 324.47,139.92 324.57,139.86 326.37,138.84 327.66,138.09 328.51,137.64 329.35,137.16 330.05,136.77 331.45,135.99 
		332.24,135.53 332.99,135.1 333.48,134.79 334.33,134.31 334.78,134.02 335.13,133.8 334.78,133.39 334.98,132.82 335.62,132.45 
		336.32,132.02 336.67,131.83 337.62,131.23 338.41,130.73 339.46,130.06 340.21,129.59 341.15,128.99 342.55,128.13 343.74,127.41 
		345.29,126.59 346.48,125.82 347.52,125.21 347.63,124.39 347.48,123.5 347.43,122.97 347.82,122.66 348.52,122.77 348.92,122.82 
		350.21,122.79 351.66,123.08 353.25,123.25 354.55,123.43 355.89,123.61 357.83,123.56 359.62,123.54 361.56,123.71 363.31,123.95 
		364.85,124.09 366.74,124.29 368.19,124.44 369.58,124.56 370.97,124.71 371.67,124.77 372.17,124.83 372.87,124.9 373.81,124.98 
		375.25,125.11 376.15,125.21 377.45,125.29 377.65,125.36 377.8,125.31 378.54,123.89 379.49,123.12 380.88,122.17 382.48,121.39 
		383.07,121.35 382.48,121.9 381.78,122.34 382.13,122.16 382.52,122.05 382.92,122.07 383.27,122.08 383.27,121.7 383.87,121.46 
		384.72,121.11 385.61,120.64 386.91,120.08 388.1,119.62 389.2,119.11 390.14,118.63 391.19,117.95 392.43,117.19 393.43,116.55 
		394.57,115.69 395.57,115.14 396.66,114.24 397.61,113.72 398.51,113.01 399.35,112.29 400.45,111.52 401.29,110.51 402.24,109.86 
		402.84,108.98 403.39,108.27 403.63,107.66 404.53,106.8 405.73,105.68 407.22,104.45 409.06,103.15 410.31,102.26 411.6,101.47 
		412.5,100.97 413.59,100.6 414.59,99.85 415.38,99.44 416.63,99.28 417.67,99.29 418.42,99.11 418.92,98.96 419.17,98.8 
		419.42,98.86 420.01,99.27 420.51,99.88 420.66,100.55 421.26,100.76 421.91,100.96 422.6,101 423.2,101.05 423.9,101.04 
		424.59,101.06 425.49,101.05 426.49,101.15 427.23,101.15 428.23,101.24 429.12,101.27 429.92,101.17 430.97,100.99 431.66,101.06 
		432.36,101.07 433.06,101.09 433.85,101.11 434.5,101.12 435.99,99.28 437.14,98.77 438.44,98.22 439.43,97.43 440.43,96.56 
		442.22,96.06 444.61,95.72 446.75,95.68 448.59,95.79 450.63,95.79 451.78,96.16 453.02,96.14 454.02,96.17 455.06,96.28 
		456.06,96.47 457,96.41 457.6,96.27 458,96.27 458.3,96.59 458.4,97.56 458.35,98.4 458.15,99.01 457.7,99.17 457.8,99.53 
		457.45,99.64 457.06,99.66 456.71,99.79 456.21,99.99 455.61,100.27 454.96,100.54 454.57,100.71 454.12,100.92 453.37,101.22 
		452.72,101.52 451.98,101.81 451.48,102.02 451.33,102.38 451.28,102.72 451.03,102.79 448.19,106.92 448.14,107.43 448.04,108.01 
		447.84,108.5 447.8,109.17 447.74,109.96 447.69,110.58 447.54,111.32 447.45,111.9 447.35,112.86 447.35,113.63 447.3,114.28 
		447.15,114.81 447.1,115.46 447.05,116.31 447,117.09 446.95,117.73 446.9,118.36 446.85,119.13 446.75,119.88 446.55,120.74 
		446.45,121.47 446.3,122.54 446.3,123.53 446.1,124.33 446.05,125.17 445.9,125.76 445.8,126.25 445.7,126.7 445.6,127.05 
		445.65,127.36 445.75,127.7 445.65,128.27 445.55,128.83 445.51,129.5 445.51,130.06 445.4,130.68 445.31,131.42 445.21,132.27 
		445.11,132.9 445.01,133.57 444.96,134.27 444.91,134.89 444.76,135.6 444.71,136.21 444.76,136.4 444.71,136.5 444.71,137.02 
		444.66,137.58 444.51,138.33 444.46,139.15 444.36,140 444.21,141.05 444.06,142.11 443.76,143.24 443.56,144.11 443.61,145.03 
		443.46,145.92 443.36,147.23 443.11,148.13 443.11,149.06 442.87,150.05 442.82,150.92 442.67,152.03 442.62,152.5 442.42,153.85 
		442.27,154.24 442.37,155.68 442.07,156.69 441.82,157.46 441.87,158.15 441.77,159.16 441.67,159.56 441.67,159.78 441.52,160.16 
		441.52,160.77 441.52,161.44 441.47,162.14 441.37,163.3 441.02,164.08 440.82,164.63 440.97,165.44 441.02,166.29 441.32,167.18 
		441.42,167.48 441.97,168.82 442.42,169.8 442.57,170.14 442.96,171.32 443.51,172.49 443.81,172.95 444.31,174.1 444.76,175.08 
		445.31,176.14 445.85,177.19 446.35,178.54 446.8,179.51 446.9,180.02 447.2,180.58 447.35,180.97 447.54,181.24 447.69,181.29 
		447.8,181.64 447.89,182.01 448.14,182.97 448.39,183.62 448.69,184.23 448.89,184.81 449.34,185.85 449.64,186.49 449.94,186.87 
		449.99,187.23 450.03,187.34 450.38,188.02 450.63,188.74 450.83,189.36 450.98,189.88 451.13,190.27 451.33,190.61 451.68,191.01 
		452.08,191.55 452.17,191.72 452.47,192.52 452.47,192.98 452.57,193.33 452.67,193.55 452.92,194.02 452.97,194.17 453.27,194.82 
		453.47,195.17 452.47,195.9 451.53,196.19 450.88,196.29 449.64,196.59 448.94,196.75 448.59,197.05 447.69,197.43 446.95,197.61 
		445.95,197.73 445.21,197.96 443.71,198.34 441.92,198.85 440.97,199.11 439.43,199.57 438.78,199.76 438.44,199.87 438.13,199.99 
		437.99,200 437.59,200.12 436.29,200.68 434.85,201.13 432.86,201.75 431.66,202.08 430.77,202.34 430.42,202.41 430.02,202.45 
		429.47,202.54 428.28,202.86 427.13,203.3 426.49,203.5 425.24,203.78 424.25,204.03 423.3,204.38 422.7,204.49 421.91,204.75 
		421.36,204.95 420.91,205.07 419.57,205.49 418.57,205.74 417.32,206.12 415.98,206.49 414.84,206.82 413.74,207.08 412.69,207.43 
		411.55,207.75 410.55,208.08 409.16,208.44 408.07,208.84 407.37,209.01 405.77,209.53 403.83,210.07 403.04,210.33 401.25,210.68 
		400.55,211.36 400.7,212.07 401.1,212.99 401.69,213.91 402.19,214.97 402.54,215.92 402.99,216.78 403.29,217.51 403.68,218.39 
		404.03,219.26 404.48,220.21 404.88,221.02 405.28,221.91 405.48,222.35 405.62,222.71 405.73,223.04 406.57,223.14 407.37,223 
		408.11,222.84 409.31,222.5 409.91,222.37 410.25,222.17 410.9,222.14 411.6,222.17 411.7,223.11 411.7,223.61 411.75,224.51 
		411.75,225.19 411.8,225.9 411.8,226.05 411.85,226.98 411.85,227.56 411.9,228.08 411.95,228.43 412.1,228.87 412.3,229.27 
		412.89,230.13 413.34,230.64 413.69,231.07 414.04,231.48 414.29,231.81 414.49,232.1 414.74,232.39 414.88,232.56 414.99,232.72 
		415.18,232.98 415.43,233.24 415.58,233.47 415.58,233.48 415.73,233.63 415.83,233.76 416.18,234.24 416.58,234.74 416.33,235.33 
		415.14,235.71 413.79,236.02 412.05,236.55 411.1,237.32 410.7,238.57 410.8,239.63 411,240.55 411.15,242.17 412.05,243.28 
		413.64,242.79 414.84,243 415.58,243.21 415.29,244.53 415.68,245.19 416.48,245.52 417.13,245.75 417.97,246.21 418.72,246.51 
		419.66,246.81 420.31,247.01 420.96,247.25 421.11,247.71 420.96,248.22 420.61,248.8 420.36,249.39 420.26,250.09 420.41,250.37 
		420.41,250.68 420.21,251.03 420.06,251.19 420.06,251.25 419.77,251.6 418.92,252.17 417.97,252.5 417.03,253.04 416.43,253.37 
		415.53,253.96 414.54,254.35 413.79,254.85 413.24,255.24 412.94,255.46 412.4,255.85 411.75,256.2 411.45,256.37 410.6,256.87 
		410.01,257.23 409.31,257.65 408.41,258.13 407.67,258.61 407.02,258.97 406.07,259.37 405.62,259.64 404.88,260.14 404.23,260.61 
		403.63,261.07 403.48,261.2 402.59,261.71 401.94,262.04 401.39,262.33 400.65,262.74 400.1,263.08 399.4,263.5 399.3,263.56 
		399.4,264.52 399.9,265.11 399.95,265.21 401.04,266.23 401.89,267.14 402.54,267.87 403.39,268.84 404.13,269.49 404.58,270.03 
		405.23,270.63 405.92,271.24 406.42,271.7 406.87,272.18 407.32,272.7 407.57,272.99 407.96,273.35 408.26,273.61 408.66,274.06 
		408.96,274.39 409.51,274.98 409.91,275.39 410.45,276.02 410.8,276.45 411.3,277.01 411.7,277.43 411.8,277.53 412.1,277.78 
		412.35,278.3 412.45,278.5 412.54,278.72 412.6,279.48 412.35,280.29 411.8,281.26 411.3,282.34 410.75,283.48 410.36,284.6 
		409.91,285.47 409.36,286.59 408.91,287.57 408.37,288.77 407.76,290.07 407.32,291.11 406.62,292.38 406.12,293.4 405.58,294.66 
		404.98,296.03 404.28,297.24 403.78,298.18 403.29,299.12 402.74,300.31 402.29,301.14 401.94,301.94 400.99,301.91 400.1,301.4 
		399.2,300.83 398.7,300.55 397.81,301.31 397.01,302.16 396.61,302.57 396.02,302.97 395.17,303.89 394.47,304.64 393.88,305.32 
		393.63,305.58 393.63,305.57 393.18,305.62 392.08,305.18 390.99,304.55 390.39,304.23 389,303.41 388.35,303.03 387.6,302.61 
		386.86,302.17 385.71,301.5 384.92,301.04 384.02,300.55 383.72,300.38 383.37,300.19 383.22,300.12 383.32,300.17 381.63,299.25 
		381.18,298.98 380.83,298.8 380.23,298.44 379.79,298.17 379.14,297.75 379.04,297.69 378.34,297.26 377.7,296.88 377.15,296.73 
		376.5,296.2 375.9,295.86 375.4,295.59 374.71,295.18 373.86,294.68 372.87,294.13 372.02,293.6 371.42,293.25 370.97,293 
		370.43,292.7 370.58,291.83 371.07,291.32 371.57,290.79 372.77,289.45 372.87,289.38 373.76,288.31 374.06,287.91 374.46,286.83 
		373.41,286.04 373.17,285.86 371.62,284.74 370.18,284.33 368.68,283.99 367.29,283.64 365.8,283.61 364.2,283.98 363.51,284.25 
		362.46,285.02 361.67,285.81 360.92,286.62 359.97,287.67 359.33,288.39 358.63,289.19 357.98,289.84 357.28,290.62 356.78,291.12 
		356.04,291.9 355.54,292.48 355.39,293.02 354.7,293.07 353.55,292.93 352.41,292.8 351.36,292.64 350.11,292.29 348.97,292.25 
		347.92,291.87 346.73,291.66 345.58,291.54 344.54,291.25 343.39,291.02 342.2,290.73 341.3,290.41 340.4,290.26 339.21,290.05 
		338.07,289.84 337.07,289.42 336.12,288.87 335.82,288.5 335.62,288.21 334.93,288.47 334.43,289.3 333.83,289.78 332.19,289.83 
		330.75,289.65 329.05,289.5 327.61,289.45 326.07,289.39 324.18,289.34 322.53,289.28 321.19,289.24 319.89,289.23 318.5,289.25 
		317.45,289.25 316.41,289.31 315.07,289.34 314.27,289.4 313.17,289.57 312.03,289.65 311.03,289.72 309.99,289.81 308.74,290.06 
		307.6,290.44 306.4,290.75 305.26,290.73 304.31,290.12 303.76,289.18 303.52,288.56 303.31,288.04 302.97,287.2 302.72,286.56 
		302.42,285.77 302.12,285.11 301.82,284.11 301.67,283.44 301.57,283.11 301.42,283.11 301.47,283 301.42,282.53 301.12,281.35 
		300.93,280.49 300.68,279.57 300.43,278.65 300.18,277.9 299.73,276.95 299.53,276.45 298.88,275.51 298.24,274.74 297.64,273.93 
		297.09,273.12 296.34,272.26 295.5,271.54 296.34,270.94 297.59,270.45 299.18,269.89 300.53,269.38 301.97,268.99 303.22,268.68 
		304.41,268.19 305.75,267.73 307.1,267.37 308.04,267.16 308.44,266.99 309.34,266.61 309.59,265.69 308,265.26 306.6,265.77 
		305.66,266.2 304.41,266.75 303.41,267.1 302.42,267.43 301.27,267.87 300.38,268.31 299.23,268.78 298.48,269.15 297.24,269.53 
		295.85,270.01 294.7,270.45 293.31,270.86 291.71,271.21 290.17,271.53 288.88,271.77 287.43,272 285.69,272.28 284.44,272.41 
		283.2,272.39 281.96,272.36 280.41,272.3 278.87,272.2 277.23,272.1 275.88,271.89 274.49,271.67 272.85,271.37 271.3,270.93 
		269.76,270.52 268.71,270.17 267.52,269.68 266.27,269.14 264.98,268.56 263.63,267.96 262.29,267.19 261.3,266.66 260,265.95 
		258.96,265.43 258.16,264.91 257.16,264.25 256.22,263.69 255.32,263.12 254.08,262.45 252.73,261.77 251.64,261.16 250.29,260.36 
		249.25,259.76 247.95,258.98 246.91,258.37 245.76,257.63 244.72,256.94 243.42,256.08 241.73,255.06 240.29,254.27 238.34,253.1 
		236.15,251.81 233.72,250.44 231.67,249.49 229.18,248.43 226.79,247.61 224.31,246.88 222.01,246.34 219.42,245.78 216.93,245.31 
		214.5,244.93 211.61,244.66 208.72,244.73 206.38,244.91 203.64,245.2 201.6,245.45 199.36,245.9 196.77,246.32 194.88,246.6 
		193.44,246.73 192.44,246.86 191.75,247.32 191.75,247.83 191.75,248.33 191.75,248.78 191.75,249.33 191.75,249.55 191.69,249.76 
		191.69,249.83 191.6,250.26 191.99,251.16 192.04,251.91 192.09,252.49 192.14,253.08 192.29,253.81 192.29,254.59 192.34,255.34 
		192.39,255.86 192.49,256.51 192.59,257.19 192.64,257.81 192.69,258.59 192.89,259.69 192.89,259.88 193.14,261.32 193.29,262.17 
		193.49,262.84 193.69,263.96 193.69,264.62 193.79,265.44 193.94,266.16 193.98,266.89 194.13,267.93 194.28,268.94 194.43,269.85 
		194.53,270.71 194.73,271.67 194.98,272.66 195.18,273.46 195.48,274.35 195.78,275.25 195.98,276.15 196.18,277.17 196.27,277.96 
		196.32,278.9 196.42,280.38 196.38,281.91 197.37,282.57 197.72,281.51 197.52,280.43 196.87,279.1 195.68,277.95 194.53,276.95 
		193.04,275.82 191.15,275.11 189.2,274.87 187.32,274.67 185.72,274.5 184.28,274.34 182.43,274.13 180.24,273.89 178.25,273.67 
		176.26,273.5 174.32,273.25 172.33,273.07 170.79,272.87 169.14,272.71 167.35,272.56 165.9,272.46 164.96,272.25 163.02,272.03 
		161.47,271.9 159.43,271.64 159.09,271.6 156.89,271.38 155.8,271.27 153.91,271.06 152.56,270.91 151.07,270.75 149.53,270.6 
		148.13,270.47 147.83,270.42 146.24,270.29 144.5,270.09 142.51,269.9 140.81,269.76 138.67,269.57 137.18,269.41 135.53,269.15 
		134.14,268.95 132.15,268.73 130.31,268.54 128.42,268.32 126.67,268.12 125.38,267.98 125.03,267.95 122.99,267.73 121.8,267.6 
		120.35,267.45 119.06,267.3 117.71,267.15 116.42,267.01 114.68,266.82 114.38,266.79 112.78,266.62 111.39,266.47 110,266.33 
		108.3,266.19 106.96,266.08 105.62,265.89 104.37,265.8 104.02,265.77 102.38,265.52 101.03,265.38 99.39,265.21 98.1,265.07 
		96.75,264.93 95.66,264.83 94.36,264.7 92.47,264.5 92.02,264.46 90.38,264.29 89.09,264.17 88.29,264.1 87.84,264.06 86,263.89 
		85.6,263.9 84.55,264.91 84.21,266.55 83.96,268.02 83.81,269.24 83.61,270.7 83.46,271.94 83.11,273.32 82.81,274.77 82.61,276.1 
		82.41,277.29 82.17,278.25 82.17,278.57 82.02,279.32 81.92,280.09 81.77,281.05 81.62,282.33 81.47,283.44 81.22,284.74 
		80.97,285.83 80.87,287.01 80.52,288.64 80.22,290.36 79.92,292.08 79.68,293.51 79.43,294.89 79.08,296.6 78.88,298.13 
		78.58,299.81 78.28,301.49 78.08,302.95 77.73,304.7 77.43,306.1 77.29,307.81 77.04,309.2 76.74,310.6 76.59,311.73 76.19,312.95 
		75.94,314.15 75.79,315.39 75.55,317.12 75.35,318.56 75.09,319.95 74.85,321.36 74.75,322.45 74.55,323.34 74.4,324.3 
		74.6,324.79 75.99,325.38 77.09,325.76 78.48,326.05 79.92,326.48 81.62,326.93 82.86,327.3 84.26,327.73 85.75,328.19 
		87.1,328.57 88.59,329.01 89.73,329.32 90.98,329.67 92.07,330.01 93.07,330.35 94.16,330.61 95.56,331.05 96.4,331.34 97.5,331.6 
		98.54,331.96 99.69,332.41 100.84,332.73 101.83,333.03 102.88,333.31 103.92,333.61 105.07,333.95 106.21,334.27 107.26,334.56 
		108.15,334.83 109,335.07 110.2,335.42 111.44,335.77 112.78,336.15 114.08,336.51 115.47,336.91 115.92,337.05 117.41,337.48 
		118.36,337.73 119.61,338.02 120.9,338.35 121.69,338.55 123.04,338.9 123.98,339.15 125.18,339.45 125.93,339.65 127.62,340.11 
		129.21,340.52 130.86,341.01 132.7,341.36 134.54,341.57 136.28,341.73 137.93,341.89 138.92,341.99 140.76,342.19 142.06,342.32 
		143.3,342.46 144.8,342.62 146.04,342.76 147.34,342.9 148.73,343.04 150.07,343.18 151.22,343.3 152.56,343.43 153.71,343.56 
		155.15,343.71 156.4,343.83 157.64,343.97 159.13,344.09 160.18,344.13 161.42,344.28 163.17,344.49 164.51,344.7 165.9,344.84 
		167.5,345.01 169.14,345.2 170.59,345.34 172.33,345.53 173.62,345.66 175.12,345.82 176.76,346.02 178.15,346.17 179.1,346.25 
		180.59,346.47 181.59,346.73 182.73,346.73 183.58,346.97 182.88,347.38 181.84,347.23 181.54,347.33 181.59,347.29 181.19,347.08 
		180.79,346.99 180.49,346.84 181.64,346.76 183.13,346.76 184.57,346.94 186.17,347.06 187.76,347.23 189.7,347.48 191.3,347.6 
		192.79,347.76 194.63,347.96 196.18,348.11 197.92,348.31 199.36,348.45 200.75,348.6 202.3,348.77 204.09,349.03 205.73,349.18 
		207.53,349.32 208.07,349.43 210.16,349.66 211.66,349.66 213.2,349.78 214.35,349.98 215.44,349.38 216.49,349.73 217.78,350.38 
		218.53,350.51 219.42,350.64 220.22,350.51 220.62,350.54 222.11,350.99 223.41,350.97 224.85,351.14 226.3,351.38 227.24,351.42 
		228.44,351.58 229.58,351.75 230.48,351.9 231.23,352.06 232.02,352.18 232.57,352.06 232.07,351.15 231.57,350.13 230.83,349 
		230.53,348.55 229.73,347.32 229.33,346.54 228.83,346.02 228.34,345.62 227.99,344.84 227.34,343.85 226.84,343.17 226.3,342.58 
		225.6,341.59 225.1,340.73 224.55,339.81 224.4,339.4 223.26,337.92 222.61,336.93 222.51,336.79 221.67,335.51 221.17,334.67 
		220.42,333.59 219.77,332.68 219.08,331.57 218.38,330.5 217.73,329.54 217.08,328.71 216.34,327.8 215.64,326.69 215.29,326.07 
		214.55,324.86 213.3,323.26 212.01,321.38 210.86,319.65 209.57,317.88 208.42,316.34 207.73,315.08 206.88,313.81 206.08,312.69 
		205.34,311.54 204.49,310.26 203.74,309.08 202.8,308.27 202.75,308.19 202.1,307.34 201.3,306.79 200.61,305.96 200.21,305.3 
		200.01,304.08 200.75,303.87 201.25,304.51 201.95,305.31 202.6,305.94 203.74,306.27 204.69,306.27 205.93,306.38 207.28,306.39 
		208.13,306.68 210.16,306.97 210.76,307 212.6,307.26 214.1,307.38 214.79,307.45 216.64,307.7 217.53,307.81 219.03,307.96 
		220.22,308.1 221.86,308.28 223.26,308.37 224.31,308.48 226.3,308.63 226.99,308.71 227.34,308.71 227.54,308.72 227.89,308.23 
		228.24,306.79 228.34,305.51 228.49,304.05 228.74,302.72 229.09,301.2 229.28,299.27 229.58,297.56 230.03,296.03 230.28,294.57 
		230.48,293.21 230.78,291.63 231.08,290.18 231.27,289.15 231.72,287.62 232.02,286.53 232.32,285.38 232.57,284.4 232.87,283.35 
		233.26,282.34 233.66,280.95 234.16,279.56 234.86,278.36 235.41,277.14 235.86,275.8 236.05,274.35 236.35,272.69 236.55,271.32 
		236.85,269.61 237.1,268.22 237.2,266.64 237.15,264.93 237.5,263.44 237.85,262.16 238.44,260.59 238.99,259.29 239.24,257.61 
		238.89,256.38 238.3,255.35 237.4,254.34 236.35,253.18 235.95,251.93 236.35,250.1 236.5,248.81 236.85,247.38 237.15,245.58 
		237.4,244.18 237.65,242.5 238,241.07 238.3,239.64 238.59,238.01 238.84,236.92 238.94,235.88 239.14,234.91 239.19,234.63 
		239.29,234.03 239.59,232.96 239.79,232.05 239.99,230.95 240.19,229.6 240.44,228.1 240.64,226.72 240.83,225.35 241.03,224.21 
		241.08,223.72 241.28,222.18 241.58,220.82 241.93,219.34 242.13,217.92 242.38,216.4 242.67,214.87 242.97,213.09 243.22,211.67 
		243.37,210.63 243.42,209.89 243.62,209.48 243.62,209.07 243.67,208.63 243.82,207.54 243.97,206.8 244.17,205.92 244.32,205.28 
		244.47,204.5 244.67,203.86 244.92,202.94 245.27,202.26 245.56,201.6 245.86,200.81 246.21,200.33 246.46,199.79 246.71,199.37 
		246.91,198.9 247.11,198.44 247.16,198.34 247.45,197.82 247.65,197.4 247.75,197.02 247.65,197.26 247.5,196.84 247.45,197.55 
		247.5,197.63 247.26,197.87 247.3,197.98 247.01,198.18 246.76,198.42 247.01,198.58 247.21,198.27 247.21,198.37 247.65,197.49 
		247.95,196.82 248.2,196.25 248.8,195.06 249.25,194 249.9,192.49 250.64,190.9 251.29,189.48 252.08,187.91 252.68,186.73 
		253.08,185.53 253.58,184.44 254.03,183.47 254.38,182.72 254.68,182.05 255.17,180.94 255.57,180.02 256.12,179.08 256.56,178.23 
		256.82,177.96 256.97,177.66 257.01,177.36 257.11,177.05 257.11,176.95 256.97,176.94 257.16,176.58 257.21,176.41 257.21,176.53 
		257.41,176.45 257.76,175.69 259.25,175.93 260.3,176.21 261.64,176.71 262.74,177.01 263.98,177.35 264.93,177.62 265.48,177.77 
		265.83,177.87 266.52,178.07 266.92,178.19 267.42,178.34 268.71,178.75 269.91,179.11 271.45,179.57 272.35,179.81 273.94,180.33 
		275.14,180.76 276.23,181.09 277.58,181.52 279.22,181.99 280.71,182.43 282.26,182.86 284.05,183.28 285.44,182.67 285.34,181.4 
		284.74,180.47 283.35,179.71 281.91,179.13 281.81,179.05 281.71,177.83 281.91,176.7 282.26,175.32 282.9,174.13 283.5,172.8 
		284.1,171.61 284.9,170.1 285.74,168.78 286.64,167.4 287.23,166.25 288.18,164.83 289.22,163.65 290.37,163.04 292.11,162.81 
		293.21,163.02 294.05,163.41 294.8,164.46 295.3,165.53 296.45,165.76 297.74,165.97 299.03,166.12 300.28,166.27 301.27,166.38 
		302.02,166.21 303.02,165.6 303.91,165.06 304.86,164.5 306,163.84 307.1,163.37 308.09,162.77 308.74,162.36 309.64,161.84 
		310.58,161.36 311.38,160.9 312.48,160.29 313.77,159.52 314.81,158.93 316.11,158.17 317.3,157.57 317.95,157.15 318.25,156.9 
		318.55,156.62 318.7,156.55 320.24,155.73 321.29,155.13 322.58,154.41 323.73,153.76 324.82,153.13 326.22,152.34 327.51,151.58 
		329,150.8 330.15,150.19 331.25,149.52 332.54,148.74 333.14,148.32 334.83,147.41 335.92,146.71 336.97,146.27 337.67,145.73 
		338.71,145.24 339.31,144.8 339.86,144.52 340.8,143.9 341.4,143.58 342,143.15 342.3,142.99 342.5,142.92 342.65,142.08 
		342.3,141.75 342.2,141.58 341.45,140.68 341.4,140.58 340.8,139.83 340.66,139.72 339.86,138.94 339.16,138.08 338.46,137.26 
		337.72,136.78 337.57,136.64 336.62,135.6 334.63,133.43 333.09,131.87 331.84,130.46 331.15,129.65 330.25,128.77 329.8,128.46 
		329.45,128.04 329.25,127.69 328.46,126.94 327.76,126.44 326.52,125.1 325.87,124.3 325.02,123.5 324.27,122.53 323.53,121.8 
		323.13,121.41 322.19,120.66 321.99,120.34 320.24,118.76 318.75,117.27 317.5,115.94 316.46,114.81 315.01,113.36 314.22,112.65 
		313.62,111.99 312.72,111.09 312.23,110.52 311.58,109.83 310.64,108.76 309.89,107.91 308.94,106.91 308.54,106.59 307.7,105.77 
		307.4,105.39 307.15,105.14 306.9,104.85 306.5,104.42 305.8,103.66 305.26,103.02 304.41,102.21 303.41,101.16 302.37,99.98 
		301.23,98.92 301.08,98.63 299.93,97.35 299.23,96.48 298.39,95.65 297.69,94.96 296.34,95.29 295.4,95.88 294.5,96.42 
		293.51,97.12 292.41,97.7 291.42,98.21 290.32,98.85 289.37,99.35 288.68,99.78 287.48,100.43 286.64,100.99 285.44,101.66 
		284.44,102.19 283.4,102.89 282.6,103.35 282.5,103.44 280.81,104.48 279.81,104.98 279.22,105.44 278.02,106.1 277.08,106.66 
		276.73,106.85 275.24,107.69 274.84,107.92 273.69,108.57 272.5,109.26 271.8,109.99 271.25,111.27 270.75,112.58 270.26,114.57 
		270.11,116.16 269.91,117.59 269.76,118.51 269.41,119.87 269.11,121.18 268.61,122.33 267.92,123.58 267.07,124.76 265.83,126.25 
		264.73,127.67 265.48,128.97 266.87,130.41 267.42,131.87 266.87,133.43 267.32,134.02 268.41,134.53 269.76,135.12 270.95,135.63 
		272.2,136.12 273.79,136.77 275.44,137.44 277.03,138.09 278.37,138.64 279.57,139.15 280.81,139.66 282.11,140.11 283.7,140.58 
		284.99,140.94 286.64,141.35 288.08,141.74 289.22,142.05 290.22,142.4 291.32,142.83 292.56,143.17 294.05,143.69 294.85,144.05 
		296.45,145 297.59,145.53 298.68,146.07 299.88,146.36 300.97,147.09 301.77,147.65 302.87,148.36 303.66,148.86 305.06,148.88 
		306.25,148.21 307.1,147.74 308.15,147.77 309.64,148.1 310.64,148.33 311.73,149.07 312.52,149.92 313.07,150.51 313.82,151.33 
		314.42,152.02 315.07,152.73 315.56,153.28 316.36,154.12 317.15,155.02 317.65,155.54 318.15,156.09 318.4,156.36 318.45,156.41 
		318.65,156.57 318.4,157.22 317.45,157.71 316.41,158.37 315.16,159.07 314.12,159.68 312.78,160.46 311.43,161.17 310.18,161.85 
		308.74,162.72 307.1,163.69 305.86,164.43 304.61,165.16 303.37,165.92 302.87,166.23 302.77,166.37 302.72,166.37 303.96,166.72 
		305.36,166.87 306.85,167.09 308.09,167.25 309.04,167.45 311.23,167.54 311.58,167.61 313.37,167.85 314.87,168.06 316.26,168.21 
		317.3,168.24 318.9,168.55 321.09,168.77 322.93,168.98 324.97,169.21 327.06,169.38 328.81,169.57 330.85,169.83 332.89,170.02 
		334.98,170.29 337.02,170.5 339.01,170.75 340.7,170.9 342.85,171.19 344.49,171.32 346.33,171.41 348.27,171.52 349.62,170.44 
		351.26,169.34 352.55,168.47 354.25,167.4 355.74,166.47 357.04,165.72 357.38,165.59 358.43,165.33 359.27,165.38 359.72,164.9 
		359.87,164.23 360.22,163.77 361.47,163.12 362.51,162.51 363.9,161.55 364.9,160.71 366.1,160.05 366.59,159.85 366.94,159.67 
		367.39,159.46 368.78,159.37 370.73,159.48 372.77,159.87 374.21,160.02 375.11,160.2 375.31,160.18 376.65,160.29 378.29,160.44 
		379.79,160.63 381.53,160.86 383.22,161.05 385.21,161.48 387.1,161.58 388.9,161.7 390.24,161.93 392.13,162.14 393.53,162.29 
		394.62,162.23 395.37,162.34 395.82,162.35 395.77,162.35 396.27,162.46 397.51,162.54 398.31,162.63 399.85,162.95 400.84,162.98 
		402.64,163.19 403.33,163.27 404.93,163.46 406.17,163.61 407.52,163.76 408.86,163.91 409.81,164.02 410.36,164.07 410.51,164.33 
		410.65,164.34 411.75,164.45 413.44,164.66 413.84,164.69 415.83,164.83 416.03,164.79 416.53,164.92 418.57,165.18 419.96,165.14 
		421.95,165.4 423,165.56 424.69,165.67 425.39,165.46 425.69,165.25 426.14,165.2 426.93,164.8 427.43,164.41 427.93,164.04 
		428.53,163.62 429.62,162.73 429.67,162.65 430.42,162.09 430.77,161.82 431.07,161.65 431.21,161.76 431.56,161.35 431.81,161.04 
		433.16,160.28 435.55,160.2 436.79,160.36 437.49,160.49 438.88,160.63 439.43,160.69 440.03,160.74 440.38,160.06 440.53,158.76 
		440.62,157.59 440.77,156.38 440.88,155.4 441.12,154.38 441.22,154.18 441.42,153.28 441.57,152.4 441.62,151.56 441.67,150.25 
		441.77,149.19 441.97,148.17 442.07,146.83 442.37,145.73 442.47,144.68 442.57,143.67 442.62,142.19 442.67,141.31 442.82,141.04 
		443.11,139.3 443.22,138.13 443.41,136.56 443.56,135.4 443.76,133.92 443.96,132.49 444.16,131.34 444.31,130.27 444.31,129.8 
		444.41,129.49 444.11,129.37 444.16,128.92 444.31,128.01 444.51,126.94 444.76,125.63 444.96,124.46 445.11,122.95 445.11,122.01 
		443.66,121.81 442.02,121.55 440.47,121.42 439.83,121.35 439.28,120.45 439.18,119.15 439.13,118.25 439.08,117.22 439.03,115.82 
		439.08,114.22 439.13,112.87 439.18,111.94 439.03,111.57 439.18,111.12 440.77,111.27 442.02,111.37 442.82,111.42 444.16,111.53 
		445.16,111.59 445.8,111.6 446.4,111.62 447.05,111.63 447.1,111.19 447.2,110.46 447.25,109.69 447.35,109.2 447.39,108.56 
		447.45,108.09 447.69,107.37 447.84,106.8 447.99,106.09 447.99,105.37 448.14,104.78 448.24,104.01 448.39,103.49 448.49,102.99 
		448.74,102.72 448.79,103.17 448.69,103.75 448.54,104.51 448.54,105.47 448.39,106.01 452.72,104.45 452.52,104.4 452.13,102.41 
		451.48,102.38 451.18,102.19 451.88,101.77 453.17,101.14 454.66,100.48 455.91,100.12 456.95,99.73 457.1,99.44 457.1,98.85 
		457.2,98.2 457.3,97.35 457.25,96.92 457,96.6 456.61,96.49 455.81,96.47 454.77,96.44 453.67,96.37 452.23,96.18 450.73,96.1 
		447.3,95.67 446.1,95.79 444.96,95.85 443.91,95.92 442.57,95.97 441.62,96.43 440.82,96.59 439.93,96.83 439.23,97.68 
		438.44,98.11 437.49,98.6 436.54,98.97 435.8,99.38 435.1,99.62 434.2,100.09 433.46,100.42 432.21,100.73 431.27,101.03 
		429.77,101.32 428.23,101.42 426.04,101.38 424,101.26 422.8,101.22 421.56,101.14 421.21,100.96 420.81,100.73 420.81,100.7 
		420.56,100.24 420.26,99.61 419.92,99.37 419.47,98.93 419.22,98.77 418.92,98.55 418.32,98.15 417.72,97.74 415.18,99.61 
		412.89,100.84 410.95,101.78 408.66,103.24 406.67,104.7 405.68,105.63 404.58,106.62 403.63,107.61 403.29,108.44 402.74,109.11 
		402.14,109.65 401.39,110.32 400.8,110.88 400.2,111.68 399.45,112.44 398.41,113.26 397.31,114.12 396.36,114.8 394.92,115.65 
		393.88,116.35 392.68,117.18 391.54,117.89 390.39,118.54 389.44,119.01 388.3,119.56 387.1,120.09 385.71,120.8 384.32,121.42 
		382.82,122.03 381.88,122.42 382.17,122.18 382.63,121.96 383.02,121.62 382.57,121.56 381.73,121.95 381.03,122.51 380.18,123.1 
		379.29,123.79 377.94,124.55 376.6,125.29 375.51,126.5 375.36,127.56 375.01,128.39 374.26,129.4 373.46,130.68 372.92,132.18 
		372.57,133.35 372.32,134.83 372.07,136.07 371.87,137.12 371.77,138.25 371.47,139.4 371.27,140.7 371.07,141.53 370.82,142.69 
		370.38,143.75 370.28,144.57 370.13,145.51 370.18,146.94 369.98,147.81 370.08,148.63 370.18,149.61 370.28,150.7 370.48,151.61 
		370.68,152.53 371.07,153.71 371.22,154.7 371.37,155.6 371.37,156.84 371.82,158.1 371.77,159.2 371.92,160.47 371.67,161.32 
		371.52,162.47 371.82,163.46 372.27,164.54 372.67,165.61 372.87,166.83 373.02,167.89 372.42,168.77 371.62,169.73 371.42,170.55 
		371.12,171.36 371.12,172.48 371.32,173.5 371.62,174.46 372.17,175.44 372.77,176.49 372.07,178.17 372.02,179.44 371.87,180.35 
		371.32,181.64 371.17,182.46 371.42,183.63 371.72,185.07 371.52,186.18 371.07,187.24 370.92,188.62 370.38,189.89 370.13,190.95 
		371.07,191.6 371.62,192.03 372.02,192.54 371.67,192.76 371.22,192.77 371.17,193.09 371.02,193.81 370.82,194.09 370.73,194.21 
		370.03,194.2 369.13,193.91 367.94,193.6 366.69,193.45 365.7,193.4 364.8,194.46 364.95,195.52 364.85,196.86 364.85,197.27 
		364.6,197.57 364.5,197.62 363.66,197.4 360.62,196.64 358.08,195.92 356.58,194.98 356.64,193.79 356.49,192.64 355.14,192.16 
		354.05,192 352.35,191.88 351.46,191.82 350.51,191.75 349.66,191.71 348.92,191.73 348.42,191.52 347.67,191.36 346.98,191.46 
		345.88,191.18 344.39,191.08 342.65,190.89 341.1,190.64 339.31,190.5 337.27,190.35 335.58,190.13 335.18,190.53 334.08,190.39 
		332.99,190.28 331.79,190.17 330.3,189.98 329,189.83 327.51,189.72 326.32,189.59 324.82,189.32 323.68,189.21 322.53,189.17 
		320.89,189.16 319.74,188.98 318.35,188.66 316.86,188.56 315.91,188.51 314.72,188.49 313.72,188.35 312.48,188.17 311.33,188.05 
		310.18,187.94 308.74,187.85 307.55,187.74 306.5,187.63 305.16,187.28 304.11,187.3 302.82,187.18 301.47,187.03 299.98,186.91 
		298.68,186.77 297.04,186.57 295.45,186.4 293.46,186.25 291.91,186.17 290.42,185.87 289.13,185.64 287.33,185.31 286.14,184.98 
		284.74,184.55 284.25,184.19 283.25,183.91 282.16,183.47 281.01,183.19 279.67,182.76 278.52,182.4 277.18,181.9 275.93,181.64 
		274.89,181.3 273.49,180.96 272,180.75 271.55,180.97 271.7,180.88 271.65,180.9 271.25,181.32 270.66,181.99 269.91,182.82 
		269.11,183.61 268.46,184.3 267.97,184.54 267.22,185.5 266.92,185.91 265.58,187.19 264.73,187.99 263.78,188.86 262.89,189.68 
		262.09,190.53 261.64,191.26 260.95,192.66 260.35,193.76 259.85,195.08 259.25,196.33 258.76,197.49 257.86,199.24 257.11,200.85 
		256.47,202.21 255.82,203.51 255.12,204.99 254.48,206.43 253.98,207.74 253.53,208.66 253.08,209.52 252.93,209.72 252.83,209.91 
		252.88,209.88 252.38,209.89 250.79,209.59 249.7,209.4 248.75,209.38 247.6,209.27 246.51,209.11 245.76,209.04 244.87,208.97 
		244.52,209.05 244.17,209.51 244.07,210.8 243.82,211.55 243.67,212.6 243.57,213.38 243.47,213.9 243.22,214.91 243.02,216.01 
		242.73,216.8 242.43,217.95 242.18,219.07 241.98,220.53 241.73,222.1 241.53,223.76 241.23,224.87 240.93,226.44 240.73,227.69 
		240.53,229.21 240.38,230.39 240.24,231.7 239.99,232.58 240.09,232.57 239.84,233.63 239.54,235.12 239.34,236.79 239.09,238.22 
		238.74,239.73 238.3,241.46 238,243.13 237.7,245.08 237.4,246.73 237.15,248.33 236.9,249.87 236.7,251.62 236.9,253.2 
		237.75,254.09 238.69,254.89 239.64,256.4 239.79,257.67 239.34,259.22 238.79,260.66 238.15,262.24 237.8,263.58 237.65,264.85 
		237.5,266.4 237.5,268.15 237.35,269.46 237.1,270.63 236.85,271.77 236.6,273.28 236.35,274.44 236.15,275.7 235.66,277.23 
		235.06,278.39 234.41,279.62 234.01,280.7 233.66,281.95 233.22,283.55 232.82,284.9 232.47,286.14 232.02,287.77 231.57,289.54 
		231.27,291.1 231.03,292.34 230.68,293.88 230.48,295.45 230.28,296.63 230.08,297.89 229.83,299.14 229.53,300.58 229.33,301.96 
		229.03,303.07 228.74,304.49 228.59,305.78 228.54,306.83 228.34,308.01 228.24,308.56 230.03,309.06 231.47,309.24 232.97,309.42 
		234.76,309.75 236.2,309.85 236.55,311.06 235.9,312.01 235.21,313.32 235.06,313.75 234.56,315.38 234.51,316.55 235.06,318.1 
		235.36,319.15 235.9,320.53 236.65,321.6 237.65,322.81 238.54,323.68 239.84,324.73 241.23,325.75 242.58,326.74 243.72,327.44 
		245.31,328.42 246.71,329.47 247.8,330.15 248.8,330.92 249.94,331.98 250.94,332.88 252.33,333.9 253.53,335.05 254.48,335.9 
		255.42,336.81 256.32,337.74 257.46,338.81 258.31,339.7 259.2,340.9 259.5,341.91 259.46,342.82 259.85,344.44 260.2,345.39 
		260.7,346.41 261.25,347.84 261.3,348.92 261.2,350.08 260.55,351.32 260,352.63 260.15,353.75 260.25,354.7 260.9,355.56 
		260.7,356.43 260.1,357.49 260.35,358.41 260.75,359.64 260.8,359.86 261.25,361.28 261.6,362.28 261.89,363.24 262.24,364.33 
		262.59,365.29 263.19,365.79 264.53,366.34 265.48,366.6 266.17,366.91 266.72,367.12 267.62,367.47 268.32,367.65 269.11,367.84 
		268.12,367.69 267.72,367.6 267.57,367.52 268.02,367.02 268.41,366.89 268.76,366.66 268.91,366.96 268.96,367.36 268.96,367.76 
		270.16,368.25 271.5,368.75 272.7,369.25 273.84,369.68 275.24,370.14 277.08,370.72 279.17,371.26 280.27,371.64 281.91,372.13 
		283.55,372.72 284.9,373.15 286.59,373.65 287.98,374.4 289.03,375.29 290.12,376.19 291.47,377.24 292.46,377.91 292.76,378.31 
		294.3,379.05 295.6,379.8 295.6,380.87 294.5,381.76 293.31,382.5 292.31,383.29 291.07,384.12 289.62,385.05 288.13,385.93 
		286.93,386.61 285.49,387.54 284.3,388.3 282.9,389.04 281.41,389.67 280.01,390.25 278.57,390.9 277.38,391.53 276.08,392.17 
		274.64,392.77 273,393.19 271.6,393.57 269.81,394.04 268.56,393.21 267.82,392.21 267.02,391.24 265.88,390.88 264.38,390.97 
		263.14,391.81 261.69,392.66 260.65,393.32 259.15,394.09 257.71,394.64 257.06,394.43 255.57,393.88 254.42,393.34 253.13,392.69 
		251.93,392.1 250.44,391.27 248.85,390.54 247.8,390.08 246.26,389.32 244.77,388.61 243.47,388.08 242.03,387.28 240.68,386.49 
		239.49,385.94 238.09,385.28 236.95,384.77 235.95,384.27 234.76,383.59 233.46,382.88 232.37,382.33 230.88,381.79 229.33,381.28 
		228.49,380.95 227.44,380.64 227.14,380.53 226.54,380.35 224.95,380 223.11,379.74 221.82,379.6 220.02,379.86 218.28,380.26 
		216.54,380.86 214.94,381.27 213.2,381.98 211.56,382.32 209.52,382.21 207.53,382.07 205.68,382.08 205.04,381.01 205.34,379.5 
		205.64,378.23 205.79,376.85 206.08,375.12 206.48,373.73 206.68,372.38 206.93,371 207.23,369.37 207.48,368.05 207.73,366.57 
		207.98,365.1 208.27,363.55 208.47,362.24 208.72,360.92 208.97,359.41 209.27,357.8 209.52,356.18 209.82,354.65 210.02,353.72 
		210.56,352.68 210.71,351.69 210.56,350.27 209.07,350.03 207.63,349.92 205.73,349.72 204.09,349.56 202.15,349.36 200.56,349.22 
		198.61,349.01 196.87,348.83 194.93,348.74 193.24,348.55 191.34,348.34 189.6,348.14 187.36,347.88 185.57,347.55 183.68,347.44 
		182.78,347.55 181.19,347.27 179.4,347.04 177.36,346.83 175.36,346.62 173.47,346.43 171.73,346.25 170.04,346.2 168.2,346.07 
		166.1,345.85 164.56,345.67 162.62,345.44 160.28,345.2 158.49,345.06 156.35,344.7 154.55,344.49 152.46,344.24 150.77,344 
		148.58,343.79 146.79,343.61 144.8,343.3 142.85,343.11 140.66,342.91 138.92,342.69 137.33,342.6 135.24,342.37 133.65,342.17 
		132,341.86 130.06,341.42 128.47,341.01 126.43,340.48 124.63,340.01 123.04,339.6 121.15,339.11 119.26,338.6 117.76,338.23 
		116.22,337.82 114.33,337.31 113.03,336.93 111.24,336.41 109.35,335.86 107.41,335.31 105.57,334.78 103.92,334.32 102.03,333.79 
		100.19,333.26 98.94,332.9 97.1,332.54 95.56,332.02 93.76,331.34 92.42,330.92 90.98,330.44 89.53,329.97 88.19,329.55 86.35,329 
		84.5,328.5 82.71,327.96 80.97,327.5 79.78,327.13 78.83,326.88 77.58,326.32 78.58,326.37 79.78,326.66 80.97,326.98 
		82.61,327.44 84.01,327.84 85.5,328.28 86.95,328.71 88.69,329.21 90.18,329.57 92.17,330.15 93.91,330.61 95.61,331.12 
		97.6,331.78 99.49,332.38 101.28,332.88 102.73,333.31 103.82,333.64 105.37,334.04 107.01,334.5 108.85,335.03 110.44,335.52 
		112.14,336.03 113.68,336.55 115.62,336.99 117.51,337.5 119.46,337.98 121.35,338.53 122.79,338.98 124.53,339.45 126.23,339.77 
		127.67,340.2 129.46,340.67 131.25,341.12 132.7,341.39 134.09,341.62 134.54,341.65 136.73,341.85 138.17,341.98 140.22,342.29 
		142.21,342.4 143.65,342.51 145.05,342.69 145.84,342.76 147.14,342.91 149.23,343.12 150.77,343.31 152.46,343.45 154.2,343.61 
		156.15,343.82 157.74,344.03 159.53,344.24 161.18,344.46 163.12,344.69 165.11,345.01 166.7,345.11 168.5,345.2 170.59,345.46 
		172.67,345.65 174.72,345.85 176.41,346 178.35,346.23 180.2,346.38 181.84,346.79 183.18,346.72 183.33,346.66 184.77,346.94 
		186.67,347.12 188.31,347.43 189.95,347.49 191.84,347.7 193.64,347.85 195.43,348.1 196.82,348.2 198.67,348.42 200.21,348.62 
		202.1,348.76 204.04,348.95 205.38,349.13 206.63,349.21 208.07,349.48 209.67,349.66 211.11,349.7 212.75,349.79 214.05,350.04 
		215.05,349.73 216.04,349.53 217.98,350.4 219.92,350.65 221.62,350.93 223.16,351.14 225.05,351.34 226.79,351.38 228.44,351.66 
		230.03,351.92 231.92,352.19 233.17,352.18 233.56,352.27 235.86,352.62 237.55,352.89 239.64,353.09 241.13,353.25 241.93,353.3 
		242.18,353.37 243.87,353.63 245.16,353.78 245.36,353.79 246.51,353.87 247.6,354.01 248.9,354.06 249.3,354.14 250.59,354.29 
		251.54,354.42 253.13,354.64 254.72,354.86 256.22,355.05 257.96,355.32 259.31,355.38 259.8,354.52 259.9,353.43 259.9,352.13 
		260.6,350.71 261.1,349.62 261.15,348.28 260.7,347.02 260.15,345.66 259.65,344.53 259.25,343.08 259.2,341.89 258.71,340.63 
		258.11,339.82 256.82,338.61 255.82,337.73 255.32,337.28 253.88,335.83 252.88,335.07 251.69,333.9 250.69,333.13 249.5,331.92 
		248.95,331.6 247.3,330.33 245.91,329.43 244.52,328.35 243.22,327.48 241.73,326.49 240.24,325.5 238.99,324.48 237.7,323.24 
		236.75,322.21 235.9,321.04 235.36,319.81 234.86,318.75 234.56,317.34 234.36,315.93 234.56,314.53 235.16,312.93 235.75,311.56 
		236.2,310.44 235.26,309.93 233.91,309.65 232.82,309.59 231.62,309.39 230.33,309.32 229.58,309.2 228.98,309.09 228.59,309.11 
		227.99,308.45 228.24,307.25 228.34,305.99 228.59,304.63 228.83,302.8 229.03,301.34 229.38,299.5 229.68,297.88 230.03,295.99 
		230.33,294.37 230.53,292.85 230.88,290.92 231.23,289.14 231.72,287.17 232.17,285.72 232.62,284.25 233.22,282.47 233.61,281.03 
		234.06,279.58 234.86,278.13 235.36,276.75 235.86,275.15 236.05,274.04 236.25,272.49 236.5,271.22 236.9,269.83 237.15,268.24 
		237.2,266.94 237.2,265.62 237.3,264.42 237.55,262.99 237.89,261.67 238.54,260.25 238.94,259.21 239.24,257.44 238.84,256.27 
		237.85,254.99 236.85,253.97 235.95,252.47 236.2,250.52 236.55,248.6 236.9,246.81 237.2,244.98 237.4,243.56 237.7,241.63 
		238.04,239.88 238.34,238.57 238.54,237.1 238.84,235.72 239.09,234.34 239.39,232.56 239.69,230.94 239.94,229.42 240.19,228.02 
		240.44,227.13 240.83,225.37 241.13,224.05 241.23,222.65 241.38,221.82 241.63,220.11 241.83,218.74 242.13,217.4 242.28,215.93 
		242.63,214.65 242.87,213.03 243.17,211.5 243.47,209.99 243.67,209.73 243.57,209.87 243.57,209.85 243.67,209.33 243.92,208.69 
		244.32,208.46 245.51,207.59 246.56,207.3 247.36,207.23 248.35,207.19 249.35,206.65 250.05,205.99 251.04,205.31 251.99,204.64 
		252.43,203.88 252.78,203.09 253.18,202.45 253.38,202.44 253.63,202.61 253.43,202.36 253.63,201.77 253.88,201.1 254.08,200.6 
		254.48,200.53 255.42,200.81 256.22,201.01 256.86,199.71 257.31,198.82 257.71,197.96 258.21,196.79 258.66,195.81 259.31,194.45 
		259.9,193.08 260.45,191.91 260.95,191.04 261.69,189.32 262.39,187.83 262.89,186.75 263.39,185.61 263.69,185.09 263.24,184.8 
		263.04,184.64 261.45,184.15 260,183.74 259.35,183.54 258.21,183.3 256.82,182.89 255.47,182.47 254.53,183.27 254.13,184.2 
		253.78,184.43 251.59,183.92 251.14,183.79 249.3,183.26 248.35,182.91 248.05,182.71 247.7,182.43 247.75,181.38 246.61,180.84 
		245.51,180.72 244.47,180.52 243.87,180.47 243.47,181.82 243.27,182.97 243.27,183.86 242.93,184.88 242.82,185.57 242.03,186.93 
		241.48,187.5 240.38,188.67 238.79,188.66 237.8,188.55 237.4,188.98 237.2,189.98 237,190.99 236.45,191.99 235.16,191.81 
		233.91,191.65 232.62,191.47 231.03,191.29 229.98,191.16 228.14,191.01 226.79,190.92 225.15,190.75 223.66,190.59 223.36,190.54 
		223.56,189.46 223.16,188.75 221.71,188.57 221.02,188.96 221.02,189.44 220.77,190.7 220.62,191.69 220.37,193 220.07,194.45 
		219.97,195 219.72,196.79 219.48,198.07 219.18,199.56 218.98,201.05 218.68,202.29 218.68,202.43 218.33,204.34 218.18,205.15 
		218.08,205.23 217.38,205.7 215.74,205.61 214.2,205.41 213.9,205.34 211.81,205.04 210.02,204.88 208.62,204.65 206.68,204.46 
		205.19,204.27 203.35,204.06 202.05,203.92 200.51,203.88 200.26,203.76 200.06,203.68 199.41,203.67 197.17,203.5 195.68,203.24 
		193.83,203.12 192.29,202.84 191.55,202.78 191.1,202.75 191.1,202.56 191.34,201.56 191.64,199.96 191.94,198.36 192.19,197.14 
		192.39,196.07 192.59,195 192.74,194.02 192.94,193.1 193.14,192.15 193.34,191.19 193.34,190.63 193.69,189.53 193.89,188.45 
		194.09,187.25 194.28,186.21 194.33,185.47 194.38,185.31 194.78,183.76 194.98,182.59 195.23,181.18 195.48,179.89 195.68,178.83 
		195.88,177.83 195.88,177.46 195.18,176.53 193.98,177.17 192.84,177.78 192.14,178.14 192.84,178.04 193.49,177.6 194.03,177.25 	
		"/>
</g>
</svg>
