<?xml version="1.0" encoding="utf-8"?>
<!-- Generator: Adobe Illustrator 15.0.0, SVG Export Plug-In . SVG Version: 6.00 Build 0)  -->
<!DOCTYPE svg PUBLIC "-//W3C//DTD SVG 1.1//EN" "http://www.w3.org/Graphics/SVG/1.1/DTD/svg11.dtd">
<svg version="1.1" id="Layer_1" xmlns="http://www.w3.org/2000/svg" xmlns:xlink="http://www.w3.org/1999/xlink" x="0px" y="0px"
	 width="504px" height="504px" viewBox="0 0 504 504" enable-background="new 0 0 504 504" xml:space="preserve">
<polyline opacity="0.125" fill="none" stroke="#000000" stroke-width="0.75" stroke-linecap="round" stroke-linejoin="round" stroke-miterlimit="10" points="
	201.38,269.37 201.47,269.45 201.39,269.73 201.34,270.03 201.33,270.09 201.24,270.6 201.15,271.05 201.06,271.49 201.01,271.8 
	201.39,271.91 201.72,271.95 201.87,272.04 201.82,272.3 201.75,272.66 201.69,273 201.6,273.39 201.56,273.71 201.54,273.74 
	201.44,274.2 201.36,274.59 201.29,274.93 201.23,275.27 201.15,275.72 201.08,276.12 201.01,276.49 200.91,276.92 200.85,277.32 
	200.78,277.62 200.62,277.71 200.16,277.65 199.88,277.62 199.41,277.57 199.21,277.79 199.09,278.22 199.03,278.65 198.95,279.11 
	198.9,279.5 198.9,279.57 198.88,279.74 198.77,280.3 198.68,280.57 198.55,281.11 198.49,281.47 198.41,281.97 198.32,282.45 
	198.23,282.88 198.14,283.38 198.04,283.84 197.98,284.24 197.9,284.7 197.82,285.07 197.75,285.36 197.7,285.49 197.19,285.48 
	196.72,285.4 196.13,285.35 195.57,285.28 195.08,285.22 194.6,285.17 193.98,285.11 193.39,285.06 193.12,285.03 192.48,284.98 
	192.06,284.91 191.45,284.83 190.99,284.76 190.58,284.71 190.1,284.67 189.89,284.64 189.2,284.56 188.81,284.51 188.38,284.46 
	187.82,284.4 187.28,284.35 186.71,284.3 186.27,284.23 185.69,284.19 185.17,284.11 185.04,284.08 184.36,284.02 183.94,283.97 
	183.28,283.91 182.85,283.86 182.12,283.78 181.57,283.71 181,283.65 180.64,283.61 179.98,283.53 179.54,283.46 178.93,283.4 
	178.34,283.34 177.72,283.27 177.21,283.21 176.72,283.15 176.44,283.12 175.75,283.05 175.57,283.03 175.01,282.96 174.47,282.89 
	174.01,282.85 173.49,282.8 172.96,282.74 172.83,282.73 172.17,282.66 171.73,282.61 171.3,282.56 170.76,282.5 170.31,282.45 
	170.19,282.44 169.57,282.37 169.07,282.34 168.62,282.32 168.12,282.29 167.55,282.2 167.09,282.12 166.96,282.12 166.76,282.28 
	166.68,282.49 166.58,282.91 166.53,283.26 166.45,283.58 166.38,283.96 166.29,284.34 166.24,284.67 166.15,285.04 166.09,285.36 
	166.01,285.66 165.99,285.79 165.88,286.33 165.79,286.7 165.78,286.84 165.68,287.32 165.6,287.67 165.5,288.08 165.42,288.51 
	165.33,288.88 165.27,289.31 165.27,289.38 165.25,289.53 165.2,289.51 164.97,289.48 164.64,289.44 164.19,289.41 163.78,289.39 
	163.25,289.36 162.81,289.31 162.25,289.22 161.69,289.14 161.12,289.08 160.61,289.05 159.99,288.99 159.49,288.63 159.2,288.28 
	158.84,287.86 158.54,287.54 158.17,287.13 157.84,286.8 157.48,286.38 157.05,286 156.62,285.63 156.3,285.32 156.12,285.1 
	156.03,284.98 155.98,284.98 155.97,284.98 155.89,284.84 155.72,284.56 155.49,284.34 155.15,283.98 154.85,283.65 154.44,283.19 
	154.02,282.76 153.6,282.45 152.92,282.49 152.39,282.61 151.78,282.77 151.29,282.9 150.7,283.04 150.24,283.16 149.7,283.29 
	149.13,283.45 148.65,283.54 148.08,283.69 147.68,283.84 147.22,283.88 146.71,284.05 146.29,284.18 145.88,284.3 145.44,284.42 
	144.93,284.52 144.39,284.64 143.94,284.77 143.48,284.81 142.88,284.78 142.38,284.9 141.93,285.21 141.55,285.58 141.07,285.86 
	140.63,286.04 140.07,286.2 139.58,286.35 139.07,286.6 138.73,286.83 138.32,287.05 137.97,287.25 137.59,287.54 137.3,287.79 
	137.09,287.93 137.02,287.95 137,287.98 136.74,288.13 136.43,288.32 136.09,288.55 135.76,288.75 135.36,289.01 134.99,289.18 
	134.44,289.28 133.94,289.41 133.54,289.51 133.03,289.64 132.51,289.79 132.07,289.92 131.57,290.07 130.92,290.11 130.36,290.16 
	129.8,290.29 129.23,290.43 128.6,290.62 128.1,290.73 127.5,290.74 127.03,290.62 126.62,290.4 126.16,290.14 125.98,289.71 
	125.64,289.3 125.31,288.88 125.05,288.52 124.8,288.09 124.67,287.84 124.67,287.73 124.58,287.54 124.45,287.21 124.39,287.03 
	124.22,286.67 124.13,286.34 123.93,286.01 123.8,285.65 123.67,285.3 123.5,284.9 123.36,284.61 123.17,284.16 122.99,283.67 
	122.88,283.24 122.73,282.81 122.58,282.36 122.57,281.96 122.65,281.46 122.67,281.1 122.49,280.92 122.4,280.84 122.45,280.8 
	122.49,280.56 122.62,280.45 122.75,280.35 122.58,280.05 122.47,279.76 122.35,279.35 122.26,278.99 122.17,278.59 122.06,278.21 
	121.96,277.77 121.9,277.35 121.85,276.96 121.76,276.52 121.76,276.15 121.73,275.7 121.67,275.31 121.65,274.92 121.62,274.44 
	121.6,274.05 121.58,273.67 121.57,273.2 121.53,272.82 121.52,272.33 121.5,271.94 121.5,271.48 121.7,271.13 122.16,271 
	122.75,270.93 123.34,270.86 123.8,270.78 124.27,270.71 124.58,270.39 124.54,270.01 124.49,269.67 124.22,269.28 123.65,269.25 
	123.31,268.91 122.98,268.59 122.55,268.26 122.08,268.02 121.52,267.81 121.04,267.68 120.62,267.46 120.11,267.14 119.66,266.85 
	119.27,266.61 118.93,266.35 118.55,266.1 118.19,265.92 117.83,265.74 117.43,265.52 116.97,265.33 116.58,265.21 116.09,265.07 
	115.63,264.99 115.17,264.91 114.6,264.83 114.1,264.78 113.53,264.73 113.09,264.68 112.54,264.58 111.97,264.52 111.41,264.46 
	110.95,264.39 110.43,264.34 109.9,264.27 109.48,264.25 109.02,264.14 108.53,263.99 108,263.88 107.47,263.8 107.07,263.67 
	106.52,263.54 106.1,263.39 105.56,263.22 105,263.08 104.52,262.96 103.96,262.79 103.52,262.67 103.01,262.49 102.65,262.14 
	102.31,261.81 102.01,261.53 101.8,261.28 101.78,260.94 101.82,260.58 101.83,260.24 101.87,259.98 101.98,259.83 102.19,259.74 
	102.14,259.64 101.95,259.62 101.81,259.62 101.76,259.62 101.71,259.61 101.62,259.6 101.65,259.39 101.7,259 101.67,258.72 
	101.67,258.47 101.7,258.42 101.7,258.41 101.75,258.21 101.67,257.91 101.47,257.64 101.42,257.25 101.37,256.93 101.24,256.51 
	101.11,256.16 100.98,255.71 100.85,255.37 100.68,254.94 100.59,254.57 100.5,254.12 100.47,253.74 100.45,253.31 100.45,252.9 
	100.45,252.44 100.49,251.95 100.52,251.59 100.57,251.22 100.68,250.79 100.77,250.46 100.9,250.09 101.11,249.69 101.21,249.38 
	101.31,249.04 101.44,248.65 101.67,248.28 101.87,247.91 102.11,247.43 102.39,247.08 102.77,246.66 103.05,246.2 103.36,245.8 
	103.57,245.51 103.7,245.09 103.77,244.77 103.73,244.67 103.75,244.5 103.73,244.45 103.73,244.47 103.8,244.32 104.16,244.32 
	104.46,244.25 104.7,243.97 104.95,243.67 105.13,243.35 105.42,242.99 105.67,242.58 105.92,242.26 106.23,241.93 106.59,241.67 
	107.11,241.55 107.74,241.62 108.3,241.58 108.9,241.37 109,240.91 108.72,240.55 108.44,240.27 108.43,239.94 108.51,239.65 
	108.56,239.32 108.57,238.97 108.57,238.57 108.74,238.25 109.03,237.95 109.1,237.63 109.03,237.22 108.67,236.86 108.3,236.44 
	108.03,236.1 107.72,235.67 107.57,235.32 107.72,234.9 108,234.55 108.3,234.2 108.38,233.89 108.21,233.54 107.82,233.26 
	107.62,232.98 107.33,232.77 107.11,232.66 107.1,232.53 107.43,232.52 107.71,232.56 108.07,232.56 108.34,232.54 108.44,232.58 
	108.53,232.54 108.67,232.53 108.67,232.56 108.69,232.54 108.74,232.33 108.85,232.11 109.13,232.11 109.23,231.94 109.43,231.69 
	109.74,231.38 109.99,231.02 110.31,230.85 110.62,230.65 111,230.36 111.36,230.19 111.86,230.03 112.23,229.87 112.69,229.64 
	113.07,229.47 113.48,229.37 113.99,229.32 114.5,229.31 114.99,229.29 115.53,229.2 116.01,229.21 116.61,229.26 117.24,229.3 
	117.74,229.37 118.27,229.49 118.83,229.66 119.17,229.51 118.93,229.21 118.7,228.8 118.55,228.46 118.47,228.19 118.84,228.13 
	119.2,228.09 119.55,227.95 119.86,227.81 120.25,227.68 120.68,227.61 121.07,227.56 121.45,227.45 121.81,227.32 122.24,227.18 
	122.72,227.18 123.08,227.39 123.32,227.6 123.7,227.85 124.06,228.02 124.45,228.06 124.98,228.16 125.36,228.38 125.65,228.6 
	126.04,228.7 126.46,228.77 126.96,228.86 127.46,228.84 127.93,228.69 128.44,228.46 128.75,228.27 129.08,228.13 129.43,228.01 
	129.72,227.91 129.97,227.76 130.21,227.57 130.54,227.36 130.79,227.17 131.1,226.92 131.33,226.68 131.67,226.35 132.07,225.98 
	132.43,225.65 132.66,225.1 132.98,224.68 133.26,224.28 133.49,223.87 133.72,223.41 133.85,223.05 134.02,222.71 134.23,222.74 
	134.25,222.74 134.43,222.6 134.43,222.55 134.43,222.56 134.48,222.39 134.41,222.21 134.64,222 134.85,221.72 135.13,221.5 
	135.35,221.17 135.53,220.87 135.69,220.64 135.84,220.36 135.99,220.08 136.17,219.82 136.35,219.44 136.56,219.15 136.77,218.84 
	137.04,218.44 137.09,218.05 137.17,217.68 137.64,217.36 137.99,217.07 138.4,216.79 138.78,216.49 139.2,216.15 139.58,215.8 
	140.01,215.54 140.37,215.28 140.73,215.01 141.09,214.69 141.56,214.36 141.93,214.06 142.38,213.75 142.84,213.4 143.24,213.12 
	143.66,212.76 144.02,212.49 144.43,212.17 144.86,211.87 145.24,211.53 145.57,211.26 145.98,211 146.21,210.6 146.45,210.26 
	146.7,210.23 146.83,210.31 146.8,210.28 146.83,210.33 147.06,210.21 147.17,210.12 147.31,210.05 147.49,209.89 147.76,209.85 
	148.13,209.79 148.62,209.62 149.14,209.41 149.77,209.13 150.32,208.86 150.95,208.52 151.41,208.26 151.91,207.95 152.42,207.61 
	152.87,207.36 153.38,207.07 153.8,206.82 154.21,206.56 154.64,206.32 155.15,206.04 155.57,205.8 156,205.56 156.44,205.31 
	156.95,205 157.48,204.75 157.84,204.45 157.97,204.2 158.23,203.93 158.43,203.82 158.67,203.66 158.99,203.44 159.3,203.2 
	159.46,202.85 159.59,202.52 159.67,202.15 159.76,201.84 159.84,201.54 160.07,201.18 160.45,200.95 160.87,200.71 161.28,200.57 
	161.71,200.55 162.22,200.49 162.68,200.41 163.09,200.38 163.51,200.32 164.01,200.26 164.38,200.11 164.68,199.9 165.04,199.62 
	165.32,199.4 165.6,199.21 165.74,198.89 165.88,198.57 165.97,198.21 166.02,197.78 166.07,197.43 166.17,197.08 166.35,196.77 
	166.42,196.7 166.48,196.63 166.53,196.64 166.63,196.82 166.66,196.9 166.66,196.8 166.86,196.74 167.01,196.7 166.97,196.79 
	167.07,197 167.29,197.22 167.45,197.44 167.61,197.63 167.83,197.84 168.06,198.07 168.27,198.23 168.45,198.34 168.78,198.53 
	169.06,198.7 169.44,198.59 169.58,198.29 169.65,198.04 169.22,198.1 168.78,198.1 168.47,197.86 168.75,197.39 169.06,196.88 
	169.32,196.39 169.48,195.99 169.66,195.52 169.83,195.11 169.94,194.72 170.12,194.28 170.27,193.87 170.4,193.44 170.55,193.05 
	170.78,192.72 171.01,192.38 171.26,192.01 171.47,191.65 171.83,191.27 172.21,190.91 172.54,190.6 172.93,190.26 173.37,189.91 
	173.82,189.63 174.22,189.32 174.7,189.03 175.14,188.86 175.68,188.65 176.18,188.51 176.75,188.35 177.24,188.19 177.79,188.05 
	178.33,187.93 178.83,187.84 179.46,187.72 179.97,187.66 180.56,187.54 181.03,187.16 181.39,186.81 181.69,186.46 181.74,185.98 
	181.67,185.56 181.61,184.96 181.51,184.61 181.35,184.5 181.41,184.16 181.46,183.75 181.89,183.47 182.26,183.16 182.66,182.69 
	183.12,182.35 183.51,181.8 183.99,181.41 184.54,181 184.95,180.64 185.58,180.38 186,180.19 186.41,180.07 186.68,179.77 
	186.99,179.51 187.25,179.32 187.5,179.11 187.82,178.84 188.09,178.63 188.43,178.39 188.63,178.03 188.84,177.79 189.12,177.62 
	189.47,177.38 189.74,177.17 190.15,176.93 190.56,176.68 190.86,176.47 191.17,176.24 191.53,175.98 191.88,175.76 192.25,175.57 
	192.6,175.45 193.06,175.33 193.52,175.22 193.98,175.12 194.39,175.06 194.86,175 195.37,174.92 195.81,174.8 196.27,174.54 
	196.62,174.32 197.06,174.08 197.36,173.83 197.26,173.42 196.85,173.39 196.32,173.35 195.91,173.07 195.83,172.68 196.11,172.42 
	196.42,172.12 196.75,171.85 197.03,171.61 197.49,171.34 197.83,171.07 198.16,170.81 198.59,170.47 198.91,170.21 199.42,169.95 
	199.83,169.67 200.19,169.37 200.42,169.05 200.69,168.78 201.1,168.46 201.46,168.2 201.88,167.91 202.28,167.63 202.75,167.3 
	203.1,167.03 203.46,166.76 203.92,166.46 204.38,166.17 204.93,166.14 205.44,166.27 205.89,166.25 206.26,166.24 206.41,166.24 
	206.46,166.25 206.48,166.27 206.72,166.31 207.03,166.31 207.46,166.21 207.69,166.11 208.07,165.99 208.38,165.88 208.69,165.74 
	209,165.83 209.1,166.16 209.33,166.59 209.56,166.88 209.68,167.2 210.1,167.34 210.63,167.21 211.05,167.13 211.45,166.8 
	211.64,166.68 212.1,166.44 212.63,166.36 213.14,166.32 213.55,166.27 213.99,166.23 214.48,166.17 214.68,166.09 214.92,165.64 
	214.92,165.46 214.88,165.04 214.83,164.74 214.76,164.35 214.71,164.04 214.7,163.97 214.7,163.67 214.78,163.26 215.29,163.17 
	215.83,163.07 216.29,162.8 216.35,162.47 216.4,162.02 216.42,161.58 216.43,161.21 216.29,161.03 216.4,160.68 216.39,160.4 
	216.09,160.15 215.78,159.89 215.47,159.6 215.4,159.39 215.76,158.93 216.12,158.65 216.45,158.4 216.78,158.15 217.12,157.88 
	217.22,157.81 217.68,157.45 218.09,157.18 218.37,157.04 218.49,156.82 218.35,156.64 218.09,156.45 217.88,156.23 217.57,155.99 
	217.39,155.82 217.58,155.58 217.96,155.29 218.24,154.97 218.65,154.58 219.21,154.24 219.62,153.89 220.17,153.57 220.63,153.27 
	220.9,152.73 221.36,152.36 221.83,152.49 222.36,152.89 222.85,152.79 223.14,152.3 223.36,151.74 223.67,151.3 224.32,151 
	225.03,150.94 225.77,151.05 226.36,150.76 227.15,150.46 227.72,150.03 227.87,149.59 228.18,149.3 228.28,149.53 228.16,149.74 
	228.1,149.97 227.93,150.1 227.97,150.15 227.95,150.17 227.82,150.28 227.54,150.62 227.21,150.88 227.05,151.24 227.26,151.51 
	227.7,151.64 228.26,151.6 228.82,151.57 229.18,151.67 229.26,151.94 229.11,152.18 228.97,152.42 228.85,152.67 228.67,152.93 
	228.47,153.07 228.13,153.15 227.74,153.23 227.29,153.32 226.95,153.4 226.54,153.47 226.26,153.57 225.92,153.79 225.62,154.02 
	225.65,154.22 225.65,154.25 225.41,154.1 225.16,154.12 224.77,154.38 224.67,154.8 224.59,155.46 224.73,155.93 224.93,156.41 
	225.1,156.78 225.33,157.22 225.29,157.7 225.19,158.17 225,158.54 224.75,158.85 224.55,159.17 224.55,159.57 224.52,159.94 
	224.47,160.28 224.51,160.66 224.51,161.01 224.55,161.46 224.41,161.78 223.95,161.94 223.55,162.14 223.14,162.31 222.75,162.46 
	222.31,162.74 222.06,163.16 221.95,163.52 221.98,163.9 221.85,164.24 221.42,164.47 220.96,164.52 220.5,164.7 220.14,164.98 
	219.73,165.25 219.4,165.52 219.01,165.82 218.75,166.18 218.67,166.56 218.73,166.89 219.11,167.22 219.44,167.6 219.81,167.94 
	220.08,168.23 220.44,168.54 220.8,168.83 221.16,169.12 221.5,169.44 221.8,169.86 222.01,170.19 222.27,170.53 222.44,170.95 
	222.62,171.32 222.75,171.5 223.03,171.63 223.16,171.7 223.05,171.61 222.75,171.44 222.6,171.54 222.5,171.61 222.45,171.73 
	222.83,172.02 223.05,172.39 223.08,172.71 223.08,173.08 223,173.43 222.83,173.83 222.67,174.16 222.63,174.59 222.85,174.88 
	223.27,175.07 223.83,175.1 224.34,175.09 224.8,175.16 225.34,175.27 225.8,175.42 226.28,175.51 226.85,175.52 227.43,175.26 
	227.92,175.17 228.44,175.1 229.05,175.19 229.49,175.37 229.97,175.47 230.48,175.62 230.87,175.81 231.18,176.08 231.43,176.43 
	231.61,176.8 231.41,177.06 231.02,177.18 230.51,177.29 230.2,177.58 230.13,177.95 230.13,178.4 230.18,178.73 230.25,179.03 
	230.28,179.33 230.69,179.69 230.95,180.03 231.23,180.27 231.66,180.4 232.12,180.25 232.69,180.05 233.07,179.63 233.46,179.52 
	233.87,179.66 234.14,179.96 234.23,180.24 234.22,180.55 234.31,181.04 234.59,181.3 235.02,181.38 235.46,181.49 235.68,181.75 
	235.6,182.07 235.79,182.34 236.04,182.51 236.4,182.69 236.71,182.9 236.96,183.08 237.78,182.71 238.1,182.37 238.61,182.38 
	239.09,182.47 239.5,182.61 239.97,182.83 240.34,183.08 240.66,183.3 241.01,183.52 241.32,183.81 241.5,184.12 241.81,184.45 
	242.26,184.76 242.8,184.85 243.12,185.11 243.35,185.42 243.72,185.76 244.01,186.05 244.21,186.45 244.32,186.85 244.27,187.2 
	244.21,187.58 244.63,187.92 245.19,187.99 245.67,187.84 246.24,187.77 246.65,187.83 246.88,188.06 246.7,188.38 246.83,188.78 
	246.95,188.9 247.18,189.01 247.5,189.13 247.44,189.4 247.04,189.58 246.7,189.75 246.52,189.98 246.36,190.29 246.22,190.59 
	246.11,191.04 246.17,191.47 246.41,191.77 246.55,192.03 246.93,192.24 247.49,192.4 247.93,192.71 248.39,193 248.8,193.21 
	249.26,193.47 249.67,193.69 250.03,193.88 250.31,194.05 250.59,194.22 250.9,194.47 251.15,194.65 251.31,194.89 251.03,195.51 
	250.95,195.81 251.03,196.1 250.97,196.5 250.97,196.84 251.1,197.16 251.7,197.36 252.28,197.59 252.31,197.91 252.23,198.26 
	252.2,198.66 252.21,199.11 252.2,199.51 252.26,199.9 252.38,200.24 252.64,200.58 253.02,200.85 253.28,201.11 253.46,201.36 
	253.74,201.68 253.98,202.01 254.46,202.29 254.94,202.32 255.49,202.26 256.07,202.35 256.25,202.58 256.43,202.84 256.59,203.11 
	256.82,203.45 257,203.7 257.22,204.04 257.04,204.38 256.64,204.56 256.13,204.62 255.9,204.97 255.72,205.33 255.3,205.23 
	254.71,205.29 254.25,205.37 253.82,205.33 253.44,205.26 253.03,205.24 252.61,205.17 252.16,205.14 251.7,205.18 251.42,205.26 
	251.11,205.44 250.74,205.86 250.65,206.33 250.57,206.67 250.54,207.03 250.6,207.41 250.98,207.71 251.11,208.02 250.87,208.31 
	250.7,208.57 250.51,208.93 250.13,209.15 249.78,209.3 249.31,209.34 249,209.53 248.96,209.87 249.37,210 249.74,210.1 
	249.75,210.39 249.7,210.61 249.47,210.92 249.29,211.18 249.05,211.39 248.83,211.77 248.83,212.08 248.93,212.4 249.08,212.59 
	249.21,212.74 249.44,212.87 249.95,213.01 250.36,213.22 250.69,213.45 250.97,213.49 251.1,213.58 251.61,213.67 251.97,213.71 
	252.13,213.94 252.06,214.11 252.02,214.31 252.02,214.48 252.44,214.58 252.84,214.63 253.21,214.67 253.77,214.75 254.3,214.81 
	254.71,214.87 255.13,214.89 255.53,214.95 256,215.04 256.41,215.07 257.04,215.15 257.25,215.22 256.95,215.4 256.49,215.66 
	256.33,215.94 256.46,216.2 256.66,216.46 256.89,216.7 257.05,216.93 257.23,217.23 257.3,217.49 257.18,217.78 256.84,217.93 
	256.61,218.16 256.28,218.41 256.12,218.58 256.08,218.89 256.03,219.15 255.76,219.34 255.59,219.59 255.48,219.8 255.72,220.15 
	256.07,220.34 256.46,220.49 256.71,220.71 256.74,220.94 256.59,221.14 256.58,221.38 256.71,221.68 257.07,221.87 257.43,221.89 
	257.89,221.79 258.2,221.65 258.51,221.51 258.87,221.47 259.23,221.5 259.71,221.56 260.12,221.67 260.76,221.82 261.32,222.04 
	261.42,222.23 261.42,222.46 261.43,222.77 261.37,223.11 261.33,223.37 261.35,223.68 261.33,223.95 261.28,224.23 261.28,224.56 
	261.22,224.89 261.19,225.27 261.15,225.63 261.12,225.94 261.09,226.31 261.09,226.7 261.07,227.06 261.05,227.5 260.99,227.95 
	260.94,228.31 260.89,228.71 260.86,229.12 260.83,229.56 260.79,229.9 260.76,230.27 260.73,230.68 260.63,231.4 260.28,230.88 
	260.14,230.76 259.91,230.94 259.64,231.1 259.3,231.22 258.89,231.38 258.48,231.57 258.27,231.81 258.08,231.97 258,232.27 
	257.94,232.52 257.92,232.77 258.07,233.06 258.56,233.16 259.17,233.22 259.66,233.16 260.25,233.07 260.86,233.07 261.25,233.24 
	261.4,233.5 261.37,233.79 261.2,234.01 261.04,234.25 260.86,234.55 260.63,234.82 260.4,235.19 259.97,235.57 259.59,235.72 
	259.35,235.88 259.23,236.18 259.18,236.46 259.17,236.79 259.17,237.18 259.3,237.6 259.38,237.99 259.5,238.34 259.56,238.6 
	259.61,238.94 259.68,239.21 259.77,239.49 259.92,239.79 259.97,240.05 260.1,240.37 260.28,240.7 260.38,240.94 260.5,241.2 
	260.64,241.49 260.81,241.76 261,242.03 261.2,242.37 261.37,242.65 261.51,242.9 261.61,243.15 261.71,243.46 261.86,243.74 
	261.99,244.01 262.09,244.28 262.12,244.55 262.19,244.86 262.24,245.16 262.27,245.43 262.3,245.67 262.32,245.88 262.37,246.19 
	262.45,246.52 262.53,246.68 262.48,246.78 262.58,247.26 262.66,247.56 262.53,248.01 262.45,248.15 262.56,248.33 262.6,248.56 
	262.73,248.78 262.83,248.98 262.91,249.28 262.92,249.49 262.81,249.83 262.83,249.86 262.66,250.15 262.88,250.29 262.51,250.05 
	262.73,250.07 262.91,250.34 263.11,250.56 263.22,250.76 262.94,250.81 262.63,251 262.27,251.27 261.96,251.42 261.61,251.76 
	261.14,251.98 260.61,252.27 260.6,252.71 260.53,252.9 260.35,253.13 260.17,253.4 259.99,253.76 259.89,254.18 259.71,254.52 
	259.63,254.89 259.51,255.19 259.4,255.56 259.37,255.87 259.33,256.22 259.3,256.64 259.28,257 259.12,257.33 259.07,257.66 
	258.87,258.04 258.89,258.35 258.84,258.7 258.91,259.11 258.89,259.32 258.84,259.2 258.91,259.05 258.87,258.95 258.59,258.87 
	258.22,258.82 257.79,258.74 257.35,258.67 256.87,258.62 256.51,258.57 256.07,258.55 255.62,258.52 255.21,258.5 254.9,258.43 
	254.57,258.37 254.15,258.34 254.1,258.34 253.82,258.27 253.56,258.04 253.52,257.79 253.46,257.51 253.36,257.12 253.33,256.93 
	253.25,256.49 253.2,256.26 253.08,255.81 252.98,255.36 252.88,254.97 252.79,254.58 252.7,254.2 252.62,253.81 252.52,253.39 
	252.43,252.96 252.34,252.64 252.26,252.32 252.16,251.99 252.13,251.87 252.05,251.51 251.67,251.44 251.44,251.66 251.51,251.97 
	251.56,252.13 251.33,252.22 251.1,252.33 250.82,252.47 250.52,252.65 250.23,252.77 249.98,252.93 249.77,253.05 249.57,253.17 
	249.51,253.19 249.29,252.83 249.13,252.68 248.93,252.48 248.67,252.19 248.46,252.13 248.18,252.29 247.9,252.44 247.67,252.55 
	247.47,252.68 247.18,252.92 246.72,253.18 246.19,253.49 245.96,253.8 245.54,254.1 245.19,254.37 245.14,254.65 244.95,254.83 
	244.7,255 244.47,255.13 244.14,255.38 243.8,255.58 243.5,255.76 243.12,255.95 242.8,256.17 242.53,256.39 242.26,256.56 
	241.96,256.72 241.78,257.06 241.63,257.24 241.43,257.62 241.12,257.84 240.8,258.07 240.58,258.17 240.34,258.3 239.97,258.52 
	239.63,258.73 239.32,258.94 238.96,259.06 238.43,258.95 238.12,259.08 237.84,259.28 237.51,259.46 237.28,259.68 237.12,259.78 
	236.94,259.97 236.69,260.14 236.48,260.34 236.15,260.58 235.76,260.28 235.73,260.17 235.99,260.35 236.25,260.53 236.56,260.8 
	236.89,261.08 237.12,261.34 237.37,261.63 237.58,262.02 237.71,262.18 237.6,262.56 237.33,262.86 236.97,263.09 236.82,263.46 
	236.56,263.63 236.19,263.86 235.87,263.95 235.53,263.83 235.15,263.59 234.91,263.41 234.41,263.29 233.87,263.28 233.45,263.29 
	232.94,263.39 232.53,263.51 232.08,263.77 231.84,263.98 231.56,264.22 231.36,264.43 231.12,264.68 230.92,264.99 230.76,265.26 
	230.54,265.54 230.31,265.72 230.12,265.79 229.92,265.92 229.74,266.31 229.59,266.51 229.44,266.74 229.3,267.04 229.18,267.29 
	229.11,267.6 229.02,267.92 228.85,268.22 228.7,268.54 228.56,268.79 228.41,269.19 228.16,269.68 228,269.99 227.8,270.27 
	227.57,270.39 227.44,270.72 227.24,271.05 227.06,271.37 226.92,271.7 226.79,271.96 226.7,272.22 226.51,272.44 226.15,272.42 
	225.77,272.3 225.46,272.21 225.15,272.12 224.96,272.09 224.82,272.06 224.46,271.96 224.24,271.89 224.01,271.83 223.87,271.78 
	223.65,271.72 223.14,271.53 222.82,271.43 222.52,271.34 222.49,271.33 222.39,271.3 222,271.22 221.59,271.1 221.24,271 
	221.08,270.95 220.81,271.15 220.7,271.41 220.54,271.58 220.01,271.46 219.68,271.33 219.16,271.19 218.81,271.1 218.7,271.09 
	218.65,270.95 218.68,270.71 218.5,270.43 218.21,270.38 217.81,270.35 217.52,270.32 217.32,270.32 217.22,270.62 217.12,270.82 
	217.06,271.16 217.03,271.4 216.96,271.71 216.91,271.97 216.48,272 216.25,271.95 215.93,271.91 215.52,271.84 215.37,271.82 
	215.2,271.81 214.86,271.76 214.63,271.76 214.19,271.68 214.02,271.66 213.76,271.65 213.43,271.6 213.02,271.53 212.92,271.53 
	212.5,271.46 212.2,271.41 211.69,271.31 211.48,271.32 210.92,271.24 210.46,271.21 210.02,271.16 209.59,271.11 208.97,271.03 
	208.53,270.98 208,270.89 207.51,270.82 207.05,270.72 206.49,270.65 205.89,270.63 205.39,270.57 205.13,270.54 204.98,270.52 
	204.59,270.49 204.39,270.43 203.85,270.39 203.54,270.36 203.23,270.32 203.1,270.3 202.75,270.26 202.67,270.25 202.21,270.19 
	201.82,270.14 201.44,270.1 201.34,270.02 201.39,269.74 201.44,269.46 201.34,269.36 201.23,269.41 "/>
<polyline opacity="0.125" fill="none" stroke="#000000" stroke-width="0.75" stroke-linecap="round" stroke-linejoin="round" stroke-miterlimit="10" points="
	201.29,269.34 201.29,269.34 201.39,269.4 201.34,269.63 201.31,270.02 201.33,270.09 201.77,270.14 202.21,270.19 202.65,270.25 
	203.1,270.3 203.54,270.36 203.82,270.39 203.88,270.4 203.87,270.4 204,270.41 204.43,270.43 204.59,270.42 204.97,270.46 
	205.66,270.56 206.23,270.62 206.76,270.67 207.36,270.72 207.92,270.78 208.49,270.85 209.12,270.91 209.63,270.98 210.1,271.06 
	210.58,271.15 210.92,271.2 211.48,271.29 212.02,271.34 212.51,271.41 213.14,271.48 213.76,271.56 214.24,271.61 214.65,271.69 
	215.22,271.76 215.86,271.83 216.45,271.91 216.83,271.79 216.93,271.39 217.04,270.97 217.07,270.82 217.12,270.38 217.24,270.18 
	217.76,270.31 218.32,270.39 218.67,270.87 219.19,271.17 219.78,271.34 220.21,271.46 220.58,271.35 220.81,271.09 221.01,270.86 
	221.42,270.99 221.93,271.14 222.47,271.33 223.05,271.5 223.46,271.62 223.8,271.68 223.88,271.7 224,271.74 224.36,271.84 
	224.87,271.98 225.23,271.53 225.51,271.19 225.88,270.81 226.18,270.45 226.24,270.39 226.77,270.64 227.26,270.63 227.41,270.79 
	227.54,270.71 227.57,270.46 227.87,270.35 228.05,270 228.25,269.62 228.51,269.12 228.72,268.67 228.89,268.36 229.07,267.97 
	229.25,267.63 229.39,267.31 229.62,266.86 229.71,266.57 229.98,266.15 230.13,265.85 230.3,265.78 230.49,265.63 230.69,265.37 
	230.87,265.01 231.12,264.67 231.48,264.19 231.92,263.93 232.45,263.58 232.92,263.4 233.43,263.26 234.04,263.29 234.5,263.34 
	234.94,263.49 235.33,263.72 235.86,263.94 236.38,263.76 236.74,263.49 236.92,263.15 237.32,262.87 237.6,262.54 237.78,262.2 
	237.51,261.73 237.3,261.42 236.89,261.06 236.48,260.72 236.19,260.37 235.81,260.16 235.76,260.21 235.91,260.37 236.19,260.57 
	236.46,260.38 236.74,260.2 237.09,259.85 237.45,259.52 237.86,259.25 238.32,258.98 238.92,259.03 239.45,258.93 239.94,258.63 
	240.3,258.43 240.55,258.3 240.84,258.15 241.14,257.98 241.39,257.84 241.52,258.01 241.78,258.13 242.07,257.96 242.4,257.81 
	242.7,257.68 243.01,257.5 243.39,257.29 243.7,257.13 244.06,256.9 244.37,256.72 244.68,256.54 244.96,256.38 245.27,256.18 
	245.44,256.02 245.67,255.89 246.03,255.68 246.32,255.55 246.55,255.41 246.82,255.23 247.03,255.07 247.23,254.96 247.29,254.87 
	247.26,254.67 247.6,254.49 247.88,254.3 248.11,254.16 248.36,253.98 248.57,253.8 248.88,253.65 249.24,253.39 249.65,253.17 
	250.03,252.96 250.39,252.77 250.69,252.57 250.98,252.35 251.34,252.13 251.51,251.97 251.41,251.75 251.36,251.53 251.34,251.39 
	251.67,251.28 252.2,251.32 252.8,251.38 253.31,251.43 253.87,251.49 254.05,251.53 254.18,251.54 254.66,251.56 255.35,251.52 
	256.05,251.61 256.87,251.68 257.68,251.77 258.28,251.84 258.91,251.9 259.59,251.96 260.02,252 260.45,252.03 260.84,252.07 
	261.33,252.03 261.46,251.93 261.63,251.87 261.92,251.56 262.22,251.23 262.74,250.98 263.12,250.82 263.04,250.89 262.89,250.98 
	262.71,251.09 262.73,251.17 262.89,251.08 263.12,250.99 263.43,250.85 263.68,250.73 263.97,250.6 264.27,250.43 264.55,250.31 
	264.89,250.2 265.19,250.13 265.48,249.93 265.73,249.86 265.98,249.77 266.27,249.49 266.62,249.28 266.88,249.06 267.17,248.88 
	267.44,248.69 267.71,248.49 267.98,248.29 268.24,248.1 268.55,247.85 268.8,247.61 269.09,247.3 269.37,247.05 269.63,246.82 
	269.83,246.57 269.95,246.3 270.32,245.88 270.85,245.39 271.41,245 272.01,244.55 272.37,244.32 272.69,244.16 272.93,244.09 
	273.21,244.01 273.44,243.77 273.78,243.58 274.1,243.53 274.42,243.5 274.69,243.49 274.92,243.42 275.03,243.34 275.26,243.47 
	275.46,243.62 275.54,243.91 275.69,244.11 275.97,244.18 276.33,244.14 276.65,244.13 276.95,244.15 277.25,244.15 277.61,244.2 
	277.9,244.2 278.25,244.2 278.49,244.19 278.8,244.14 279.17,244.07 279.51,243.97 279.77,243.86 280.12,243.73 280.41,243.65 
	280.76,243.45 281.12,243.25 281.33,243.1 281.61,242.94 281.94,242.68 282.51,242.49 283.35,242.37 284.2,242.35 285.02,242.35 
	285.89,242.44 286.28,242.51 286.83,242.56 287.25,242.58 287.69,242.57 287.96,242.57 288.37,242.52 288.81,242.51 289.32,242.36 
	289.75,242.17 290.11,241.87 290.62,241.81 291.16,241.71 291.75,241.64 292.3,241.62 292.88,241.59 293.27,241.49 293.81,241.52 
	294.34,241.6 295.01,241.61 295.47,241.62 296,241.5 296.32,241.57 296.67,241.73 297,241.86 297.44,241.95 297.93,242 
	298.41,242.07 298.96,242.12 299.51,242.12 299.9,242.21 300.26,242.27 300.79,242.29 301.33,242.43 301.88,242.47 302.41,242.48 
	302.8,242.5 303.26,242.61 303.76,242.67 304.03,242.61 304.17,242.59 304.15,242.58 304.41,242.6 304.74,242.56 305.17,242.6 
	305.54,242.67 305.9,242.79 306.38,242.85 306.84,242.89 307.35,242.91 307.79,242.94 308.32,242.98 308.76,243.12 309.2,243.25 
	309.78,243.34 310.28,243.47 310.79,243.56 311.29,243.64 311.71,243.66 312.12,243.61 312.4,243.66 312.47,243.67 312.4,243.64 
	312.5,243.72 312.84,243.81 313.27,243.9 313.75,243.93 314.24,243.98 314.68,244 315.09,244.03 315.35,244.02 315.71,244.08 
	316.17,244.17 316.75,244.35 317.26,244.57 317.7,244.86 318.04,245.14 318.16,245.5 318.57,245.87 318.98,245.98 319.22,245.93 
	319.34,245.99 319.49,245.91 319.41,245.8 319.57,245.83 319.86,245.96 320.23,246.17 320.78,246.33 321.37,246.75 321.82,247.12 
	322.33,247.39 322.93,247.62 323.36,248.05 323.9,248.32 324.44,248.49 324.83,248.65 325.43,248.74 325.67,248.59 325.84,248.41 
	326.2,248.36 326.49,248.28 326.75,248.24 327.28,247.92 327.64,247.63 327.9,247.38 328.21,247.19 328.49,246.84 328.87,246.5 
	329.17,246.22 329.44,246.05 329.69,246.14 330,246 330.45,246.01 330.79,246.15 331.05,246.3 331.38,246.49 331.71,246.76 
	332.18,247.1 332.3,247.49 332.3,247.87 332.33,248.08 332.27,248.24 332.09,248.21 331.79,248.11 331.56,247.97 331.53,247.85 
	331.58,247.73 331.63,247.6 331.91,247.55 332.2,247.47 332.56,247.38 332.97,247.35 333.3,247.25 333.63,247.12 334.04,247.03 
	334.5,246.94 334.86,246.91 335.25,246.89 335.68,246.93 336.02,246.93 336.42,246.98 336.68,247 336.93,247.03 337.02,247.1 
	337.06,247.2 337.24,247.47 337.32,247.9 337.42,248.26 337.52,248.63 337.61,248.92 337.71,249.18 337.81,249.52 337.88,249.94 
	337.91,250.09 338.47,250.03 338.83,249.97 339.21,249.92 339.6,249.87 340.03,249.8 340.5,249.74 340.57,249.36 340.52,249.07 
	340.4,248.8 340.32,248.61 340.62,248.77 340.8,249.05 340.99,249.32 341.16,249.45 341.27,249.49 341.39,249.48 341.5,249.43 
	341.65,249.42 341.78,249.43 341.96,249.4 342.21,249.36 342.49,249.31 342.75,249.27 342.98,249.23 343.4,249.17 343.63,249.26 
	343.82,249.36 343.9,249.48 344.18,249.51 344.39,249.7 344.57,249.85 344.93,249.94 345.24,250.14 345.36,250.33 345.5,250.43 
	345.6,250.56 345.82,250.73 346.03,250.9 346.21,251.02 346.41,251.17 346.55,251.27 346.75,251.43 346.9,251.56 347.13,251.64 
	347.23,251.56 347.23,251.51 347.19,251.62 347.13,251.71 347.24,251.74 347.33,251.83 347.46,252.21 347.88,252.51 348.36,252.84 
	348.9,253.34 349.38,253.76 349.66,254.24 349.92,254.72 350.16,255.17 350.26,255.65 350.13,256.05 349.89,256.42 349.7,256.69 
	349.51,256.95 349.26,257.17 348.88,257.29 348.59,257.36 348.2,257.34 347.67,257.22 346.98,257.08 346.16,257.08 345.31,256.83 
	344.67,256.56 343.95,256.79 344.22,257.43 345.23,257.44 345.91,257.59 346.49,257.83 346.92,258.07 347.23,258.27 347.49,258.45 
	347.74,258.71 347.87,258.96 348.01,259.23 348.29,259.46 348.77,259.6 349.16,259.71 349.52,259.82 349.9,259.95 350.18,260.09 
	350.43,260.27 350.72,260.49 351.02,260.81 351.1,261.2 351.05,261.64 351.16,262.1 351.25,262.54 350.97,263.09 350.46,263.45 
	349.85,263.85 349.84,264.43 350.36,264.77 350.97,265.03 351.25,265.64 351.2,266.28 351.39,266.89 351.33,267.42 351.69,267.94 
	352.18,268.42 352.51,268.75 352.72,268.97 352.81,269.06 353.02,269.18 353.21,269.22 353.41,269.23 353.61,269.26 353.84,269.28 
	354.02,269.32 354.23,269.31 354.4,269.33 354.61,269.37 354.77,269.38 354.92,269.4 355.05,269.44 355.22,269.48 355.31,269.37 
	355.35,269.25 355.41,269.07 355.48,268.94 355.51,268.77 355.54,268.59 355.59,268.39 355.63,268.21 355.66,268.05 355.74,267.89 
	355.76,267.66 355.76,267.47 355.31,267.38 354.9,267.33 355,266.97 355.07,266.67 354.86,266.48 354.33,266.44 353.59,266.31 
	352.84,266.16 352.08,266 351.54,266.05 351.3,266.07 351.18,266.3 351.25,266.59 351.39,266.97 351.33,267.42 350.84,267.72 
	350.41,267.97 350.02,268.2 349.67,268.35 349.2,268.5 348.64,268.62 348.06,268.58 347.54,268.45 346.93,268.33 346.51,268.29 
	346.21,268.24 345.75,268.11 345.41,267.99 345.01,267.77 344.65,267.56 344.34,267.37 344.04,267.19 343.86,267.02 343.49,266.89 
	342.96,266.84 342.54,266.67 342.29,266.3 342.11,265.75 341.63,265.43 341.24,265.25 340.9,265.21 340.63,265.26 340.29,265.57 
	340.06,265.88 339.68,266.21 339.17,266.35 338.86,266.36 338.45,266.51 338.14,266.71 337.89,266.9 337.71,267.11 337.53,267.35 
	337.42,267.57 337.34,267.8 337.34,268.05 337.32,268.36 337.34,268.63 337.29,268.91 337.12,269.11 336.71,269.27 336.1,269.49 
	335.6,269.82 334.87,270.21 333.97,270.36 333.12,270.44 332.3,270.42 331.45,270.17 330.77,269.75 329.92,269.68 329.2,270.1 
	329.12,270.68 329.59,270.96 330.12,270.96 330.64,270.92 331.1,270.89 331.66,270.88 332.25,270.88 332.66,270.88 333.05,270.89 
	333.38,270.91 333.73,270.98 334.04,271.04 334.33,271.08 334.61,271.08 334.89,271.08 335.22,271.07 335.48,271.07 335.76,271.05 
	336.01,271.03 336.3,271 336.56,270.96 336.73,270.94 336.58,270.96 336.78,270.97 337.11,271.07 337.58,271.37 337.81,271.73 
	337.94,272.16 338.06,272.52 338.16,272.95 338.19,273.27 338.37,273.47 338.68,273.6 338.73,273.6 338.76,273.61 338.8,273.63 
	339.07,273.74 339.58,273.79 340.04,273.84 340.65,273.91 341.16,273.97 341.86,274.05 342.44,274.1 342.9,274.16 343.21,274.15 
	343.26,273.99 343.29,273.82 343.32,273.64 343.36,273.51 343.39,273.31 343.44,273.11 343.47,272.95 343.5,272.77 343.57,272.63 
	343.59,272.48 343.62,272.29 343.65,272.14 343.7,271.95 343.72,271.78 343.78,271.58 343.8,271.42 343.82,271.23 343.85,271.11 
	343.91,271 343.96,270.84 343.98,270.68 344,270.51 344.01,270.38 344.01,270.25 344.01,270.09 344.04,269.95 344.04,269.8 
	343.85,269.76 343.6,269.74 343.29,269.7 342.99,269.66 342.75,269.61 342.55,269.55 342.24,269.52 341.96,269.49 341.72,269.46 
	341.44,269.48 341.21,269.41 340.91,269.38 340.47,269.33 340.24,269.27 339.94,269.24 339.66,269.41 339.55,269.8 339.47,270.3 
	339.34,271.02 339.25,271.63 339.14,272.22 339.02,272.78 338.96,273.17 338.88,273.51 338.83,273.57 338.78,273.57 338.76,273.75 
	338.76,274.04 338.7,274.45 338.58,274.86 338.52,275.18 338.45,275.34 338.42,275.62 338.37,275.79 338.37,275.66 338.2,275.61 
	338.29,275.69 338.53,275.7 339.06,275.65 339.57,275.65 339.93,275.73 340.45,275.68 340.88,275.74 341.42,275.75 341.83,275.76 
	342.32,275.75 342.7,275.82 343.13,275.77 343.72,275.67 344.24,275.79 344.31,276.12 344.19,276.41 344.03,276.87 343.91,277.36 
	343.82,277.69 343.67,278.13 343.55,278.53 343.47,279.05 343.26,279.44 343.16,279.81 343.09,280.39 343.01,280.73 342.98,281.09 
	342.99,281.61 342.96,282.09 343.03,282.39 343.06,282.76 343.39,283.35 343.47,283.73 343.44,284.09 343.42,284.45 343.44,284.74 
	343.55,285.1 343.78,285.6 343.85,285.99 344.01,286.32 344.09,286.66 344.19,287.08 344.24,287.56 344.31,288.05 344.36,288.33 
	344.41,288.71 344.41,288.95 344.47,289.3 344.6,289.69 344.75,290.17 344.93,290.53 345.24,290.94 345.59,291.32 345.96,291.69 
	346.24,292.02 346.6,292.32 347.08,292.58 347.52,292.65 347.92,292.62 348.29,292.51 348.74,292.28 349.29,292.06 349.69,291.88 
	350.21,291.71 350.77,291.75 351.38,291.98 351.64,292.31 351.69,292.59 351.77,292.98 351.82,293.21 351.98,293.78 352.17,294.13 
	352.41,294.39 352.84,294.67 353.2,294.88 353.64,295.14 354.02,295.39 354.44,295.61 354.9,295.89 355.18,296.05 355.66,296.34 
	356.13,296.62 356.51,296.84 356.84,297.05 357.14,297.39 357.3,297.74 357.28,298.18 357.14,298.48 356.84,298.83 356.5,299.18 
	356.13,299.45 355.71,299.78 355.3,300.12 354.94,300.37 354.38,300.59 353.97,300.69 353.48,300.64 353.08,300.51 352.69,300.23 
	352.48,299.91 352.28,299.44 352.1,299.07 351.75,298.73 351.36,298.45 350.84,298.24 350.21,298.07 349.64,297.93 349.1,297.81 
	348.56,297.71 347.98,297.7 347.49,297.81 346.93,298.01 346.39,298.17 345.78,298.16 345.31,298.02 344.93,297.84 344.47,297.6 
	343.95,297.32 343.47,297.08 343.16,296.8 342.88,296.49 342.16,296.58 341.52,296.62 340.86,296.76 340.44,296.98 339.86,297.21 
	339.34,297.5 339.14,297.67 338.89,297.91 338.8,297.97 338.66,298.29 338.66,298.76 338.22,298.85 337.7,298.81 337.34,298.52 
	337.04,298.24 336.66,298.1 336.2,297.93 335.68,297.88 335.12,297.75 334.43,297.56 333.89,297.42 333.35,297.41 332.86,297.47 
	332.35,297.58 331.69,297.76 331.33,297.99 330.97,298.24 330.58,298.46 330.17,298.72 329.79,298.98 329.53,299.15 329.13,299.36 
	328.54,299.65 328.21,299.77 327.79,299.98 327.36,300.13 326.87,300.29 326.33,300.46 325.89,300.57 325.23,300.66 324.72,300.67 
	324.23,300.63 323.65,300.56 323.2,300.45 322.74,300.31 322.24,300.13 321.8,299.98 321.26,299.84 320.77,299.71 320.29,299.59 
	319.8,299.48 319.37,299.32 318.91,299.13 318.63,299 318.24,298.76 317.88,298.46 317.52,298.13 317.14,297.78 316.75,297.4 
	316.45,297.1 316.14,296.78 315.83,296.53 315.57,296.12 315.32,295.73 315.03,295.38 314.68,295.09 314.45,294.82 314.04,294.48 
	313.79,294.2 313.43,293.9 312.99,293.61 312.55,293.42 312.17,293.23 312.06,293.16 312.01,293.1 311.1,293.16 310.61,293.12 
	310.15,293.02 309.69,292.94 309.28,292.85 308.74,292.7 308.3,292.57 307.84,292.41 307.38,292.19 306.92,291.85 306.54,291.47 
	306.12,291.06 305.81,290.71 305.46,290.3 305.18,289.96 304.95,289.66 304.79,289.46 304.61,289.27 304.02,288.93 303.82,288.58 
	303.44,288.29 303.12,287.98 302.75,287.65 302.49,287.36 302.28,287.09 302.18,286.84 302.15,286.61 301.52,286.41 301.05,286.09 
	300.87,285.69 300.59,285.41 300.26,285.14 299.92,284.93 299.52,284.66 299.13,284.41 298.88,284.19 298.52,284.03 298.24,283.99 
	297.73,284.03 297.13,284 296.6,284.03 296.18,284 295.82,284.02 295.47,284.08 295.11,284.05 294.63,284.1 294.24,284.14 
	294.13,284.12 293.91,284.15 293.68,284.2 293.67,284.34 293.83,284.67 293.91,285 294.08,285.28 294.22,285.59 294.4,285.89 
	294.54,286.08 294.82,286.58 294.95,286.93 294.85,287.17 294.98,287.58 295.22,288.05 295.45,288.48 295.68,288.89 295.86,289.19 
	296.09,289.6 296.21,289.92 296.42,290.28 296.6,290.64 296.82,291.06 297.03,291.49 297.21,292.03 297.28,292.45 297.37,292.97 
	297.36,293.43 297.31,293.81 297.26,294.22 297.21,294.6 297.26,295.01 297.18,295.48 297.16,295.98 297.08,296.33 297.05,296.43 
	297.06,296.45 296.85,296.46 296.85,296.41 296.46,296.41 296.08,296.52 296.04,296.53 295.41,296.71 295.16,296.79 295.06,296.9 
	295.16,297.24 295.31,297.65 295.39,298.07 295.45,298.43 295.54,298.68 295.72,299.04 295.73,299.08 295.73,299.09 295.77,299.14 
	295.78,299.18 295.83,299.29 295.57,299.45 295.13,299.58 294.96,299.57 294.67,299.65 294.29,299.75 294.18,299.78 293.95,299.85 
	293.83,299.88 293.67,299.93 293.45,300 292.99,300.15 292.4,300.35 291.93,300.49 291.35,300.66 290.91,300.75 290.5,300.86 
	290.25,300.93 290.06,301.02 289.61,301.12 289.3,301.2 289.19,301.23 288.61,301.42 288.14,301.59 288.04,301.6 287.56,301.75 
	287.17,301.86 286.76,301.98 286.55,302.06 286.17,302.14 286.01,302.16 285.99,302.05 "/>
<polyline opacity="0.125" fill="none" stroke="#000000" stroke-width="0.75" stroke-linecap="round" stroke-linejoin="round" stroke-miterlimit="10" points="
	201.41,269.37 201.41,269.37 201.46,269.5 201.41,269.71 201.36,270.03 201.6,270.14 202,270.17 202.21,270.19 202.67,270.25 
	203.02,270.3 203.29,270.33 203.54,270.36 203.74,270.38 203.9,270.4 204.02,270.41 204.61,270.38 204.98,270.45 205.12,270.46 
	205.85,270.57 206.25,270.58 206.94,270.68 207.36,270.75 207.94,270.82 208.4,270.85 208.49,270.85 209.08,270.93 209.53,271.01 
	210.12,271.09 210.63,271.14 210.94,271.16 211.5,271.23 211.94,271.35 212.32,271.36 212.94,271.46 213.45,271.53 213.76,271.57 
	214.02,271.61 214.65,271.69 215.14,271.75 215.63,271.79 216.14,271.85 216.63,271.92 216.91,271.64 216.96,271.23 217.03,270.92 
	217.12,270.55 217.11,270.25 217.57,270.29 218.25,270.38 218.67,270.65 218.91,271.08 219.47,271.21 219.95,271.37 220.49,271.52 
	220.73,271.24 220.85,270.92 221.01,270.86 221.65,271.06 222.26,271.26 222.78,271.42 223.03,271.5 223.57,271.66 223.77,271.68 
	223.9,271.71 224,271.74 224.55,271.9 225.03,271.77 225.34,271.38 225.59,271.08 225.92,270.76 226.15,270.49 226.23,270.4 
	226.8,270.64 227.15,270.64 227.39,270.74 227.52,270.8 227.59,270.52 227.84,270.34 228,270.18 228.15,269.89 228.29,269.53 
	228.46,269.2 228.66,268.8 228.8,268.5 229.02,268.09 229.16,267.82 229.26,267.53 229.46,267.2 229.59,266.92 229.71,266.57 
	229.93,266.14 230.13,265.8 230.39,265.73 230.62,265.44 230.92,265.08 231.07,264.74 231.31,264.47 231.69,264.11 232.15,263.78 
	232.59,263.58 233.07,263.35 233.51,263.29 233.99,263.3 234.56,263.36 235,263.52 235.48,263.83 236.05,263.92 236.56,263.69 
	236.84,263.36 237.15,262.97 237.46,262.73 237.6,262.34 237.61,262.01 237.38,261.72 237.14,261.4 236.86,261.09 236.55,260.79 
	236.19,260.47 235.81,260.21 235.73,260.27 236,260.5 236.38,260.5 236.63,260.24 236.84,260 237.04,259.79 237.32,259.53 
	237.74,259.28 238.14,259.08 238.68,258.96 239.25,258.96 239.73,258.73 240.17,258.48 240.43,258.28 240.65,258.19 240.91,258.03 
	241.22,257.83 241.45,257.88 241.6,258.08 241.84,258.1 242.14,257.86 242.43,257.75 242.8,257.53 243.08,257.37 243.29,257.25 
	243.72,256.99 243.86,256.9 244.35,256.62 244.62,256.47 244.99,256.26 245.09,256.21 245.45,256.01 245.67,255.89 245.95,255.73 
	246.14,255.61 246.37,255.49 246.64,255.34 246.88,255.19 247.09,255.06 247.32,254.93 247.21,254.75 247.41,254.52 247.52,254.45 
	247.83,254.26 248.11,254.09 248.34,253.94 248.55,253.81 248.87,253.62 249.24,253.38 249.7,253.1 250.11,252.85 250.18,252.8 
	250.65,252.54 251.06,252.31 251.38,252.14 251.39,251.85 251.33,251.58 251.38,251.45 251.46,251.45 251.46,251.42 251.54,251.25 
	251.82,251.32 251.88,251.34 252.34,251.36 252.84,251.39 253.23,251.43 253.7,251.48 254.08,251.54 254.18,251.54 254.74,251.53 
	255.35,251.53 256.07,251.6 256.72,251.68 257.53,251.75 258.15,251.83 258.86,251.9 259.38,251.94 259.94,251.99 260.46,252.03 
	260.84,252.07 261.23,252.02 261.4,252.06 261.61,251.79 262.04,251.49 262.1,250.94 262.51,250.8 262.99,250.72 262.92,250.82 
	262.74,250.98 262.63,251.08 262.76,251.09 262.96,251 263.22,250.89 263.43,250.81 263.65,250.7 263.97,250.57 264.3,250.45 
	264.63,250.31 264.94,250.16 265.22,250.06 265.48,249.93 265.83,249.72 266.22,249.46 266.52,249.24 266.78,249.08 267.01,248.9 
	267.3,248.72 267.62,248.51 267.88,248.32 268.12,248.1 268.37,247.91 268.62,247.68 268.91,247.44 269.13,247.23 269.4,246.98 
	269.65,246.73 269.72,246.47 269.91,246.14 270.36,245.73 270.93,245.24 271.59,244.8 272.09,244.45 272.5,244.25 272.88,244.07 
	273.29,243.84 273.57,243.65 273.98,243.57 274.33,243.54 274.67,243.49 274.95,243.4 275.13,243.45 275.33,243.55 275.49,243.67 
	275.54,243.81 275.75,244.2 275.95,244.25 276.25,244.29 276.54,244.35 276.9,244.47 277.11,244.57 277.41,244.75 278.16,244.38 
	278.57,244.27 278.9,244.15 279.17,244.12 279.49,244.13 279.89,244.14 280.1,244.12 280.39,243.67 280.69,243.47 281.13,243.26 
	281.58,243.02 282.05,242.66 282.82,242.47 283.63,242.44 284.43,242.37 285.25,242.5 285.83,242.44 286.35,242.5 286.88,242.58 
	287.38,242.65 287.73,242.65 288.2,242.6 288.6,242.58 289.02,242.56 289.53,242.34 289.84,242.03 290.32,241.92 290.8,241.83 
	291.39,241.68 291.9,241.66 292.4,241.59 292.93,241.52 293.44,241.46 294.14,241.6 294.68,241.61 295.36,241.68 295.8,241.59 
	296.06,241.63 296.04,241.89 296.55,241.94 296.98,242 297.55,242.07 298.11,242.13 298.57,242.19 299.16,242.26 299.44,242.29 
	300.03,242.36 300.56,242.43 300.62,242.44 301.25,242.51 301.77,242.58 302.23,242.63 302.49,242.66 303,242.72 303.56,242.79 
	304.07,242.85 304.15,242.86 304.18,242.87 304.4,242.9 304.87,242.59 305.3,242.64 305.82,242.76 306.26,242.81 306.79,242.87 
	307.32,242.91 307.77,242.97 308.23,242.97 308.76,243.12 309.17,243.3 309.66,243.4 310.25,243.45 310.71,243.57 311.2,243.63 
	311.76,243.66 312.24,243.65 312.5,243.64 312.48,243.67 312.76,243.77 312.91,243.88 313.2,243.97 313.75,244.03 314.02,244.06 
	314.58,244.13 314.99,244.14 315.17,244 315.55,244.17 315.86,244.2 316.34,244.3 316.83,244.47 317.27,244.66 317.68,244.86 
	318.06,245.12 318.11,245.2 318.19,245.53 318.78,245.59 319.13,245.8 319.27,245.87 319.39,245.95 319.55,245.9 319.45,245.76 
	319.62,245.75 319.86,245.91 320.21,246.11 320.83,246.28 321.28,246.65 321.72,246.99 322.31,247.38 322.85,247.61 323.34,247.92 
	323.77,248.25 324.23,248.41 324.79,248.65 325.31,248.75 325.64,248.63 325.89,248.51 325.92,248.35 326.33,248.25 326.39,248.14 
	326.46,247.96 327.05,247.94 327.48,247.75 327.74,247.5 328.17,247.22 328.56,246.89 328.9,246.57 329.15,246.29 329.44,246.07 
	329.49,246.05 329.74,246.1 330.07,245.96 330.58,245.99 331.05,246.2 331.43,246.48 331.77,246.81 332.09,247.1 332.36,247.51 
	332.36,247.81 332.36,248.04 332.33,248.18 332.14,248.22 331.91,248.11 331.71,248.09 331.82,248.15 332.09,248.26 332.35,248.36 
	332.58,248.44 332.79,248.56 332.86,248.65 331.46,248.25 331.45,248.12 331.12,248.04 330.9,248.01 330.86,247.88 330.76,247.88 
	330.76,247.87 330.72,247.77 330.63,247.71 330.71,247.62 331,247.56 331.25,247.5 331.53,247.42 331.86,247.35 332.12,247.28 
	332.48,247.19 332.87,247.11 333.18,247.04 333.61,246.96 334.04,246.87 334.5,246.77 334.92,246.73 335.4,246.69 335.86,246.68 
	336.29,246.68 336.66,246.72 336.69,246.72 337.16,246.74 337.52,246.78 337.93,246.85 338.22,246.91 338.66,246.98 339.12,247.05 
	339.52,247.07 339.94,247.07 340.35,247.1 340.78,247.06 341.27,247.01 341.7,246.97 342.17,246.9 342.68,246.8 343.09,246.72 
	343.32,246.69 343.88,246.59 344.42,246.51 344.8,246.47 345.21,246.39 345.62,246.35 346.11,246.28 346.54,246.17 347.1,246.09 
	347.52,246.02 347.8,245.96 348.43,245.88 349,245.76 349.47,245.68 350.08,245.56 350.64,245.44 351.3,245.3 351.9,245.19 
	352.25,245.13 352.81,245.02 353.26,244.87 353.71,244.72 353.92,244.65 354.31,244.54 354.49,244.47 354.53,244.47 354.51,244.45 
	354.9,244.36 355.41,244.34 355.59,244.36 356.27,244.29 356.87,244.23 357.56,244.11 358.12,244.06 358.71,243.95 359.2,243.77 
	359.68,243.69 360.27,243.61 360.74,243.54 361.24,243.45 361.83,243.29 362.34,243.19 362.93,243.08 363.55,242.99 364.03,242.91 
	364.55,242.84 364.98,242.72 365.45,242.45 365.98,241.94 366.42,241.46 366.86,240.93 367.22,240.52 367.6,240.13 368.23,239.98 
	368.77,240.07 369.11,240.1 369.49,240.27 369.7,240.51 369.93,240.75 370.14,241.05 370.37,241.36 370.57,241.62 370.78,241.84 
	371.1,242.14 371.44,242.33 371.77,242.39 372.15,242.39 372.69,242.48 373.18,242.49 373.79,242.21 374.06,241.61 374.46,240.99 
	375.05,240.74 375.77,240.42 376.38,239.91 376.89,239.46 377.66,239.15 378.4,238.97 378.87,238.55 379.36,237.97 379.87,237.4 
	380.32,236.94 380.76,236.49 381.04,236.18 381.33,235.89 381.55,235.73 381.69,235.6 381.89,235.46 382.02,235.33 382.2,235.25 
	382.46,235.45 382.73,235.62 383.01,235.81 383.33,236.08 383.65,236.27 383.94,236.49 384.28,236.75 384.55,236.95 384.86,237.17 
	385.17,237.46 385.35,237.81 385.52,238.12 385.73,238.41 385.93,238.62 386.25,238.84 386.58,239.03 386.83,239.2 387.11,239.48 
	387.4,239.65 387.71,239.79 388.07,239.99 388.35,240.16 388.68,240.3 389.06,240.51 389.37,240.68 389.76,240.76 390.14,240.65 
	390.58,240.51 391.09,240.38 391.6,240.29 392.29,240.27 392.86,239.91 393.04,239.45 393.55,239.14 394.11,239.21 394.67,239.44 
	395.16,239.45 395.67,239.77 395.78,240.14 395.83,240.52 395.78,240.7 395.9,240.75 396.01,240.69 396.24,240.47 396.44,240.43 
	396.16,240.69 395.92,241.05 396.05,241.39 396.44,241.6 396.78,241.76 397.08,241.91 397.38,241.99 397.75,242.08 398.15,242.06 
	398.52,241.95 398.72,241.76 398.87,241.45 399.03,241.18 399.06,240.88 399.11,240.6 399.21,240.32 399.33,240.08 399.28,239.79 
	399.26,239.44 399.36,239.22 399.39,238.95 399.57,238.66 399.69,238.42 399.82,238.22 399.95,237.95 399.95,237.74 399.92,237.48 
	399.87,237.28 399.84,237.07 399.8,236.92 399.74,236.79 399.66,236.65 399.57,236.46 399.46,236.28 399.38,236.08 399.34,235.92 
	399.28,235.78 399.31,235.63 399.39,235.46 399.48,235.32 399.56,235.17 399.69,234.98 399.84,234.84 400.03,234.66 400.33,234.47 
	400.62,234.35 400.97,234.25 401.21,234.16 401.38,234.03 401.62,233.86 401.77,233.75 401.94,233.61 402.05,233.49 402.21,233.36 
	402.45,233.22 402.61,233.18 402.72,233.12 402.94,232.98 403.12,232.79 403.15,232.57 403.07,232.32 402.92,232.09 402.76,231.86 
	402.56,231.61 402.4,231.4 402.25,231.17 402.03,230.94 401.9,230.79 401.76,230.64 401.64,230.49 401.54,230.39 401.38,230.25 
	401.21,230.12 401.13,229.96 401.07,229.82 401.02,229.66 401.02,229.49 401.02,229.37 401,229.24 401,229.1 401.08,228.98 
	401.1,228.82 401.18,228.66 401.21,228.46 401.23,228.3 401.28,228.11 401.35,227.91 401.33,227.89 401.39,227.8 401.44,227.7 
	401.59,227.53 401.76,227.38 401.89,227.3 402.1,227.21 402.31,227.13 402.53,227.07 402.81,227.01 403.08,226.98 403.41,226.95 
	403.66,226.9 403.91,226.8 404.07,226.56 404.09,226.25 404.07,225.98 404,225.75 404.02,225.45 404.04,225.28 404.02,225.24 
	404.02,225.2 404.07,225.19 404.12,225.19 404.15,225 404.25,224.81 404.4,224.59 404.61,224.34 404.86,224.14 405.05,223.97 
	405.25,223.81 405.5,223.66 405.73,223.49 405.84,223.23 405.76,223.01 405.59,222.78 405.43,222.5 405.3,222.27 405.13,222 
	404.95,221.72 404.81,221.47 404.68,221.07 404.73,220.64 404.81,220.29 404.87,219.94 404.97,219.56 404.91,219.27 404.61,218.95 
	404.41,218.67 404.22,218.42 403.95,218.15 403.76,217.91 403.56,217.72 403.46,217.64 403.53,217.53 403.63,217.45 403.66,217.48 
	403.99,217.3 404.35,217.13 404.71,216.83 405.3,216.41 405.89,216.45 406.51,216.52 407.07,216.33 407.5,216.02 407.65,215.47 
	407.79,214.93 407.81,214.44 407.89,213.97 408.35,213.54 408.89,213.31 409.47,213.04 409.97,212.81 410.45,212.51 410.65,212.1 
	410.75,211.78 411.12,211.48 411.53,211.28 411.93,211.1 412.24,210.98 412.34,210.71 412.34,210.47 412.39,210.27 412.43,210.05 
	412.47,209.87 412.5,209.65 412.53,209.49 412.58,209.3 412.58,209.1 412.62,208.87 412.66,208.69 412.66,208.49 412.75,208.32 
	412.81,208.12 412.81,207.95 412.86,207.77 412.85,207.57 412.88,207.36 412.93,207.19 412.98,206.97 412.99,206.74 413.06,206.55 
	413.12,206.29 413.16,206.08 413.19,205.84 413.03,205.42 412.63,205.07 412.66,204.48 413.03,204.12 413.52,203.87 413.68,203.55 
	413.73,203.26 413.73,203.03 413.8,202.73 413.88,202.45 413.94,202.15 413.89,202.08 413.93,202.04 414.16,202.03 414.6,202.24 
	415.31,202.57 415.93,202.88 416.85,203.07 417.63,203.14 418.26,203.14 418.57,203.4 419.16,203.69 419.87,203.76 420.39,203.82 
	420.85,203.89 421.24,203.93 421.64,203.98 422.11,204.06 422.57,204.1 423.02,204.16 423.38,204.17 423.69,204.2 424.1,204.28 
	424.61,204.38 425.12,204.46 425.74,204.57 426.2,204.49 426.58,204.36 427,204.17 427.49,204.05 427.87,203.96 428.33,203.9 
	428.69,203.81 429.04,203.82 429.45,203.89 429.76,203.87 430.05,203.88 430.33,203.78 430.53,203.61 430.63,203.45 430.69,203.19 
	430.71,202.97 430.71,202.82 430.73,202.66 430.76,202.48 430.81,202.33 430.86,202.16 430.84,201.96 430.92,201.78 430.97,201.61 
	431.04,201.38 431.04,201.24 431.1,201.05 431.12,200.86 431.1,200.65 431.17,200.48 431.25,200.28 431.3,200.03 431.33,199.82 
	431.33,199.62 431.35,199.46 431.4,199.21 431.43,198.96 431.5,198.79 431.58,198.54 431.48,198.3 431.5,198.12 431.55,198.15 
	431.56,198.17 431.61,198.26 431.73,198.33 431.86,198.14 431.97,197.95 432.15,197.57 432.5,197.2 432.86,196.86 433.33,196.47 
	433.68,196.1 434.34,195.85 434.99,196.09 435.6,196.44 436.09,196.79 436.5,197.36 436.81,197.81 437.37,198.01 438.16,197.89 
	438.93,197.66 439.6,197.75 440.21,197.96 440.41,198.34 440.7,198.79 441.16,199.14 441.54,199.51 441.88,199.8 442.11,200 
	442.29,200.14 442.59,200.26 442.83,200.35 443.1,200.43 443.34,200.49 443.7,200.53 443.98,200.45 444.19,200.45 444.21,200.36 
	444.26,200.3 444.41,200.09 444.59,199.86 444.75,199.65 444.92,199.42 445.06,199.1 445.31,198.79 445.54,198.59 445.7,198.3 
	446.1,198.16 446.49,198.28 446.84,198.3 447.13,198.38 447.51,198.43 447.85,198.44 448.15,198.37 448.43,198.28 448.66,198.2 
	448.95,198.17 449.31,198.05 449.62,197.99 449.89,197.9 450.23,197.8 450.53,197.73 450.84,197.64 451.13,197.47 451.46,197.39 
	451.74,197.32 451.95,197.25 452.02,197.44 451.92,197.68 451.9,197.98 451.85,198.3 451.79,198.53 451.77,198.75 451.76,199.01 
	451.69,199.24 451.66,199.46 451.63,199.69 451.58,199.87 451.54,200.05 451.49,200.23 451.49,200.45 451.46,200.67 451.43,200.85 
	451.4,201.02 451.4,201.05 451.38,200.88 451.41,200.55 451.46,200.15 451.56,199.53 451.66,198.88 451.81,198.18 451.92,197.59 
	451.9,197.19 452.13,196.84 452.17,196.56 452.17,196.3 452.23,195.98 452.3,195.73 452.49,195.52 452.76,195.39 453.05,195.31 
	453.31,195.25 453.59,195.25 453.87,195.22 454.1,195.24 454.35,195.28 454.61,195.29 454.69,195.09 454.82,194.9 454.92,194.73 
	455.09,194.56 455.2,194.37 455.3,194.22 455.45,194.06 455.51,193.88 455.63,193.76 455.74,193.62 455.87,193.47 455.99,193.35 
	456.12,193.19 456.25,193.03 456.37,192.84 456.53,192.72 456.63,192.59 456.71,192.45 456.81,192.3 456.94,192.17 457.07,192.02 
	457.17,191.88 457.3,191.72 457.43,191.56 457.58,191.37 457.73,191.13 457.79,190.87 457.92,190.68 458.07,190.54 458.2,190.33 
	458.35,190.19 458.4,190.09 458.2,190.31 457.92,190.73 457.53,191.34 457.12,191.8 456.63,192.49 456.25,193.02 455.86,193.44 
	455.4,194.14 455.1,194.56 454.74,195.06 454.5,195.36 453.99,195.34 453.1,195.27 452.31,195.76 452.18,196.39 452.07,196.88 
	452.07,197.3 452.12,197.34 452.2,197.33 452.12,197.32 452.13,197.3 452.15,197.31 452.17,197.34 452.04,197.34 451.79,197.38 
	451.43,197.44 451.05,197.55 450.77,197.59 450.33,197.7 449.82,197.88 449.31,198.07 448.85,198.17 448.44,198.3 447.92,198.46 
	447.38,198.42 446.84,198.33 446.23,198.22 445.67,198.42 445.26,198.84 445,199.27 444.74,199.68 444.54,199.99 444.24,200.32 
	443.85,200.56 443.39,200.49 443.06,200.42 442.64,200.29 442.26,200.13 441.87,199.83 441.55,199.53 441.16,199.21 440.81,198.96 
	440.6,198.73 440.47,198.55 440.36,198.3 440.31,198.11 440.18,197.96 439.98,197.86 439.78,197.78 439.55,197.72 439.16,197.71 
	438.83,197.74 438.5,197.74 438.27,197.79 438.03,197.86 437.78,197.92 437.52,197.98 437.24,198 436.99,197.97 436.76,197.9 
	436.58,197.73 436.45,197.53 436.34,197.33 436.25,197.15 436.12,196.99 435.93,196.82 435.71,196.67 435.53,196.54 435.35,196.41 
	435.17,196.29 434.94,196.13 434.68,195.97 434.29,195.95 433.86,195.99 433.61,196.14 433.43,196.36 433.27,196.51 433.09,196.69 
	432.89,196.86 432.71,197.02 432.46,197.24 432.2,197.5 432.02,197.72 431.89,197.95 431.74,198.26 431.68,198.49 431.53,198.71 
	431.45,198.95 431.45,199.11 431.45,199.23 431.43,199.62 431.37,200.13 431.28,200.58 431.23,201.02 431.12,201.59 431.05,202.13 
	430.94,202.77 430.84,203.35 430.38,203.84 429.36,203.91 428.4,203.93 427.63,204.05 426.89,204.23 426.12,204.57 425.25,204.55 
	424.61,204.5 424.16,204.45 423.89,204.39 423.66,204.39 423.33,204.34 423,204.29 422.74,204.25 422.46,204.21 422.11,204.16 
	421.57,204.1 421.11,204.03 420.54,203.95 420.06,203.89 419.67,203.87 419.64,203.82 419.37,203.79 419.09,203.75 418.78,203.67 
	418.55,203.53 418.34,203.35 418.03,203.28 417.75,203.27 417.44,203.27 417.14,203.21 416.91,203.22 416.65,203.2 416.37,203.16 
	416.13,203.08 415.88,202.97 415.68,203 415.4,203.05 415.14,203 414.83,203 414.7,202.9 414.55,202.91 414.52,203.02 
	414.47,203.15 414.44,203.35 414.4,203.57 414.32,203.82 414.26,204.16 414.06,204.37 413.8,204.56 413.7,204.69 413.73,204.74 
	413.72,204.93 413.83,205.16 414.04,205.36 414.12,205.53 414.09,205.72 414.01,205.95 413.94,206.15 413.96,206.35 413.93,206.74 
	413.81,207.2 413.85,207.67 413.86,208.14 413.78,208.61 413.63,209.08 413.27,209.41 413.17,209.84 413.11,210.13 413.11,210.27 
	413.14,210.3 413.12,210.47 413.11,210.66 413.06,210.86 412.83,211.01 412.34,211.16 411.81,211.33 411.3,211.55 410.79,211.98 
	410.52,212.55 410.07,212.87 409.51,213.19 409.01,213.44 408.45,213.64 408.1,213.9 407.96,214.29 407.91,214.65 407.91,215.07 
	407.78,215.47 407.76,215.82 407.6,216.1 407.4,216.24 407.22,216.33 407.17,216.44 406.91,216.54 406.66,216.76 406.5,216.99 
	406.61,217.3 406.86,217.52 407.17,217.78 407.09,218.18 406.78,218.38 406.5,218.69 406.4,219 406.23,219.32 406.04,219.7 
	405.71,220.08 405.69,220.24 405.71,220.27 405.81,220.36 405.87,220.46 405.94,220.61 406,220.75 406.15,220.91 406.4,220.92 
	406.76,220.94 407.17,220.98 407.6,221.03 407.92,221.05 408.24,221.09 408.5,221.07 408.68,221.06 408.86,221.06 409.09,221.06 
	409.3,221.02 409.47,221.02 409.58,221.1 409.89,221.11 410.15,221.16 410.35,221.2 410.48,221.17 410.53,221.27 410.4,221.77 
	410.27,221.89 409.89,221.93 409.48,221.93 409.15,221.98 408.91,222.09 408.68,222.3 408.58,222.55 408.35,222.82 408.15,223.05 
	408.01,223.23 407.97,223.33 408.01,223.5 408.02,223.7 407.91,223.85 407.73,223.96 407.5,223.97 407.19,223.93 407.01,224.08 
	406.89,224.45 406.76,224.69 406.68,225.03 406.53,225.4 406.46,225.74 406.37,226.11 406.2,226.44 406.02,226.8 405.82,227.19 
	405.63,227.54 405.32,227.74 404.77,227.72 404.45,227.91 404.41,228.22 404.48,228.6 404.53,228.95 404.48,229.34 404.53,229.67 
	404.58,229.91 404.61,230 404.59,230.06 404.66,230.33 404.77,230.6 404.91,230.9 405.05,231.24 405.09,231.56 404.95,231.78 
	404.79,231.97 404.54,232.22 404.25,232.58 404,232.86 403.66,233.07 403.33,233.34 402.9,233.56 402.53,233.78 402.31,234.03 
	402.07,234.38 401.77,234.69 401.67,235 401.64,235.35 401.54,235.76 401.48,236.07 401.54,236.39 401.67,236.6 401.76,236.92 
	401.56,237.18 401.2,237.25 400.85,237.21 400.49,237.33 400.41,237.55 400.48,237.85 400.35,238.18 400.3,238.43 400.16,238.76 
	400.13,238.99 400.18,239.36 400.02,239.68 399.95,239.92 399.85,240.23 399.69,240.54 399.59,240.74 399.54,241 399.43,241.33 
	399.34,241.62 399.21,241.84 399.13,242.12 399.05,242.36 398.98,242.62 398.9,242.85 398.69,243.16 398.47,243.36 398.21,243.51 
	397.9,243.84 397.62,244.09 397.29,244.12 397.05,244.11 396.69,244.01 396.49,243.89 396.24,243.87 395.96,243.77 395.6,243.84 
	395.41,243.87 395.31,243.96 395.23,244.13 395.18,244.31 395.1,244.43 394.87,244.41 394.5,244.29 394.21,244.09 393.8,243.9 
	393.47,243.82 393.18,243.76 392.88,243.72 392.49,243.68 392.14,243.65 391.81,243.87 391.55,244.07 391.52,244.36 391.75,244.64 
	391.86,244.92 392,245.17 392.19,245.5 392.27,245.83 392.44,246.33 392.6,246.78 392.65,247.21 392.5,247.53 391.96,247.82 
	391.4,248.11 391.09,248.34 390.73,248.61 390.44,248.85 390.14,249.15 389.93,249.35 389.68,249.52 389.42,249.76 389.17,249.92 
	388.86,250.14 388.62,250.34 388.39,250.56 388.01,250.78 387.63,251.02 387.34,251.27 387.07,251.5 386.68,251.77 386.29,252.07 
	385.91,252.28 385.45,252.5 385.01,252.75 384.47,253.04 383.99,253.28 383.35,253.53 382.81,253.74 382.35,253.84 381.81,253.94 
	381.48,253.95 381.14,253.92 380.87,253.92 380.58,253.97 380.18,253.98 380,253.98 379.97,254 379.69,253.96 379.43,253.89 
	379.2,253.87 378.87,253.86 378.49,253.86 378.13,253.82 377.61,253.76 377.26,253.74 376.74,253.67 376.21,253.73 375.67,253.62 
	374.98,253.58 374.46,253.49 373.83,253.5 373.47,253.53 373.01,253.48 372.41,253.33 372,253.34 371.55,253.48 371.01,253.46 
	370.44,253.34 369.98,253.38 369.54,253.43 369.08,253.42 368.54,253.43 367.96,253.54 367.47,253.46 366.9,253.46 366.42,253.4 
	365.9,253.44 365.35,253.5 364.89,253.54 364.4,253.58 363.88,253.69 363.35,253.73 362.86,253.71 362.34,253.75 361.97,253.8 
	361.52,253.78 361.12,253.85 360.71,253.74 360.35,253.6 360.09,253.35 359.78,253.1 359.38,252.77 358.94,252.5 358.51,252.31 
	358.27,251.93 358.1,251.49 357.82,251.17 357.45,251.16 357.12,251.19 356.89,251.13 356.58,251.1 356.5,251.08 356.48,251.08 
	356.48,251.14 356.5,251.16 356.51,251.19 356.35,251.2 356.02,251.25 355.77,251.36 355.66,251.43 355.54,251.48 355.41,251.48 
	355.36,251.49 355.35,251.49 355.23,251.55 354.94,251.5 354.56,251.29 354.2,251.08 353.9,250.98 353.53,250.93 353.2,250.9 
	352.84,250.88 352.51,250.88 352.12,250.92 351.8,250.96 351.43,251.06 351.08,251.09 350.7,251.16 350.41,251.25 350.06,251.32 
	349.72,251.28 349.46,251.27 349.13,251.33 348.82,251.4 348.56,251.51 348.23,251.58 347.95,251.59 347.62,251.59 347.42,251.68 
	347.28,251.79 347.14,251.8 347.1,251.75 347.1,251.72 346.88,251.66 346.67,251.45 346.39,251.16 345.96,250.84 345.54,250.52 
	345.26,250.15 344.85,249.88 344.57,249.82 344.39,249.68 344.24,249.57 344.01,249.51 343.88,249.37 343.7,249.23 343.42,249.17 
	343.16,249.15 342.98,249.2 342.85,249.23 342.72,249.25 342.42,249.31 342.13,249.38 341.83,249.43 341.58,249.48 341.4,249.52 
	341.3,249.6 341.19,249.49 341.04,249.35 340.91,249.22 340.8,249.1 340.67,248.95 340.55,248.8 340.4,248.62 340.26,248.55 
	340.32,248.73 340.45,248.91 340.53,249.08 340.6,249.23 340.67,249.49 340.55,249.76 340.24,249.83 339.94,249.86 339.63,249.92 
	339.29,249.92 339.01,249.94 338.7,249.98 338.35,250.03 338.11,250.05 337.98,250.08 337.89,249.97 337.83,249.65 337.76,249.37 
	337.68,249.08 337.55,248.7 337.4,248.25 337.34,247.77 337.22,247.34 337.07,247.12 336.91,247.02 336.55,247.01 336.25,246.98 
	335.99,246.97 335.78,246.99 335.5,247.01 335.22,247.03 334.87,247.05 334.35,247.14 333.76,247.25 333.2,247.35 332.79,247.45 
	332.23,247.54 331.82,247.63 331.46,247.72 331.46,247.88 331.58,248.08 331.81,248.16 332.07,248.26 332.18,248.32 332.25,248.19 
	332.25,247.94 332.22,247.62 332.12,247.21 331.72,246.96 331.41,246.62 331.12,246.41 330.79,246.17 330.31,246.06 329.97,246.09 
	329.69,246.19 329.21,245.95 328.84,246 329.08,246.28 328.87,246.5 328.69,246.69 328.44,246.93 328.26,247.21 328.08,247.39 
	327.9,247.55 327.67,247.7 327.39,247.89 327,248.1 326.66,248.19 326.43,248.35 326.03,248.46 325.7,248.69 325.33,248.82 
	324.93,248.78 324.61,248.7 324.29,248.52 323.83,248.38 323.39,248.19 323.11,247.87 322.74,247.62 322.39,247.55 322.13,247.41 
	321.87,247.21 321.57,246.96 321.26,246.74 320.95,246.5 320.7,246.28 320.32,246.21 320.08,246.09 319.83,245.94 319.6,245.8 
	319.49,245.79 319.54,245.87 319.49,245.97 319.39,246.04 319.26,246.04 319.16,245.95 319.16,245.93 318.93,245.86 318.8,245.77 
	318.67,245.67 318.47,245.54 318.21,245.34 318.04,245.13 317.88,244.92 317.62,244.77 317.29,244.61 316.96,244.47 316.65,244.38 
	316.32,244.26 315.99,244.15 315.53,244.09 315.22,244.06 314.96,244.05 314.66,244.07 314.22,244.09 313.88,244.05 313.47,244.02 
	313.12,243.95 312.83,243.86 312.7,243.83 312.66,243.79 312.52,243.73 312.35,243.65 312.12,243.63 311.66,243.72 311.25,243.72 
	310.76,243.65 310.37,243.62 309.94,243.52 309.53,243.38 309.04,243.3 308.54,243.1 308.14,243.05 307.71,243 307.28,242.92 
	306.95,242.85 306.56,242.88 306.2,242.84 305.81,242.83 305.46,242.77 305.1,242.73 304.79,242.65 304.46,242.71 304.2,242.67 
	303.97,242.77 303.67,242.74 303.43,242.72 303.41,242.71 303.44,242.62 303.44,242.55 303.43,242.57 303.46,242.58 303.41,242.63 
	303.39,242.67 303.39,242.62 303.41,242.59 303.43,242.63 303.56,242.68 303.59,242.66 303.57,242.62 303.44,242.59 303.36,242.67 
	303.18,242.64 302.85,242.57 302.52,242.52 302.16,242.5 301.74,242.49 301.38,242.45 301.02,242.37 300.67,242.32 300.39,242.27 
	299.97,242.26 299.52,242.2 299.1,242.15 298.52,242.11 298.08,242.06 297.6,242.01 297.13,241.95 296.73,241.82 296.37,241.66 
	296.32,241.64 296.26,241.64 295.9,241.59 295.52,241.67 295.16,241.66 294.65,241.65 294.14,241.65 293.75,241.58 293.36,241.56 
	292.98,241.6 292.45,241.63 292.01,241.74 291.55,241.78 291.14,241.83 290.71,241.91 290.21,241.93 289.89,241.99 289.73,242.23 
	289.29,242.46 288.83,242.57 288.3,242.59 287.97,242.63 287.74,242.63 287.48,242.64 287.17,242.63 286.96,242.63 286.68,242.6 
	286.17,242.57 285.68,242.52 285.22,242.46 284.45,242.35 283.76,242.42 283.28,242.44 282.91,242.49 282.27,242.59 281.89,242.74 
	281.64,242.93 281.43,243.17 281.13,243.31 280.84,243.45 280.53,243.6 280.13,243.77 279.77,243.91 279.3,244.04 278.75,244.18 
	278.11,244.27 277.54,244.27 277,244.21 276.46,244.18 275.87,244.18 275.57,244.07 275.42,243.95 275.31,243.64 275.03,243.52 
	274.87,243.48 274.64,243.53 274.01,243.6 273.47,243.76 273.01,244.07 272.49,244.33 271.78,244.75 271.14,245.22 270.72,245.57 
	270.31,245.94 269.96,246.27 269.78,246.68 269.34,247.1 269.03,247.44 268.58,247.86 268.24,248.31 267.7,248.53 267.03,248.9 
	266.65,249.21 266.22,249.53 265.73,249.8 265.29,250.02 264.81,250.24 264.32,250.49 263.79,250.68 263.25,250.88 262.91,251.08 
	262.69,251.15 262.86,251.11 263.14,250.95 263.02,250.89 262.55,251.13 262.1,251.37 261.71,251.66 261.33,251.94 260.86,252.18 
	260.68,252.52 260.74,252.92 260.45,253.32 260.09,253.65 259.96,254.2 259.69,254.59 259.69,255.06 259.48,255.57 259.48,256.06 
	259.4,256.63 259.35,257.11 259.2,257.7 259.07,258.11 258.91,258.5 258.91,258.95 258.89,259.3 258.91,259.19 258.91,259.05 
	258.87,258.95 258.66,258.91 258.43,258.87 258.05,258.86 257.66,258.8 257.15,258.7 256.72,258.7 256.35,258.61 255.77,258.55 
	255.33,258.51 254.92,258.46 254.56,258.41 254.13,258.4 253.82,258.29 253.49,258.29 253.21,258.29 253.07,258.11 252.98,257.88 
	252.97,257.85 252.92,257.64 252.82,257.29 252.77,257.06 252.69,256.71 252.62,256.46 252.52,256.09 252.44,255.75 252.39,255.51 
	252.28,255.03 252.2,254.72 252.1,254.35 252.03,254.07 251.98,253.89 251.85,253.34 251.84,253.25 251.74,252.85 251.64,252.5 
	251.59,252.26 251.52,252.11 251.23,252.28 250.82,252.42 250.67,252.66 250.41,252.77 250.24,252.89 249.87,253.07 249.54,253.2 
	249.28,252.99 249.16,252.85 248.96,252.71 248.75,252.52 248.6,252.35 248.47,252.19 248.28,252.22 247.96,252.4 247.6,252.59 
	247.42,252.8 247.11,253.02 246.78,253.28 246.37,253.49 246.21,253.68 245.96,253.91 245.55,254.1 245.21,254.27 245.19,254.51 
	245.16,254.77 244.99,254.91 244.68,255.05 244.42,255.24 244.21,255.43 243.73,255.65 243.44,255.88 243.19,256.06 242.99,256.22 
	242.7,256.4 242.39,256.59 241.96,256.84 241.81,257.1 241.81,257.43 241.58,257.7 241.22,257.89 240.97,258.05 240.71,258.2 
	240.52,258.34 240.19,258.52 239.86,258.75 239.61,258.97 239.2,259.07 238.79,258.99 238.42,259 238.04,259.06 237.78,259.34 
	237.45,259.57 237.14,259.89 236.91,260.08 236.73,260.24 236.43,260.49 236.1,260.51 235.77,260.27 235.86,260.23 236.1,260.41 
	236.46,260.67 236.82,261.04 237.19,261.36 237.51,261.73 237.84,262.16 237.66,262.54 237.22,262.92 236.87,263.32 236.56,263.72 
	235.87,264 235.32,263.8 234.84,263.48 234.33,263.37 233.84,263.33 233.35,263.37 232.84,263.45 232.25,263.69 231.79,264 
	231.46,264.34 231.17,264.68 230.89,265.02 230.57,265.45 230.43,265.8 230.16,265.85 229.93,266.12 229.79,266.4 229.57,266.73 
	229.41,267.14 229.1,267.6 229.02,268.08 228.8,268.49 228.57,268.96 228.29,269.51 228.05,270.01 227.87,270.34 227.61,270.57 
	227.67,270.96 227.44,271.33 227.15,271.68 226.92,272.14 226.74,272.51 226.1,272.4 225.52,272.24 225.1,272.11 224.95,272.09 
	224.51,272.39 224.21,272.69 223.75,273.12 223.36,273.52 223.06,273.96 222.86,274.41 222.65,274.86 222.42,275.35 222.16,275.84 
	221.96,276.36 221.65,276.96 221.34,277.6 221.08,278.24 220.88,278.74 220.62,279.28 220.42,279.69 220.39,279.72 220.32,279.83 
	220.32,280 220.24,280.02 220.21,279.99 219.91,279.94 219.44,279.86 219.03,279.81 218.53,279.76 218.12,279.73 217.75,279.71 
	217.4,279.69 217.24,279.67 216.71,279.56 216.35,279.5 215.96,279.49 215.6,279.39 215.17,279.44 214.86,279.38 214.51,279.35 
	214.2,279.26 213.76,279.23 213.4,279.13 213.04,279.13 212.73,279.07 212.38,279.02 211.96,278.95 211.68,278.91 211.32,278.88 
	211,278.83 210.58,278.77 210.04,278.7 209.36,278.65 209,278.65 208.87,278.65 208.35,278.63 207.9,278.57 207.4,278.52 
	206.82,278.47 206.35,278.41 205.8,278.34 205.2,278.26 204.69,278.19 204.2,278.1 203.67,278.06 203.31,278.03 203,278 
	202.87,277.98 202.57,277.94 201.97,277.85 201.64,277.82 201.06,277.76 200.77,277.71 200.14,277.65 199.93,277.34 200,277.03 
	200.06,276.73 200.13,276.34 200.19,275.96 200.26,275.63 200.31,275.43 200.36,275.12 200.42,274.8 200.47,274.54 200.54,274.21 
	200.6,273.89 200.62,273.63 200.74,273.26 200.8,272.92 200.85,272.63 200.91,272.28 200.96,272.01 200.96,271.89 201.05,271.57 
	201.11,271.25 201.18,270.93 201.23,270.66 201.28,270.39 201.24,270.14 201.29,269.9 201.34,269.61 201.36,269.36 201.31,269.33 
	"/>
<polyline opacity="0.125" fill="none" stroke="#000000" stroke-width="0.75" stroke-linecap="round" stroke-linejoin="round" stroke-miterlimit="10" points="
	201.42,269.27 201.42,269.27 201.44,269.57 201.38,269.88 201.29,270.29 201.21,270.71 201.13,271.18 201.05,271.59 201.1,271.87 
	201.44,271.92 201.77,271.96 201.85,272.14 201.78,272.5 201.7,272.92 201.6,273.4 201.54,273.72 201.47,274.04 201.39,274.45 
	201.28,275 201.23,275.44 201.11,275.89 201.01,276.41 200.93,276.88 200.85,277.32 200.95,277.62 201.36,277.68 201.65,277.69 
	202.1,277.74 202.47,277.79 202.98,277.85 203.44,277.92 203.98,278 204.26,278.03 204.98,278.11 205.59,278.16 205.84,278.21 
	206.38,278.28 206.82,278.33 207.41,278.41 207.77,278.42 208.36,278.49 208.89,278.51 209.48,278.53 209.94,278.53 210.43,278.57 
	210.86,278.64 211.22,278.69 211.69,278.73 212.33,278.8 212.94,278.9 213.5,278.99 214.14,279.13 214.68,279.22 215.35,279.28 
	215.89,279.38 216.68,279.47 217.34,279.7 217.27,280.16 217.16,280.71 217.03,281.27 216.98,281.62 216.93,282.12 216.81,282.64 
	216.71,283.15 216.63,283.59 216.55,284.06 216.47,284.52 216.39,285.09 216.29,285.65 216.14,286.31 216.06,286.92 215.99,287.23 
	215.93,287.58 215.86,288.14 215.76,288.75 215.63,289.44 215.5,290.19 215.38,290.89 215.24,291.68 215.07,292.49 214.94,293.15 
	214.84,293.86 215.12,294.41 215.55,294.79 215.89,295.35 215.89,296.02 215.66,296.56 215.4,297.22 215.22,297.91 215.17,298.47 
	215.14,299.11 215.07,299.59 214.97,300.19 214.88,300.82 214.76,301.45 214.63,301.97 214.38,302.55 214.12,303.13 213.96,303.61 
	213.79,304.23 213.63,304.73 213.48,305.24 213.3,305.86 213.15,306.39 213.02,307.01 212.89,307.62 212.82,308.21 212.76,308.74 
	212.63,309.38 212.56,309.87 212.46,310.34 212.33,310.91 212.27,311.37 212.2,311.95 212.14,312.42 212.14,312.5 212.68,312.61 
	213.24,312.67 213.97,312.76 214.56,312.82 214.89,313.1 214.65,313.61 214.4,314.15 214.27,314.62 214.24,315.17 214.38,315.68 
	214.58,316.19 214.83,316.62 215.22,317.13 215.61,317.5 216.07,317.86 216.66,318.26 217.16,318.6 217.76,319 218.32,319.35 
	218.96,319.79 219.44,320.23 219.98,320.74 220.58,321.27 221.16,321.8 221.6,322.23 222.11,322.7 222.44,323.38 222.49,323.97 
	222.72,324.64 223,325.34 223.01,326.05 222.77,326.61 222.68,327.28 222.9,327.91 222.78,328.21 222.77,328.92 222.9,329.41 
	223.08,330.02 223.23,330.52 223.44,331.1 223.93,331.48 224.47,331.65 225.15,331.86 225.82,332.07 226.47,332.3 227,332.47 
	227.47,332.64 228.1,332.85 228.64,333.01 229.21,333.18 229.82,333.39 230.36,333.6 231,333.79 231.51,333.98 231.95,334.24 
	232.43,334.65 232.92,335.06 233.33,335.36 233.79,335.62 234.33,335.95 234.27,336.4 233.67,336.73 233.23,337.11 232.77,337.4 
	232.28,337.71 231.71,338.05 231.23,338.36 230.74,338.66 230.49,338.81 230.35,338.9 229.92,339.09 229.51,339.27 228.95,339.51 
	228.44,339.76 227.9,340.03 227.38,340.24 226.75,340.41 226.23,340.55 225.59,340.62 225.34,340.3 225.16,340.04 224.95,339.78 
	224.72,339.61 224.44,339.53 223.98,339.67 223.69,339.83 223.37,340.01 223.03,340.2 222.54,340.48 222.01,340.76 221.37,340.62 
	220.93,340.4 220.39,340.15 219.98,339.95 219.47,339.7 219.19,339.57 218.62,339.3 218.11,339.04 217.66,338.83 217.2,338.6 
	216.8,338.41 216.34,338.19 215.84,337.94 215.42,337.73 214.97,337.53 214.45,337.26 213.99,337 213.55,336.76 213.09,336.58 
	212.55,336.4 212.12,336.26 211.71,336.12 211.41,336.03 211.05,335.96 210.41,335.92 209.87,335.87 209.59,335.88 208.94,336.08 
	208.36,336.26 207.89,336.42 207.4,336.61 207.05,336.78 206.53,336.78 206.03,336.75 205.59,336.73 205,336.67 204.54,336.61 
	204.48,336.24 204.54,335.96 204.62,335.61 204.69,335.35 204.74,335.12 204.77,334.77 204.87,334.44 204.92,334.15 204.97,333.88 
	204.98,333.71 205.07,333.28 205.12,333 205.16,332.7 205.21,332.39 205.28,332.06 205.34,331.7 205.36,331.57 205.44,331.08 
	205.51,330.77 205.54,330.61 205.62,330.11 205.69,329.77 205.74,329.41 205.79,329.13 205.85,328.8 205.92,328.45 205.97,328.16 
	206.02,327.81 206.08,327.48 206.18,327.22 206.2,326.89 206.35,326.7 206.39,326.37 206.33,326.25 206.28,326.22 206.26,326.21 
	206.07,326.19 205.57,326.09 205.15,326.02 204.56,325.96 203.95,325.92 203.29,325.85 202.62,325.78 201.93,325.71 201.33,325.66 
	200.74,325.6 200.08,325.54 199.55,325.49 199.01,325.43 198.37,325.38 197.9,325.3 197.32,325.32 196.7,325.25 196.16,325.19 
	195.5,325.12 194.81,325.05 194.25,324.99 193.62,324.92 193.07,324.87 192.42,324.8 191.76,324.73 191.2,324.67 190.55,324.6 
	190.01,324.54 189.38,324.47 188.86,324.41 188.19,324.35 187.66,324.29 187.04,324.23 186.53,324.17 185.94,324.11 185.53,324.06 
	185.31,324.04 185.18,324.03 185.17,324.03 184.71,323.98 184.13,323.92 183.66,323.87 183.08,323.81 182.61,323.75 182.03,323.69 
	181.48,323.63 180.92,323.56 180.48,323.48 180.07,323.39 179.79,323.32 179.13,323.15 178.7,323.04 178.16,322.9 177.6,322.75 
	177.11,322.63 176.65,322.51 176.29,322.41 175.57,322.23 175.06,322.1 174.59,321.97 174.16,321.84 173.57,321.67 173.14,321.55 
	172.76,321.44 172.16,321.26 171.63,321.12 171.24,321 170.85,320.89 170.48,320.79 170.17,320.7 169.96,320.64 169.75,320.58 
	169.52,320.51 169.06,320.38 168.65,320.23 168.27,320.12 167.86,319.97 167.45,319.85 166.97,319.69 166.56,319.57 166.07,319.43 
	165.55,319.29 164.99,319.12 164.45,318.98 164.02,318.82 163.48,318.68 163.02,318.55 162.51,318.39 162.46,318.38 162.04,318.22 
	161.51,318.1 161.12,318.05 161.13,317.73 161.2,317.5 161.27,317.13 161.33,316.81 161.38,316.47 161.43,316.16 161.51,315.68 
	161.61,315.21 161.66,314.84 161.72,314.51 161.77,314.23 161.84,313.85 161.89,313.52 161.95,313.12 162.04,312.61 162.1,312.19 
	162.18,311.72 162.27,311.25 162.33,310.87 162.4,310.47 162.46,310.12 162.51,309.82 162.61,309.3 162.66,308.94 162.73,308.58 
	162.79,308.19 162.86,307.87 162.91,307.54 162.97,307.11 163,306.94 163.09,306.46 163.15,306.11 163.2,305.78 163.25,305.62 
	163.27,305.4 163.32,305.07 163.38,304.7 163.45,304.38 163.5,304.07 163.56,303.71 163.64,303.27 163.66,303.1 163.73,302.62 
	163.79,302.21 163.86,301.86 163.92,301.55 163.96,301.4 164.02,300.95 164.12,300.58 164.17,300.25 164.22,299.88 164.28,299.49 
	164.35,299.18 164.38,298.88 164.43,298.58 164.48,298.27 164.56,297.9 164.61,297.54 164.66,297.24 164.71,296.92 164.74,296.69 
	164.81,296.32 164.86,295.98 164.91,295.69 164.97,295.37 165.01,295.16 165.09,294.74 165.12,294.52 165.15,294.38 165.14,294.33 
	165.19,294.03 165.22,293.72 165.28,293.34 165.37,292.98 165.42,292.6 165.5,292.2 165.51,291.9 165.47,291.49 165.45,291.3 
	165.25,290.82 165.14,290.48 164.99,290.08 164.96,289.91 164.96,289.5 165.02,289.1 165.07,288.84 165.17,288.42 165.25,288.02 
	165.35,287.62 165.42,287.3 165.48,286.95 165.51,286.83 165.61,286.38 165.68,286.1 165.76,285.77 165.78,285.67 165.86,285.27 
	165.94,284.91 166.01,284.59 166.09,284.23 166.17,283.82 166.27,283.39 166.33,283.04 166.48,282.67 166.53,282.46 166.5,282.46 
	166.6,282.15 166.99,282.07 167.45,282.11 168.02,282.18 168.53,282.23 169.09,282.29 169.83,282.37 170.55,282.43 171.17,282.5 
	171.93,282.6 172.55,282.67 173.29,282.75 173.88,282.79 174.55,282.88 175.37,282.98 176,283.03 176.65,283.11 177.41,283.19 
	178,283.23 178.61,283.3 179.2,283.36 179.93,283.45 180.54,283.52 181.3,283.6 182.03,283.7 182.76,283.8 183.36,283.85 
	183.94,283.93 184.49,283.99 185.2,284.04 185.92,284.12 186.63,284.21 187.17,284.27 187.84,284.36 188.55,284.45 189.1,284.53 
	189.79,284.57 190.45,284.62 190.97,284.68 191.75,284.78 192.35,284.89 192.96,284.93 193.58,284.99 194.34,285.06 195.03,285.15 
	195.58,285.22 196.34,285.33 197,285.4 197.57,285.46 197.77,285.08 197.83,284.63 197.9,284.26 197.98,283.83 198.04,283.53 
	198.09,283.15 198.18,282.87 198.27,282.42 198.32,282.1 198.39,281.75 198.44,281.47 198.52,281.11 198.6,280.72 198.62,280.57 
	198.68,280.13 198.73,279.79 198.78,279.57 198.86,279.19 198.96,278.71 199.03,278.34 199.08,278.02 199.14,277.72 199.19,277.58 
	199.39,277.49 199.75,277.52 199.95,277.25 200.03,276.89 200.1,276.51 200.16,276.19 200.23,275.85 200.28,275.59 200.31,275.43 
	200.37,275.06 200.42,274.79 200.49,274.49 200.54,274.19 200.59,273.91 200.62,273.63 200.74,273.27 200.78,272.97 200.87,272.59 
	200.91,272.3 200.96,272.01 200.95,271.91 200.98,271.86 201.08,271.45 201.13,271.14 201.19,270.85 201.23,270.61 201.29,270.31 
	201.36,269.95 201.41,269.66 201.46,269.4 201.46,269.29 201.29,269.06 201.42,269.25 201.46,269.28 "/>
</svg>
