<?xml version="1.0" encoding="utf-8"?>
<!-- Generator: Adobe Illustrator 17.0.2, SVG Export Plug-In . SVG Version: 6.00 Build 0)  -->
<!DOCTYPE svg PUBLIC "-//W3C//DTD SVG 1.1//EN" "http://www.w3.org/Graphics/SVG/1.1/DTD/svg11.dtd">
<svg version="1.1" id="Layer_1" xmlns="http://www.w3.org/2000/svg" xmlns:xlink="http://www.w3.org/1999/xlink" x="0px" y="0px"
	 width="504px" height="504px" viewBox="0 0 504 504" enable-background="new 0 0 504 504" xml:space="preserve">
<g>
	
		<polyline opacity="0.125" fill="none" stroke="#000000" stroke-width="0.75" stroke-linecap="round" stroke-linejoin="round" stroke-miterlimit="10" points="
		384.26,226.01 384.38,224.54 384.64,223.32 384.77,222.08 385.03,220.79 385.15,219.51 385.54,218.23 384.77,216.85 383.23,216.3 
		381.69,215.83 380.15,215.24 378.48,214.8 377.2,214.61 375.53,214.46 373.86,214.21 371.81,213.83 370.53,213.58 368.86,213.22 
		367.32,212.89 365.78,212.58 364.37,212.35 362.45,212.02 361.17,211.72 359.37,211.33 357.32,210.89 355.65,210.49 353.73,210.11 
		352.31,209.95 350.52,209.89 348.59,210.06 347.18,210.45 345.64,210.49 344.23,210.35 342.69,210.15 340.9,209.86 339.61,209.67 
		338.08,209.5 336.28,209.27 334.48,208.93 333.33,209.81 333.07,211.13 332.94,212.51 332.69,213.87 332.56,215.15 332.3,216.37 
		331.92,217.55 331.66,218.74 331.53,219.84 331.15,220.97 331.02,222.46 331.02,223.67 332.3,224.38 334.1,224.54 335.64,224.64 
		337.18,224.73 338.97,224.94 340.64,225.13 341.92,225.32 343.72,225.47 345.26,225.67 347.05,225.56 348.59,224.94 350.39,224.69 
		352.19,224.77 353.85,224.99 355.65,225.28 357.32,225.47 359.11,225.77 360.91,225.96 362.45,226.26 364.24,226.4 365.78,226.5 
		367.32,226.64 369.12,226.8 370.66,226.89 372.45,227.13 374.25,227.59 375.92,227.91 377.71,228.17 379.25,228.36 380.92,228.55 
		382.2,228.01 382.59,226.69 	"/>
	
		<polyline opacity="0.125" fill="none" stroke="#000000" stroke-width="0.75" stroke-linecap="round" stroke-linejoin="round" stroke-miterlimit="10" points="
		385.92,232.21 385.92,232.21 385.15,234.03 384,235.54 382.97,237.12 381.82,238.58 380.92,239.8 379.89,240.93 378.87,242.01 
		377.84,243.04 376.82,244.27 375.79,245.55 375.02,246.58 374.25,247.54 373.22,248.56 372.33,249.59 371.3,250.62 370.14,251.58 
		369.12,252.61 368.35,253.66 367.32,254.66 366.55,255.68 365.66,256.74 364.63,257.76 363.73,258.84 362.7,259.83 361.68,260.85 
		360.65,261.88 359.75,262.91 358.98,263.93 357.96,264.92 357.19,265.9 356.16,266.92 355.26,267.9 354.24,268.92 353.47,269.92 
		352.44,270.95 351.54,271.98 350.52,273 349.62,274.03 348.72,274.99 347.82,275.95 346.8,276.95 345.77,277.93 344.87,278.95 
		343.85,279.98 342.95,281.01 343.46,279.67 344.49,278.65 345.64,277.79 346.8,276.56 347.82,275.44 348.98,274.28 350.01,273.23 
		350.9,272.16 351.93,271.13 352.7,270.18 353.73,269.15 354.62,268.13 355.65,267.06 356.8,265.99 357.96,265.01 359.11,263.89 
		360.27,262.74 361.29,261.71 362.32,260.69 363.22,259.53 364.24,258.51 365.01,257.52 366.17,256.49 367.19,255.47 367.96,254.34 
		368.73,253.31 369.76,252.29 370.66,251.19 371.68,250.23 372.45,249.27 373.22,248.18 373.99,247.15 375.02,246.37 376.17,245.38 
		377.33,244.52 378.35,243.52 379.25,242.47 380.28,241.47 381.05,240.5 381.82,239.47 382.84,238.58 384,237.66 384.77,236.62 
		385.79,235.54 386.31,234.57 	"/>
	
		<polyline opacity="0.125" fill="none" stroke="#000000" stroke-width="0.75" stroke-linecap="round" stroke-linejoin="round" stroke-miterlimit="10" points="
		383.61,224.13 383.87,222.68 384,221.27 384.38,219.79 384.64,218.42 384.77,217.1 383.36,216.28 381.69,216.07 379.89,216.05 
		378.35,215.83 376.82,215.66 375.28,215.49 373.61,215.28 372.07,214.96 370.66,214.56 369.12,214.31 367.58,214.07 366.04,213.87 
		364.63,213.58 363.09,213.35 361.29,213.1 359.5,212.75 357.96,212.56 356.55,212.26 354.75,212.07 353.21,211.92 351.54,211.56 
		350.01,211.24 348.34,210.99 346.67,210.79 345,210.59 343.72,210.45 341.92,210.27 340.38,209.95 338.84,209.71 337.05,209.47 
		335.51,209.12 333.84,208.86 332.94,209.67 332.69,210.92 332.56,212.11 332.3,213.48 332.17,214.8 332.17,216.17 331.66,217.59 
		331.53,218.82 331.4,219.95 331.02,221.05 330.76,222.38 332.17,222.85 333.71,222.92 335.51,222.92 337.05,223.1 338.84,223.41 
		340.38,223.67 342.18,224.05 343.85,224.38 345.26,224.77 346.8,224.94 348.59,224.45 350.13,224.26 351.93,224.29 353.47,224.54 
		355.01,224.83 356.55,225.08 358.34,225.37 359.88,225.67 361.55,225.96 363.09,226.31 364.63,226.57 366.17,226.8 367.96,226.95 
		369.5,227.21 371.04,227.37 372.71,227.85 374.25,228.31 375.79,228.62 377.33,228.85 379.12,229.04 380.66,229.19 382.07,228.17 
		382.59,226.8 382.84,225.56 382.97,224.13 383.36,222.78 383.61,221.43 384,220.02 384.26,218.61 384.64,217.2 385.41,216.23 
		387.33,216.17 389.13,216.61 390.67,217.1 392.47,217.55 394,217.88 395.54,218.61 395.16,219.98 394.52,221.05 393.75,222.05 
		392.98,223.02 391.82,224.13 390.67,225.23 389.51,226.31 387.59,226.64 385.92,226.1 384.64,225.72 383.87,225.72 	"/>
	
		<polyline opacity="0.125" fill="none" stroke="#000000" stroke-width="0.75" stroke-linecap="round" stroke-linejoin="round" stroke-miterlimit="10" points="
		384.38,226.5 384.38,226.5 383.61,224.69 383.87,223.49 384,222.14 384.26,220.82 384.38,219.45 384.64,218.12 384.77,216.76 
		385.03,215.41 385.15,214.02 385.41,212.75 385.54,211.53 385.92,210.27 386.31,208.99 386.56,207.66 386.95,206.34 387.08,205.07 
		387.33,203.86 387.08,202.67 387.08,201.5 387.59,200.18 387.72,198.95 388.1,197.63 388.36,196.46 388.49,195.27 388.75,193.85 
		389.13,192.53 389.13,191.29 387.72,190.26 386.31,189.94 384.77,189.75 383.23,189.4 381.3,189.11 379.89,188.77 378.48,188.43 
		377.2,188.18 375.53,187.83 373.99,187.31 372.45,186.93 370.91,186.62 369.38,186.47 367.71,186.32 366.17,186.22 364.37,185.98 
		362.83,185.68 361.29,185.44 359.75,185.39 358.21,185.3 356.42,185.11 355.01,184.71 353.47,184.57 351.93,184.36 350.52,184.11 
		348.98,183.93 347.44,183.54 345.64,183.78 344.23,184.62 343.08,185.64 342.69,186.76 342.18,187.95 341.67,189.11 341.15,190.29 
		340.77,191.46 340.13,192.57 338.84,193.17 337.18,193.98 335.64,194.75 334.87,196.04 334.74,197.48 334.23,198.9 334.1,200.37 
		334.1,201.81 333.84,203.15 333.71,204.37 333.33,205.55 333.07,206.81 332.94,208.14 332.56,209.47 332.3,210.74 332.17,211.92 
		332.17,213.29 331.92,214.56 331.66,215.83 331.53,217.2 331.4,218.52 331.4,219.84 331.15,221.18 331.15,222.49 332.56,223.41 
		333.84,223.56 335.64,223.87 337.18,224.1 338.84,224.38 340.13,224.69 341.67,224.94 343.46,225.13 344.87,225.41 346.67,225.41 
		347.95,225.13 349.62,224.94 351.29,224.94 352.83,225.08 354.49,224.94 355.39,223.87 355.78,222.49 356.03,221.11 356.16,219.77 
		356.55,218.42 356.93,217.2 357.83,216.07 358.21,214.85 359.75,214.21 361.55,214.51 363.22,214.96 364.89,215.28 366.3,215.64 
		368.09,215.83 370.14,215.92 371.81,216.07 373.48,216.23 375.28,216.47 376.82,216.76 378.48,217.01 380.28,217.3 381.82,217.55 
		383.61,217.93 383.61,219.3 383.36,220.48 382.97,221.82 382.59,223.08 382.46,224.45 382.07,225.92 381.43,227.28 380.28,227.82 	
		"/>
	
		<polyline opacity="0.125" fill="none" stroke="#000000" stroke-width="0.75" stroke-linecap="round" stroke-linejoin="round" stroke-miterlimit="10" points="
		383.23,224.29 383.23,224.29 383.36,222.92 383.61,221.69 383.87,220.41 384,219.2 384,217.88 383.23,216.85 381.69,216.43 
		380.28,216.28 378.48,216.17 376.82,216.05 375.02,215.83 373.48,215.64 371.81,215.44 370.27,215.24 368.86,215.05 367.32,214.85 
		365.78,214.61 364.24,214.42 362.7,214.25 361.17,214.17 359.5,213.99 357.96,213.83 356.16,213.53 354.75,212.99 353.47,212.51 
		351.67,212.07 350.13,211.72 348.59,211.43 347.05,211.17 345.39,211.04 343.72,210.79 342.18,210.59 340.77,210.45 338.97,210.27 
		337.18,210.11 335.64,209.76 334.1,209.67 333.33,210.89 333.33,212.2 333.33,213.43 333.07,214.8 332.69,215.98 332.56,217.2 
		332.56,218.36 332.3,219.79 331.92,220.97 331.66,222.14 332.69,222.97 334.23,223.08 336.02,223.32 337.56,223.67 339.23,223.95 
		340.77,224.29 342.31,224.51 343.72,224.73 345.39,224.94 346.8,224.45 348.59,224.2 350.39,224.29 351.93,224.54 353.47,225.03 
		355.01,225.41 356.55,225.86 358.21,226.31 359.88,226.69 361.55,226.99 363.09,227.08 364.63,227.21 366.17,227.28 367.71,227.46 
		369.12,227.63 370.66,227.82 372.07,228.01 373.86,228.26 375.4,228.49 376.94,228.85 379.51,231.44 381.05,231.49 382.07,230.54 
		382.59,229.49 383.23,227.85 383.23,226.59 383.23,225.28 382.97,223.87 383.23,222.49 383.36,221.11 383.61,219.84 383.87,218.57 
		383.87,217.3 382.2,216.56 380.41,216.52 378.74,216.43 376.94,216.28 375.28,216.05 373.86,215.74 372.33,215.58 370.66,215.53 
		368.86,215.2 367.58,214.85 366.04,214.64 364.63,214.46 363.09,214.25 361.29,214.02 359.5,213.78 357.96,213.48 356.42,213.29 
		354.75,212.99 353.08,212.58 351.29,212.26 349.75,211.92 348.21,211.69 346.8,211.48 345,211.33 343.21,211.08 341.54,210.89 
		340,210.66 338.46,210.59 336.66,210.49 335.12,210.27 333.71,210.53 333.33,211.69 333.07,213.04 333.07,214.17 332.94,215.49 
		332.56,216.61 332.17,217.84 331.53,218.96 331.15,220.33 330.76,221.56 331.15,222.92 332.69,223.7 334.1,223.87 335.64,224.1 
		337.18,224.35 338.97,224.59 340.64,224.77 342.31,225.13 344.1,225.41 345.77,225.62 347.18,225.13 348.72,224.77 350.39,224.83 
		352.31,225.08 354.11,225.41 355.65,225.67 357.57,225.96 359.37,226.35 360.91,226.64 362.45,226.89 363.99,227.21 365.78,227.37 
		367.32,227.53 368.86,227.46 370.53,227.63 372.33,227.82 373.61,228.07 375.28,228.41 377.2,228.66 378.87,228.87 380.41,229.13 
		382.07,228.95 382.46,227.59 382.59,226.35 382.59,224.94 382.84,223.61 382.97,222.33 383.23,221.05 383.36,219.77 383.61,218.48 
		383.61,217.25 382.2,216.76 380.66,216.61 378.87,216.47 377.58,216.3 375.92,216.12 374.38,215.98 372.84,215.88 371.3,215.79 
		369.76,214.56 367.71,214.61 366.55,214.07 364.89,213.99 363.22,213.92 361.68,213.78 359.88,213.53 358.6,213.35 357.32,214.25 
		357.19,215.53 356.93,216.76 356.93,217.93 356.8,219.36 356.8,220.66 356.55,222 356.42,223.32 356.42,224.51 357.96,225.15 
		359.37,225.47 361.17,225.62 362.45,225.8 363.99,226.1 365.66,226.44 367.19,226.74 368.73,226.99 370.27,227.23 371.81,227.67 
		373.48,227.91 375.02,228.07 376.82,228.31 378.35,228.49 379.89,228.85 381.69,229.09 382.46,228.1 382.2,226.99 	"/>
	
		<polyline opacity="0.125" fill="none" stroke="#000000" stroke-width="0.75" stroke-linecap="round" stroke-linejoin="round" stroke-miterlimit="10" points="
		386.56,233.59 386.56,233.59 386.18,234.86 385.92,235.16 384.77,236.24 383.87,237.16 382.84,238.11 382.07,239.01 380.92,240.16 
		379.89,241.06 379.12,242.16 378.1,243.11 377.2,244.14 376.43,245 375.4,245.94 374.38,246.83 373.48,247.99 372.45,248.96 
		371.68,249.91 370.66,250.77 369.76,251.75 368.73,252.73 367.71,253.8 366.94,254.84 366.04,255.81 365.27,256.74 364.24,257.74 
		363.22,258.7 362.32,259.79 361.29,260.85 360.52,261.78 359.5,262.71 358.73,263.74 357.83,264.66 356.93,265.65 356.03,266.59 
		355.26,267.61 354.24,268.58 353.47,269.54 352.44,270.49 351.54,271.46 350.77,272.4 349.75,273.39 348.98,274.36 347.82,275.48 
		347.05,276.41 346.03,277.44 345.64,278.61 345.39,279.8 344.87,281.01 344.87,282.37 346.29,283.14 347.57,283.46 349.11,283.75 
		350.77,283.85 352.31,284 353.73,284.42 355.26,285.02 356.93,285.21 358.73,285.57 360.52,285.83 362.06,285.96 363.73,286.21 
		365.27,286.79 366.3,287.72 367.71,288.27 369.5,288.6 371.04,289.16 372.71,289.81 374.25,290.11 375.79,290.45 377.58,290.7 
		379.12,291 380.66,291.14 382.07,291.54 383.87,291.78 385.54,291.99 387.08,292.22 388.75,292.37 390.28,292.63 391.82,292.88 
		393.36,293.05 395.03,293.24 396.57,293.49 397.85,293.73 399.52,293.98 401.06,294.17 402.86,294.37 404.39,294.51 406.32,294.71 
		408.12,295 409.91,295.16 411.45,295.19 413.12,295.32 416.07,296.13 417.61,296.35 419.4,296.37 420.94,296.53 422.61,296.73 
		424.28,296.99 425.95,297.31 427.61,297.61 429.41,297.89 430.95,298.18 432.49,298.53 434.16,298.82 435.82,299.04 437.49,299.17 
		439.03,299.26 440.57,299.43 442.37,298.66 443.26,297.8 444.55,296.53 445.32,295.19 446.09,293.98 446.6,292.88 447.37,291.6 
		448.27,290.26 448.78,289.09 449.16,287.88 449.55,286.64 450.19,285.42 450.7,284.19 451.34,282.88 452.11,281.6 452.76,280.38 
		453.27,279.11 453.91,277.93 454.42,276.76 455.06,275.53 455.45,274.28 456.09,273.13 456.48,271.72 456.86,270.54 457.25,269.36 
		457.63,268.09 458.14,266.87 458.4,265.65 456.86,264.87 455.45,264.37 453.91,264.02 452.24,263.55 450.7,263.12 449.04,262.66 
		447.24,262.27 445.83,261.84 444.55,261.24 443.26,260.3 444.29,259.24 442.11,259.4 440.44,259.28 439.03,258.8 437.62,258.21 
		436.21,257.74 434.54,257.19 433,256.54 431.21,255.9 429.67,255.43 428.25,254.88 427.23,254.02 426.07,253.17 425.05,251.96 
		424.92,250.72 425.3,249.53 425.69,248.37 426.33,247.3 426.84,246.03 427.49,244.7 428,243.52 428.64,242.3 429.02,241.06 
		429.67,239.96 430.82,238.83 431.59,237.66 432.36,236.38 433.13,235.16 433.51,233.94 434.28,232.59 434.67,231.25 435.31,229.98 
		435.82,228.8 436.46,227.46 437.11,226.18 437.62,224.83 438.13,223.56 438.65,222.33 439.16,221.11 439.41,219.98 438.39,218.87 
		437.11,218.28 435.69,217.79 434.16,217.39 432.49,216.94 430.82,216.47 429.15,215.83 427.61,215.28 425.95,214.64 424.15,214.17 
		422.61,213.48 421.46,212.56 420.56,211.24 420.94,209.86 421.46,208.54 421.58,207.12 421.97,205.78 422.23,204.42 422.35,203.09 
		422.74,201.74 423,200.46 423.12,199.24 423.51,198.09 424.02,196.68 424.15,195.23 424.53,193.98 425.3,192.74 426.07,191.42 
		426.46,190.04 427.1,188.72 426.33,187.7 424.66,187 423.12,186.93 421.84,186.67 419.66,186.22 418.12,185.73 417.48,183.44 
		415.94,183.59 414.53,183.39 412.73,183.54 411.45,183.68 410.3,184.75 409.65,185.93 409.4,187.11 409.4,187.75 	"/>
	
		<polyline opacity="0.125" fill="none" stroke="#000000" stroke-width="0.75" stroke-linecap="round" stroke-linejoin="round" stroke-miterlimit="10" points="
		383.61,223.17 384,221.9 384.26,220.73 384.38,219.3 384.64,217.97 384.38,216.82 382.84,216.37 381.3,216.37 379.64,216.23 
		377.84,216.12 376.43,216.05 374.76,215.83 373.48,215.79 371.81,215.64 370.14,215.53 368.35,215.34 366.55,215.2 364.89,215.1 
		363.09,214.89 361.68,214.56 359.88,214.25 358.6,214.07 356.8,213.99 355.01,213.74 353.47,213.48 351.67,213.04 350.01,212.51 
		348.34,212.16 346.8,211.92 345.39,211.81 343.85,211.62 342.31,211.38 340.77,211.08 339.23,210.84 337.82,210.59 336.02,210.3 
		334.23,210.15 333.46,211.13 333.33,212.45 333.07,213.83 332.69,215.15 332.69,216.47 332.56,217.84 332.17,218.96 331.92,220.15 
		331.53,221.41 331.4,222.68 332.17,223.87 333.46,224.64 335.12,224.73 336.79,224.94 338.46,225.08 340.13,225.23 341.67,225.47 
		343.08,225.8 344.49,226.35 345.77,226.31 347.82,225.56 349.36,224.94 350.77,224.99 352.44,225.28 353.85,225.92 355.26,226.4 
		356.55,226.8 358.34,227.08 360.14,227.28 361.93,227.37 363.73,227.53 365.66,227.63 367.19,227.67 368.73,227.77 370.53,228.01 
		372.07,228.23 373.61,228.41 375.28,228.69 376.94,229 378.35,229.19 380.15,229.34 381.43,228.87 382.46,227.91 382.97,226.57 
		383.36,225.23 383.61,224.05 383.87,222.85 384,221.56 384.38,220.09 384.38,218.74 384.38,217.55 382.97,216.85 381.43,216.61 
		379.89,216.52 378.35,216.43 376.82,216.17 375.4,215.83 373.48,215.66 371.81,215.49 370.14,215.28 368.61,214.96 366.81,214.61 
		364.89,214.38 363.22,214.02 361.68,213.83 360.27,213.61 358.6,213.22 356.8,213.04 355.39,212.84 353.85,212.65 352.19,212.26 
		350.39,211.77 348.59,211.38 346.8,211.13 345.26,210.99 343.72,210.74 342.31,210.27 340.64,210.45 338.97,210.4 337.43,210.3 
		335.64,210.11 334.1,210.27 333.46,211.56 333.46,212.75 333.33,214.02 333.07,215.2 332.69,216.37 332.56,217.59 332.17,218.92 
		331.92,220.33 331.53,221.82 331.4,223.23 332.17,224.45 333.46,225.28 335.12,225.37 336.66,225.32 338.2,225.28 340,225.28 
		341.67,225.28 343.21,225.47 344.62,225.77 346.29,226.05 347.82,225.77 349.36,225.23 350.9,225.15 352.83,225.32 354.49,225.67 
		356.16,225.92 357.83,226.21 359.37,226.5 360.91,226.64 362.32,226.89 363.86,227.13 365.66,227.37 367.32,227.63 369.38,227.67 
		371.04,227.77 372.84,227.98 374.38,228.17 375.79,228.41 377.58,228.66 379.12,228.95 380.92,229.09 382.07,228.41 382.84,227.37 
		382.97,227.08 	"/>
	
		<polyline opacity="0.125" fill="none" stroke="#000000" stroke-width="0.75" stroke-linecap="round" stroke-linejoin="round" stroke-miterlimit="10" points="
		382.2,226.21 382.97,224.51 383.23,223.17 383.36,221.9 383.61,220.66 383.87,219.38 384,218.23 383.87,216.91 382.46,216.43 
		380.92,216.3 379.25,216.37 377.71,216.23 376.17,215.98 374.76,215.66 373.22,215.44 371.43,215.24 369.89,215.02 368.09,214.8 
		366.55,214.7 365.01,214.56 363.73,214.42 361.93,214.17 360.14,213.87 358.21,213.74 356.8,213.53 355.26,213.29 353.73,213.04 
		352.31,212.75 350.52,212.45 348.98,212.26 347.44,211.92 345.77,211.56 344.1,211.3 342.57,211.04 340.9,210.74 339.61,210.49 
		338.08,210.21 336.41,209.89 334.74,209.81 333.07,210.4 333.07,211.62 333.07,212.97 332.94,214.31 332.69,215.64 332.56,217.01 
		332.3,218.48 332.17,219.6 331.66,220.97 331.92,222.29 333.33,222.92 334.87,223.32 336.66,223.49 338.46,223.81 340,224.26 
		341.54,224.38 342.95,224.59 344.49,224.9 346.03,225.03 347.57,224.69 349.11,224.45 350.9,224.54 352.44,224.83 353.85,225.23 
		355.39,225.47 357.32,225.8 359.11,226.1 360.91,226.5 362.7,226.89 364.24,227.04 365.78,227.23 367.71,227.37 369.38,227.59 
		371.04,227.67 372.71,227.67 374.25,228.23 375.53,228.55 377.33,228.8 378.74,228.87 380.28,229.09 381.82,228.36 382.07,227.21 
		382.2,225.77 382.2,224.54 382.46,223.32 382.59,221.9 382.84,220.54 382.97,219.36 383.23,218.12 383.36,217.01 382.07,216.17 
		380.28,215.98 378.74,215.79 377.2,215.44 375.79,215.2 373.99,215.1 372.45,215.05 370.66,215.1 369.12,214.89 367.71,214.61 
		366.04,214.38 363.99,214.12 362.32,213.78 360.91,213.43 359.37,213.13 357.57,212.84 356.03,212.71 354.62,212.45 352.83,212.07 
		351.29,211.56 349.62,211.08 347.95,210.79 346.41,210.59 344.62,210.4 342.95,210.21 341.15,210.06 339.61,209.86 338.08,209.71 
		336.28,209.47 334.74,209.25 333.46,210.4 333.33,211.56 333.33,212.75 333.07,214.07 332.94,215.49 332.69,216.69 332.3,217.93 
		332.17,219.16 332.17,220.41 331.66,221.82 331.53,222.97 332.69,223.81 334.48,224.05 336.02,224.13 337.56,224.26 339.36,224.59 
		340.9,224.9 342.69,225.13 344.49,225.32 346.29,225.47 347.82,225.32 349.75,225.08 351.54,225.23 353.08,225.54 354.62,225.8 
		356.03,225.92 357.57,226.1 359.11,226.31 360.52,226.57 362.06,226.8 363.47,226.95 365.01,227.04 366.55,227.21 367.96,227.37 
		369.5,227.46 370.91,227.59 372.71,227.67 373.99,227.82 375.79,228.17 377.58,228.45 379.12,228.8 380.92,229.13 382.2,228.45 
		382.46,226.95 382.46,225.47 382.46,224.26 382.59,223.02 382.84,221.84 382.97,220.63 383.23,219.38 383.36,218.23 383.61,217.07 
		382.97,215.92 381.3,215.49 379.51,215.44 377.84,215.41 376.43,215.34 374.76,215.15 373.48,214.89 371.81,214.7 370.53,214.46 
		368.73,214.21 367.19,214.02 365.78,213.78 364.24,213.53 362.7,213.29 361.17,213.04 359.37,212.84 357.57,212.58 356.03,212.4 
		354.24,212.33 352.7,212.07 351.16,211.56 349.62,211.17 348.21,210.99 346.67,210.92 345,210.7 343.72,210.49 342.18,210.27 
		340.64,210.02 338.97,209.86 337.43,209.71 336.02,209.67 334.48,209.47 333.33,210.3 333.07,211.53 333.33,212.84 332.94,214.25 
		332.69,215.53 332.3,216.82 331.92,218.1 331.53,219.36 331.15,220.41 330.76,221.65 330.76,222.85 332.3,223.41 334.1,223.56 
		335.89,223.87 337.56,224.2 339.36,224.54 340.9,224.77 342.69,225.08 344.23,225.28 345.77,225.28 347.18,224.94 348.72,224.54 
		350.39,224.59 351.93,224.83 353.21,225.15 354.62,224.73 355.26,223.49 356.03,222.08 356.42,220.73 356.42,219.45 356.8,218.23 
		356.93,217.1 357.57,215.88 358.21,214.76 358.73,213.74 360.27,213.78 361.93,214.12 363.47,214.31 365.01,214.51 366.3,214.7 
		367.96,214.96 369.5,215.1 370.91,215.28 372.71,215.53 374.38,215.83 375.79,216.07 377.33,216.17 378.87,216.43 380.92,216.69 
		382.2,216.82 383.61,217.55 383.36,218.74 383.23,219.95 382.84,221.11 382.84,222.29 382.59,223.56 382.46,224.9 382.2,226.26 
		381.43,227.46 379.89,227.42 378.35,227.13 376.56,226.89 375.02,226.69 373.48,226.59 371.68,226.35 369.89,226.21 368.09,226.1 
		366.81,225.96 366.55,225.96 	"/>
	
		<polyline opacity="0.125" fill="none" stroke="#000000" stroke-width="0.75" stroke-linecap="round" stroke-linejoin="round" stroke-miterlimit="10" points="
		382.07,227.37 382.07,227.37 380.15,227.77 378.74,227.63 377.2,227.59 375.4,227.53 373.61,227.42 372.33,227.28 370.66,227.08 
		369.38,226.82 367.71,226.57 366.3,226.35 364.63,226.05 362.7,225.8 361.17,225.56 359.5,225.32 358.21,225.08 356.42,224.77 
		355.65,223.7 355.65,222.38 356.03,221.05 355.39,219.89 355.65,218.66 355.65,217.5 355.78,216.23 356.03,214.85 354.75,213.99 
		353.21,213.61 351.93,213.43 350.39,212.99 348.59,212.58 347.05,212.35 345.39,212.11 343.85,211.81 342.31,211.53 340.77,211.38 
		338.97,211.17 337.43,210.99 335.64,210.74 334.1,210.74 332.94,211.77 332.69,212.99 332.56,214.25 332.3,215.64 332.3,216.82 
		332.17,218.12 331.92,219.3 331.66,220.48 331.4,221.6 331.53,223.02 332.94,223.67 334.74,223.87 336.28,224 337.56,224.2 
		339.23,224.45 340.77,224.64 342.57,224.9 344.1,225.13 345.77,225.15 347.44,224.73 349.11,224.51 350.9,224.51 352.44,224.64 
		353.85,224.45 354.75,223.32 355.01,222.08 355.39,220.87 355.78,219.64 356.16,218.42 356.8,217.1 357.57,215.88 358.34,214.56 
		359.37,213.74 361.17,213.99 362.7,214.38 364.37,214.7 366.17,214.96 367.58,215.2 369.5,215.49 370.91,215.79 372.45,215.98 
		373.86,216.23 375.79,216.47 377.2,216.66 378.74,216.85 380.28,217.07 381.82,217.25 383.23,217.88 383.23,219.3 382.97,220.48 
		382.84,221.65 382.59,223.02 382.46,224.35 382.46,225.56 382.2,226.8 381.43,227.91 379.89,227.91 378.35,227.53 376.82,227.23 
		375.4,227.04 373.86,226.74 372.33,226.5 370.66,226.31 368.86,226.18 366.94,226.01 365.27,225.86 363.86,225.67 362.06,225.41 
		360.65,225.13 359.11,224.83 357.57,224.69 356.55,223.61 356.42,222.29 356.42,220.87 356.03,219.64 356.03,218.48 356.16,217.07 
		356.55,215.64 356.8,214.38 356.03,213.29 354.49,212.84 352.7,212.65 350.9,212.2 349.11,211.86 347.44,211.56 345.77,211.33 
		344.49,211.13 342.95,210.89 341.28,210.59 339.61,210.35 337.82,210.06 336.28,209.81 334.74,209.57 333.33,210.4 333.33,211.86 
		333.07,213.1 332.94,214.31 332.69,215.53 332.94,216.76 332.56,217.97 331.92,219.45 331.66,220.82 331.4,222.2 331.53,223.36 
		332.94,223.87 334.74,224 336.28,224.13 338.08,224.35 339.61,224.54 341.15,224.83 342.69,225.03 344.23,225.41 345.77,225.62 
		347.44,225.37 348.98,225.03 350.52,225.08 352.31,225.23 353.85,225.56 355.26,224.99 356.03,223.61 356.03,222.38 356.16,220.92 
		356.42,219.6 356.8,218.42 357.19,217.25 357.83,216.17 358.21,214.96 359.75,214.02 361.55,214.17 363.22,214.56 365.01,214.85 
		366.55,215.15 368.09,215.41 369.89,215.49 371.68,215.64 373.22,215.83 375.28,216.07 376.82,216.28 378.48,216.52 380.28,216.76 
		382.07,217.07 383.61,217.55 383.61,218.87 382.97,220.63 382.46,222.24 382.2,223.81 382.07,224.9 	"/>
	
		<polyline opacity="0.125" fill="none" stroke="#000000" stroke-width="0.75" stroke-linecap="round" stroke-linejoin="round" stroke-miterlimit="10" points="
		382.46,223.51 382.84,222.2 383.23,220.97 383.61,219.77 383.87,218.52 384,217.25 383.61,216.07 382.07,215.44 380.28,215.41 
		378.74,215.41 377.2,215.41 375.79,215.28 374.25,215.2 372.71,215.05 371.04,214.96 369.76,214.85 368.09,214.76 366.55,214.64 
		365.01,214.46 363.47,214.25 362.06,214.07 360.65,213.83 359.11,213.61 357.57,213.53 356.03,213.43 354.11,213.22 352.31,212.89 
		350.52,212.56 348.72,212.35 347.44,212.11 345.77,211.92 344.23,211.69 342.95,211.48 341.28,211.3 339.61,211.17 338.08,211.08 
		336.41,210.89 334.87,210.89 333.84,211.69 333.71,212.89 333.46,214.12 333.33,215.34 333.07,216.56 332.94,217.79 332.69,219.13 
		332.56,220.41 332.17,221.69 331.92,222.97 333.07,223.81 334.74,223.95 336.28,224.05 337.82,224.2 339.36,224.29 340.9,224.51 
		342.57,224.64 344.1,224.9 345.64,225.08 347.18,224.9 348.98,224.45 350.39,224.29 352.19,224.26 353.73,224.45 355.39,224.94 
		356.93,225.41 358.6,225.8 360.27,226.18 362.06,226.44 363.86,226.74 365.66,226.89 367.58,227.21 369.38,227.42 370.91,227.67 
		372.33,228.1 373.99,228.55 375.53,228.95 377.2,229.09 379.12,229.26 380.66,229.44 382.07,228.87 382.46,227.63 382.46,226.35 
		382.2,225.13 382.2,224 382.46,222.49 382.59,220.92 382.97,219.6 383.23,218.33 382.59,217.2 378.87,216.56 377.2,216.3 
		375.79,216.12 374.25,215.92 372.71,215.79 370.66,215.58 369.12,215.44 367.32,215.2 365.78,215.05 364.24,214.89 362.83,214.61 
		361.29,214.38 359.88,214.07 358.34,213.74 356.55,213.43 355.26,213.29 353.21,213.13 351.54,212.8 349.75,212.35 348.21,211.94 
		346.67,211.69 345,211.56 343.46,211.43 341.92,211.33 340.13,211.04 338.59,210.74 337.05,210.66 335.64,210.27 334.1,210.11 
		332.94,210.92 332.3,212.02 332.17,213.38 331.66,214.56 331.4,215.92 331.15,217.25 331.02,218.66 330.51,219.98 330.12,221.27 
		330.12,222.59 331.15,223.41 332.69,223.95 334.23,224.2 336.02,224.54 338.08,224.9 339.74,225.08 341.54,225.32 343.21,225.56 
		345.26,225.77 347.05,225.54 348.59,224.9 350.52,224.73 352.19,224.99 353.73,225.28 355.26,225.41 356.8,225.47 358.34,225.62 
		359.88,225.86 361.55,226.26 362.06,226.31 	"/>
	
		<polyline opacity="0.125" fill="none" stroke="#000000" stroke-width="0.75" stroke-linecap="round" stroke-linejoin="round" stroke-miterlimit="10" points="
		381.69,226.4 382.07,224.77 382.46,223.27 383.23,222.08 384.26,220.79 384.77,219.38 385.15,218.1 386.18,217.1 388.1,217.07 
		389.51,217.33 391.05,217.71 392.59,217.93 394.39,218.28 396.19,217.93 397.08,217.1 397.85,216.05 398.62,215.05 399.91,213.78 
		400.93,212.56 401.96,211.43 403.24,210.27 404.39,209.27 405.55,208.35 406.06,207.27 406.58,205.99 406.7,204.67 407.09,203.4 
		407.47,202.06 407.86,200.81 408.12,199.5 408.5,198.22 408.63,196.93 408.88,195.62 409.01,194.37 409.27,192.88 409.4,191.51 
		409.91,190.1 410.04,188.67 410.3,187.31 410.68,186.03 412.48,185.39 414.14,185.35 415.94,185.59 417.61,185.9 419.28,186.16 
		420.81,186.57 422.35,186.93 423.76,187.11 425.05,187.83 426.07,188.67 426.59,189.8 426.46,191.03 425.95,192.25 425.3,193.37 
		424.66,194.84 424.53,195.96 424.28,197.38 424.02,198.86 424.02,200.01 423.51,201.24 423.51,202.42 423.38,203.89 423,205.14 
		422.74,206.43 422.74,207.71 422.74,208.93 422.61,210.3 423,211.53 423.51,212.56 423.51,213.74 423.51,214.96 423.38,216.07 
		423.12,217.46 423,218.66 422.74,219.98 422.61,221.31 422.23,222.72 421.58,224.1 421.2,225.56 420.81,226.99 420.43,228.26 
		420.04,229.73 419.79,231.09 419.79,232.38 419.79,233.59 419.79,234.81 420.04,236.06 420.17,237.4 420.04,238.69 419.4,240.16 
		419.02,241.63 418.89,242.98 418.63,244.31 418.12,245.63 418.12,246.83 417.86,248.03 417.61,249.27 417.48,250.62 417.22,251.84 
		417.09,253.22 417.09,254.58 416.71,256.07 416.32,257.22 415.94,258.7 415.68,260.12 415.56,261.29 415.3,262.48 415.04,263.89 
		414.91,265.18 414.53,266.43 414.4,267.65 414.14,268.83 414.02,269.95 413.76,271.13 413.37,272.49 413.37,273.9 413.12,275.18 
		412.73,276.5 412.6,277.88 412.48,279.35 411.96,280.52 411.84,281.85 411.58,283.26 411.45,284.42 411.19,285.75 411.07,287.18 
		410.81,288.5 410.42,289.96 409.4,291.28 407.86,291.92 406.58,291.99 404.91,291.99 403.37,291.86 401.57,291.82 400.03,291.82 
		398.49,291.73 397.08,291.63 395.54,291.47 394,291.35 392.21,291.14 390.41,290.9 388.87,290.7 387.33,290.5 385.79,290.32 
		384.26,290.11 382.97,289.42 382.84,287.11 382.46,285.96 381.69,284.93 380.92,283.65 380.66,282.43 381.05,281.01 381.3,279.84 
		381.3,278.39 381.43,276.9 381.69,275.53 382.07,274.07 382.07,272.62 382.46,271.13 382.59,269.76 382.97,268.33 383.23,267.23 
		383.36,265.95 383.61,264.66 383.87,263.38 384.26,262.27 384.38,260.82 384.77,259.62 384.77,259.48 	"/>
	
		<polyline opacity="0.125" fill="none" stroke="#000000" stroke-width="0.75" stroke-linecap="round" stroke-linejoin="round" stroke-miterlimit="10" points="
		385.15,224.59 382.97,224.1 383.23,222.88 383.36,221.65 383.61,220.41 384,219.16 384.38,217.97 383.87,216.69 382.2,216.28 
		380.66,216.17 378.87,216.07 377.2,216.05 375.79,215.79 374.25,215.64 372.84,215.41 371.3,215.2 369.89,215.05 368.09,214.89 
		366.81,214.7 365.27,214.46 363.47,214.31 361.68,214.21 359.88,213.99 358.34,213.67 356.55,213.48 355.01,213.35 353.21,213.13 
		351.54,212.8 350.01,212.45 348.59,212.02 347.05,211.69 345.26,211.43 343.46,211.08 341.92,210.79 340.13,210.45 338.2,210.11 
		336.66,209.76 335.25,209.5 333.71,209.38 332.94,210.59 332.94,211.92 332.94,213.19 332.69,214.38 332.56,215.58 332.3,216.91 
		332.17,218.1 332.17,219.25 331.66,220.41 331.53,221.6 331.66,222.92 333.07,223.51 334.48,223.61 336.02,223.49 337.43,223.41 
		338.97,223.51 340.64,223.74 342.18,223.95 343.85,224.45 345.64,224.73 347.05,224.51 348.34,223.95 350.01,223.91 351.54,224.05 
		353.08,224.35 354.75,224.51 356.42,224.54 358.34,224.59 360.14,224.94 361.55,225.23 362.83,225.54 364.24,225.8 365.78,226.1 
		367.32,226.31 368.86,226.57 370.53,226.89 372.07,227.33 373.48,227.72 375.02,228.07 376.56,228.07 378.1,228.31 379.64,228.49 
		381.3,228.69 382.46,227.77 382.84,226.4 382.97,225.03 382.97,223.7 383.36,222.49 383.61,221.22 383.87,219.98 384,218.77 
		384.26,217.55 382.97,216.61 381.3,216.47 379.51,216.28 377.84,216.17 376.43,216.07 374.76,215.88 373.1,215.74 371.3,215.44 
		369.5,215.2 368.09,215.02 366.3,214.7 364.63,214.42 363.09,214.17 361.29,213.92 359.5,213.53 358.21,213.19 356.42,212.97 
		354.62,212.56 353.08,212.33 351.67,212.11 350.13,211.77 348.72,211.53 347.18,211.38 345.64,211.24 344.1,211.08 342.31,210.79 
		340.9,210.49 339.36,210.21 338.08,209.95 336.28,209.86 334.74,209.71 333.33,209.95 332.56,211.17 332.3,212.35 332.3,213.53 
		332.3,214.89 332.17,216.3 331.66,217.71 331.53,219.13 331.4,220.38 331.15,221.6 330.76,222.78 331.66,223.81 333.07,224.29 
		334.87,224.26 336.41,224.2 338.2,224.51 339.74,224.77 341.28,225.03 343.08,225.13 344.62,225.28 346.41,225.28 347.95,224.83 
		349.75,224.9 352.19,224.69 353.47,224.94 354.75,225.13 356.8,225.32 358.34,225.54 360.14,225.77 361.68,226.05 363.22,226.57 
		365.01,227.04 366.55,227.37 368.09,227.53 369.76,227.63 371.3,227.72 372.84,227.85 374.38,228.1 375.92,228.36 377.71,228.62 
		379.51,228.85 381.05,229.13 382.46,228.1 382.97,226.69 383.23,225.23 383.36,224 383.61,222.59 383.61,221.36 383.87,220.15 
		384.26,218.87 384.64,217.64 383.61,216.56 382.07,216.37 380.28,216.37 378.87,216.28 377.2,216.12 375.79,215.92 373.99,215.83 
		372.45,215.83 370.91,215.64 369.38,215.41 367.71,215.15 366.04,214.96 364.24,214.61 362.7,214.38 360.91,214.12 359.11,213.83 
		357.32,213.48 355.78,213.22 354.49,213.04 352.83,212.84 351.16,212.45 349.62,212.11 347.95,211.86 346.67,211.72 345,211.43 
		343.46,211.13 342.18,210.92 340.38,210.74 338.84,210.53 337.18,210.4 335.64,210.4 334.1,210.27 332.56,211.94 332.3,213.38 
		332.17,214.56 331.92,215.83 331.66,217.1 331.53,218.42 331.4,219.77 331.15,221.05 331.02,222.46 331.4,223.61 332.69,224.38 
		334.48,224.51 336.02,224.51 337.56,224.64 339.23,224.77 340.77,224.99 342.57,225.13 344.1,225.15 345.64,225.32 347.18,224.99 
		348.72,224.51 350.39,224.2 351.93,224 353.85,224.1 355.39,224.26 356.93,224.45 358.73,224.69 360.27,224.77 362.06,224.94 
		363.73,225.15 365.4,225.67 366.81,226.05 368.73,226.59 370.27,227.08 372.07,227.59 373.61,227.91 375.28,228.23 376.94,228.49 
		378.74,228.75 380.28,228.87 381.69,228.26 382.2,227.13 382.46,225.62 382.59,224.29 382.84,223.02 383.23,221.75 383.61,220.48 
		383.87,219.16 384,217.84 383.61,216.56 382.2,216.17 380.28,216.17 378.48,216.28 376.94,216.12 375.02,215.88 373.22,215.79 
		370.91,215.1 368.86,214.56 367.19,214.31 365.4,213.99 363.86,213.78 362.06,213.61 360.27,213.38 358.6,213.22 358.34,213.53 	
		"/>
	
		<polyline opacity="0.125" fill="none" stroke="#000000" stroke-width="0.75" stroke-linecap="round" stroke-linejoin="round" stroke-miterlimit="10" points="
		382.84,224.54 383.23,223.32 383.23,222 383.23,220.63 383.36,219.25 384,217.97 384.38,216.76 383.23,215.88 381.43,216.17 
		379.64,216.17 378.35,216.07 376.82,215.79 375.28,215.49 373.86,215.24 372.45,215.15 370.66,215.02 368.86,214.85 367.58,214.46 
		366.04,214.21 364.24,214.02 362.45,213.83 360.65,213.61 358.98,213.35 357.19,213.22 355.78,213.04 354.24,212.71 352.7,212.35 
		351.29,212.02 349.75,211.72 348.34,211.43 346.67,211.33 344.87,211.3 343.21,211.13 341.54,210.89 340,210.7 338.2,210.45 
		336.66,210.27 334.87,209.95 333.46,210.45 333.07,211.72 333.07,212.97 332.94,214.25 332.69,215.49 332.56,216.66 332.3,217.79 
		332.17,219.25 331.92,220.57 331.66,222 331.53,223.27 332.56,224.29 334.1,224.51 335.64,224.38 337.18,224.45 338.84,224.59 
		340.77,224.54 342.31,224.59 343.85,224.64 345.39,224.73 347.05,224.54 348.59,224.26 350.13,224.2 351.93,224.26 353.73,224.51 
		355.26,224.9 356.93,225.08 358.6,225.15 360.14,225.32 361.68,225.56 363.22,225.8 364.89,226.1 366.55,226.35 367.96,226.57 
		369.5,226.8 370.91,227.08 372.33,227.46 373.86,227.98 375.53,228.41 377.2,228.49 378.48,228.66 380.15,228.85 381.69,228.85 
		382.2,227.72 382.46,226.5 382.59,225.23 382.84,224.05 383.23,222.68 383.36,221.51 383.61,220.33 383.87,219.16 384,217.97 
		382.97,216.85 381.43,216.66 379.89,216.52 378.35,216.3 376.56,216.12 375.02,215.92 373.48,215.79 371.68,215.66 370.14,215.58 
		368.35,215.28 366.81,215.02 365.01,214.76 363.47,214.61 361.93,214.38 360.14,214.07 358.73,213.74 357.19,213.48 355.39,213.19 
		353.85,212.84 352.31,212.4 350.9,212.07 349.36,211.77 347.57,211.62 346.03,211.72 344.62,211.62 342.95,211.48 341.15,211.3 
		339.61,211.13 338.2,210.89 336.66,210.59 335.25,210.27 333.71,210.89 333.33,212.02 333.07,213.43 332.94,214.76 332.69,216.17 
		332.69,217.39 332.3,218.61 332.17,219.79 331.66,221.22 331.4,222.46 331.66,223.56 333.46,223.87 335.12,224.05 336.66,224.35 
		338.46,224.54 340.13,224.77 341.92,225.08 343.46,225.28 345,225.37 346.67,224.99 348.21,224.51 349.75,224.2 351.16,224.13 
		352.83,224.35 354.49,224.51 355.78,224.59 357.32,224.73 358.73,224.99 360.27,225.32 361.68,225.8 363.09,226.31 364.63,226.57 
		366.17,226.8 367.71,226.95 369.5,227.13 371.04,227.42 372.45,227.77 374.25,227.98 375.79,228.1 377.33,228.41 378.74,228.75 
		380.28,229.13 381.82,228.49 382.2,227.28 382.59,225.8 382.84,224.59 383.23,223.23 383.61,221.82 384,220.48 384.26,219.13 
		384.64,217.74 382.07,216.82 380.66,216.56 379.12,216.3 377.58,216.12 375.92,215.98 374.38,215.79 372.71,215.53 370.91,215.24 
		369.38,215.02 367.71,214.76 366.04,214.64 364.24,214.56 362.45,214.31 360.91,214.17 359.37,214.02 357.57,213.67 356.03,213.38 
		354.49,213.1 353.08,212.84 351.29,212.35 349.75,212.02 348.21,211.72 346.8,211.56 345,211.43 343.46,211.43 341.92,211.24 
		340.38,211.04 338.59,210.74 337.05,210.53 335.12,210.3 333.71,210.49 333.07,211.69 333.07,212.97 332.69,214.12 332.56,215.44 
		332.56,216.76 332.3,217.93 332.17,219.2 332.17,220.48 331.92,221.75 331.53,222.97 332.56,223.91 334.1,223.95 335.51,223.95 	
		"/>
	
		<polyline opacity="0.125" fill="none" stroke="#000000" stroke-width="0.75" stroke-linecap="round" stroke-linejoin="round" stroke-miterlimit="10" points="
		385.03,224.9 384.77,223.56 384.64,222.24 384.38,220.97 384.64,219.64 384.77,218.23 384.77,217.01 383.36,216.23 381.82,216.28 
		380.15,216.23 378.48,216.17 376.94,216.05 375.53,215.88 373.99,215.74 372.33,215.53 370.66,215.34 369.38,215.2 367.58,215.05 
		366.04,214.7 364.24,214.31 362.7,214.07 361.17,213.83 359.37,213.58 357.57,213.38 356.16,213.19 354.62,212.99 353.08,212.65 
		351.54,212.26 350.13,211.92 348.34,211.69 346.41,211.43 344.87,211.24 343.21,211.08 341.67,210.79 340,210.53 338.2,210.3 
		336.66,210.06 335.12,209.86 333.84,210.74 333.33,212.11 333.07,213.43 332.94,214.7 332.56,216.12 332.3,217.55 332.17,218.82 
		331.66,220.09 331.4,221.36 331.66,222.49 332.56,225.47 334.23,225.37 336.02,225.54 337.56,225.41 339.36,225.56 340.9,225.62 
		342.31,225.77 343.85,226.01 345.39,226.18 347.18,225.86 348.59,225.56 350.39,225.72 352.19,225.92 353.73,226.21 355.26,226.5 
		356.93,226.82 358.6,227.08 360.14,227.37 361.68,227.53 363.09,227.53 364.63,227.23 366.17,227.21 367.71,227.28 369.38,227.28 
		371.04,227.46 372.45,227.82 374.25,228.07 375.79,228.36 377.58,228.62 379.25,228.87 381.05,229.04 382.59,228.8 385.15,228.87 
		386.31,227.98 388.1,227.72 389.51,227.21 390.41,226.18 391.44,225.13 391.82,224.05 392.59,223.02 393.62,222.05 394.39,221.11 
		395.42,219.89 396.31,218.92 397.34,218.03 398.49,216.91 399.52,215.74 400.42,214.61 401.57,213.58 402.86,212.45 403.75,211.33 
		404.78,210.27 405.93,209.17 406.7,208.14 407.47,207.07 407.86,205.71 407.86,204.5 408.12,203.09 408.24,201.81 408.24,200.56 
		408.24,199.29 408.5,198.09 408.88,196.68 409.01,195.39 409.4,194.06 409.65,192.64 409.4,191.37 407.86,190.9 406.06,191.21 
		404.52,191.16 403.24,191.07 401.57,190.9 400.29,190.65 398.62,190.29 396.95,190.1 395.42,189.85 393.62,189.7 392.21,189.49 
		390.67,189.36 389.13,189.16 387.33,188.85 385.79,188.53 384.26,188.21 382.46,187.95 380.92,187.7 379.12,187.44 377.33,187.35 
		375.53,187.06 373.86,187 372.33,186.8 370.53,186.57 368.86,186.54 367.19,186.54 365.4,186.38 363.73,186.13 361.93,185.98 
		360.52,185.77 358.73,185.59 357.32,185.35 355.78,185.2 353.85,184.95 352.31,184.71 350.77,184.57 348.72,184.41 347.05,184.32 
		345.64,184.9 344.62,185.9 343.85,187.06 343.46,188.29 343.08,189.62 342.57,190.78 341.92,191.93 341.28,193.12 340.13,193.85 
		338.59,193.91 337.05,194.15 335.89,195.33 335.51,196.46 335.12,197.57 334.87,199.05 334.48,200.46 334.23,201.88 333.84,203.09 
		333.71,204.28 333.46,205.45 333.07,206.58 332.94,207.76 332.69,208.99 332.56,210.21 332.17,211.33 331.92,212.58 331.53,213.99 
		331.4,215.15 331.15,216.3 331.02,217.59 330.76,218.82 330.51,219.98 330.12,221.27 330.38,222.54 331.92,223.08 333.71,223.32 
		335.25,223.27 336.79,223.7 338.59,224.05 340.38,224.29 341.92,224.64 343.72,224.9 345.26,225.13 347.18,225.08 348.72,224.59 
		350.13,224.38 351.67,224.51 353.21,224.51 353.85,223.23 354.11,221.84 354.49,220.48 355.65,219.64 356.42,218.48 357.19,217.2 
		357.96,215.98 358.34,214.8 359.37,213.61 360.65,213.53 362.45,213.99 363.99,214.25 365.4,214.51 366.94,214.8 368.35,215.02 
		370.14,215.15 371.68,215.34 373.48,215.49 374.76,215.66 376.56,215.83 378.1,215.88 378.35,215.92 	"/>
	
		<polyline opacity="0.125" fill="none" stroke="#000000" stroke-width="0.75" stroke-linecap="round" stroke-linejoin="round" stroke-miterlimit="10" points="
		217.72,170.76 216.35,170.69 214.95,171.44 213.75,172.24 212.43,172.88 211.03,173.42 209.27,173.61 207.99,174.37 208.33,175.68 
		209.48,176.63 209.63,177.83 208.66,178.82 207.86,179.83 206.68,180.77 205.29,181.4 203.87,181.91 202.4,182.49 201.2,183.28 
		199.79,183.91 198.5,184.5 197.26,185.22 196.12,186.09 194.71,186.76 193.28,187.17 192.04,187.97 190.63,187.53 190.18,188.72 
		190.17,189.9 190.06,191.39 190.4,192.53 190.72,193.83 190.58,195.02 189.73,196.04 189.66,197.6 189.54,198.82 189.11,200 
		188.86,201.38 188.54,202.62 188.18,203.8 187.78,205.28 187.64,206.46 187.54,207.71 187.23,208.93 186.99,210.13 186.73,211.43 
		186.39,212.74 185.82,214.02 185.62,215.38 185.68,216.91 185.72,218.07 185.64,219.45 185.66,220.97 185.55,222.43 184.8,223.67 
		184.05,224.8 183.6,226.09 183.4,227.37 183.3,228.81 182.9,230.26 182.6,231.58 182.5,233.07 182.46,234.22 182.47,235.71 
		182.55,237.15 182.4,238.32 181.46,239.51 181.2,240.74 181.18,242 181.31,243.25 181.52,244.45 181.26,245.91 180.78,247.35 
		180.38,248.64 180.28,249.95 179.58,251.04 179.04,252.43 178.68,253.93 178.09,255.16 177.92,256.43 177.75,257.76 177.3,259.11 
		176.89,260.6 176.78,262.01 176.65,263.2 178.14,263.28 179.64,263.69 181.14,263.97 182.03,263 182.13,261.84 182.46,260.61 
		182.76,259.28 182.95,257.95 183.03,256.65 183.55,255.39 183.72,254.18 183.71,252.86 184.06,251.66 184.54,250.5 184.64,249.21 
		184.87,247.92 184.99,246.64 185.35,245.47 185.51,244.33 185.71,243.09 185.92,241.88 186.14,240.64 186.14,239.34 186.39,238.15 
		186.51,236.93 186.85,235.67 186.81,234.44 186.98,233.26 187.25,232.13 187.63,230.85 188.07,229.73 188.25,228.43 188.46,227.17 
		188.73,225.95 188.79,224.6 188.99,223.4 189.5,222.28 189.91,221.01 190.39,219.74 190.54,218.46 190.58,217.3 190.75,216.01 
		191.13,214.73 191.57,213.51 191.52,212.31 191.63,211.13 192.08,210.03 192.31,208.73 192.33,207.49 192.33,206.26 192.39,205.03 
		193.02,203.8 193.2,202.64 193.69,201.47 194.07,200.24 194.34,199.05 194.88,197.87 194.94,196.61 195.15,195.42 195.39,194.24 
		195.58,192.94 195.98,191.76 196.2,190.47 196.46,189.27 196.69,187.98 196.98,186.72 197.35,185.55 196.74,184.44 195.7,183.46 
		194.75,182.39 193.12,182.31 191.62,181.91 190.45,182.68 189.71,183.78 189.12,184.96 187.9,185.62 186.72,186.53 185.13,186.97 
		183.65,187.02 182.15,187.24 182.24,188.4 183.95,189.49 184.53,190.6 186.1,191.57 186.03,191.51 184.14,190.15 183.09,189.1 
		183.04,188.67 183.32,187.49 184.8,187.52 186.09,186.59 187.49,186.02 188.52,185.09 189.72,184.26 189.99,182.91 190.36,181.54 
		190.93,180.36 192.56,180.64 193.83,181.33 195.4,181.17 196.64,180.51 198.01,179.72 199.12,178.56 200.25,177.72 201.75,177.73 
		203.2,177.43 204.54,176.86 206.09,176.37 207.4,175.81 208.68,175.15 209.84,174.28 211.04,173.6 212.02,172.74 213.17,171.91 
		214.44,171.3 215.48,171 	"/>
	
		<polyline opacity="0.125" fill="none" stroke="#000000" stroke-width="0.75" stroke-linecap="round" stroke-linejoin="round" stroke-miterlimit="10" points="
		218.19,173.97 218.26,174.02 216.78,174.81 215.35,175.43 213.77,175.99 212.53,176.78 211.4,177.56 210.02,178.36 208.72,179.4 
		207.64,180.48 206.24,181.44 204.81,182.34 203.4,183.04 201.9,183.59 200.36,183.98 198.87,184.53 197.87,185.47 196.69,186.29 
		195.21,186.75 193.62,187.24 192.31,188.18 191.25,189.07 190.9,190.56 190.49,191.69 190.09,192.8 189.81,194.07 189.56,195.28 
		189.04,196.72 188.61,198.16 188.4,199.68 188.16,201.19 187.96,202.62 187.63,203.94 187.39,205.16 187.36,206.35 187.1,207.82 
		186.89,209.07 186.76,210.56 186.48,212.07 186.25,213.25 185.96,214.71 185.6,216.12 185.17,217.5 184.76,218.82 184.5,220.13 
		184.44,221.45 184.4,222.86 184.33,224.35 183.96,225.76 183.71,227.25 183.64,228.69 183.65,230.18 183.32,231.54 182.86,233.04 
		182.83,234.52 182.44,235.94 182.05,237.24 181.79,238.53 181.61,239.85 181.31,241.07 180.67,242.24 180.29,243.5 179.97,244.69 
		179.61,246.06 179.28,247.44 179.1,248.69 178.6,249.78 178.5,251.12 178.31,252.29 177.73,253.7 177.27,255.02 176.97,256.34 
		176.79,257.78 176.75,259.28 176.62,260.69 176.3,262.09 176.07,263.48 177.45,264.21 179.02,264.42 180.52,264.63 181.94,265.05 
		183.76,265.32 185.66,265.64 187.44,265.59 189.03,265.23 190.74,265.47 192.21,265.83 193.94,266.37 195.75,266.46 197.3,266.72 
		198.84,266.79 200.64,267.24 202.43,267.64 203.92,267.64 205.4,267.7 206.89,267.54 208.54,267.81 209.72,266.96 210.13,265.56 
		210.57,264.24 210.67,262.82 210.21,261.48 210.28,260.02 210.44,258.8 210.99,257.67 211.44,256.56 211.57,255.3 211.66,253.99 
		211.99,252.84 212.52,251.44 212.67,249.92 212.91,248.78 213.24,247.35 213.41,246.13 213.26,244.87 213.31,243.49 213.56,242.25 
		214.08,241.15 214.94,240.1 215.56,238.7 215.58,237.51 215.61,236.26 215.76,235.07 216.16,233.77 216.4,232.36 216.43,230.84 
		216.74,229.39 216.93,228.23 217.07,226.71 217.26,225.24 217.76,223.9 218.17,222.72 218.44,221.31 218.74,219.96 219.02,218.5 
		219.14,217.33 219.57,215.89 220.07,214.66 220.47,213.33 220.5,212.13 220.3,210.97 220.56,209.53 220.85,208.02 220.83,206.8 
		221.05,205.35 220.92,204.41 	"/>
	
		<polyline opacity="0.125" fill="none" stroke="#000000" stroke-width="0.75" stroke-linecap="round" stroke-linejoin="round" stroke-miterlimit="10" points="
		217.81,173.62 216.57,174.36 215.15,174.66 213.79,175.18 212.4,175.81 211.4,176.68 209.96,177.65 208.72,178.55 207.6,179.62 
		206.36,180.48 204.81,180.82 203.14,181.08 201.46,181.35 200.24,182.21 198.97,183.01 197.93,183.96 196.85,184.87 195.61,185.72 
		194.37,186.77 193.21,187.56 192.03,188.61 190.68,189.08 189.8,190.16 188.79,191.3 188.44,192.43 188.71,193.74 188.91,194.91 
		189.04,196.23 189.05,197.6 188.79,198.88 188.57,200.15 188.53,201.4 188.3,202.77 188.3,204.18 188.17,205.62 188.12,206.8 
		188,208.08 187.7,209.3 187.37,210.45 187.12,211.76 186.86,213.1 186.75,214.49 186.26,215.61 185.95,217.01 185.72,218.41 
		185.4,219.74 185.28,221.11 185.09,222.36 184.24,223.41 183.76,224.56 183.3,225.81 182.76,226.92 182.71,228.34 182.9,229.79 
		182.9,231.09 182.78,232.41 182.51,233.67 182.1,235.01 181.77,236.33 181.47,237.58 181.41,238.94 180.95,240.28 180.88,241.66 
		180.58,242.83 180.43,243.99 180.22,245.2 179.92,246.37 179.73,247.65 179.36,249.1 178.86,250.49 178.11,251.62 177.92,252.79 
		177.8,253.94 177.52,255.08 177.47,256.33 177.61,257.57 177.91,258.84 177.79,260.15 177.21,261.51 176.84,262.62 176.64,263.79 
		178.06,264.34 179.54,264.43 181.31,264.48 183.05,264.45 184.51,264.46 186.01,264.61 187.71,264.92 188.23,263.84 188.54,262.56 
		188.91,261.29 188.97,260.12 189.03,258.76 189.29,257.15 189.45,255.85 189.93,254.5 190.23,253.11 190.74,251.93 191.04,250.78 
		191.3,249.54 191.35,248.21 191.62,246.88 191.84,245.58 192.44,244.37 192.17,243.19 192.45,241.68 192.54,240.32 192.39,239.09 
		192.39,237.7 192.29,236.29 192.27,234.86 192.11,233.49 192.39,232.32 192.99,231.03 193.36,229.62 193.9,228.31 194.53,227.23 
		195.1,226.1 195.37,224.92 195.58,223.64 196.07,222.28 196.46,220.99 196.38,219.65 196.17,218.45 196.39,217.03 196.51,215.76 
		197.47,214.57 198.37,213.61 198.64,212.4 198.93,211.17 198.87,209.67 198.78,208.31 199.06,206.86 199.34,205.4 199.89,204 
		200.28,202.62 200.29,201.14 200.25,199.84 200.23,198.51 200.2,197.31 200.41,196.06 200.43,194.8 200.92,193.48 201.06,192.28 
		201.2,191.05 201.46,189.89 201.45,188.4 201.24,187.08 201.42,185.93 201.9,184.53 202.55,183.17 202.77,181.83 201.24,182.07 
		200.39,183.03 199.15,183.9 197.97,185.14 197,186.03 195.87,187.16 194.38,187.84 192.75,188.38 191.38,189.21 190.12,189.94 
		189.11,190.93 189.04,192.38 189.23,193.66 189.44,194.83 189.47,196 189.35,197.42 189.44,198.68 189.2,199.88 188.79,201.01 
		188.26,202.3 188.63,203.77 188.66,205.18 188.31,206.37 187.81,207.62 187.59,209.04 187.32,210.59 186.8,211.89 186.46,213.21 
		186.27,214.52 185.92,215.84 185.77,217.03 185.6,218.3 185.51,219.59 185.07,220.86 184.82,222.29 184.13,223.53 184.15,224.87 
		183.67,226.22 183.22,227.53 183.04,228.95 182.79,230.45 182.27,231.88 182.15,233.39 181.63,234.71 180.81,236.11 180.5,237.44 
		180.31,238.78 180.33,240.05 180.4,241.41 180.4,242.69 180.06,244.11 179.84,245.26 179.6,246.59 179.23,247.91 179.07,249.13 
		178.9,250.28 178.59,251.75 178.2,253.23 177.87,254.49 177.98,255.68 177.72,256.89 177.51,258.06 177.09,259.44 176.62,260.87 
		176.39,262.33 177.5,263.18 179.15,263.46 180.77,263.74 182.26,264.14 183.94,264.3 	"/>
	
		<polyline opacity="0.125" fill="none" stroke="#000000" stroke-width="0.75" stroke-linecap="round" stroke-linejoin="round" stroke-miterlimit="10" points="
		246.47,185.4 246.47,187.75 246.32,189.04 246.05,190.4 245.48,191.61 245.42,192.78 245.37,194.02 245.48,195.57 245.3,197.05 
		245.05,198.31 244.46,199.68 243.88,200.79 243.5,201.94 243.5,203.19 243.29,204.6 243.25,206.03 243.27,207.48 243.06,208.91 
		242.88,210.18 242.39,211.48 241.76,212.8 241.62,214.03 241.37,215.34 240.9,216.73 240.53,218 240.15,219.19 239.7,220.43 
		239.63,221.68 239.4,222.99 239.29,224.19 238.9,225.39 238.52,226.8 238.66,227.96 238.49,229.27 237.94,230.58 237.62,231.84 
		237.9,233.12 237.6,234.48 237.21,235.62 237.35,236.8 237.08,238.15 236.98,239.32 236.58,240.53 236.22,241.73 235.89,242.98 
		235.99,244.27 235.63,245.52 235.54,246.72 235.07,248.12 234.77,249.26 234.56,250.4 234.08,251.89 233.67,253.2 233.72,254.45 
		233.46,255.65 233.22,256.92 232.98,258.13 233.23,259.55 232.71,260.83 232.26,262.53 232.34,263.89 232.02,265.16 231.34,266.41 
		230.99,267.63 230.4,268.87 229.15,269.73 227.83,268.96 226.23,269.06 224.61,269.12 223.01,269.09 221.41,269.05 219.98,268.67 
		218.3,268.44 216.67,268.14 214.81,268 213.33,267.86 211.86,267.67 210.25,267.47 208.77,267.18 207.28,267.2 205.49,267.05 
		203.7,266.9 202.06,266.75 200.43,266.5 198.62,266.33 197.1,266.29 195.43,265.96 193.78,265.74 192.33,265.05 190.74,264.64 
		189.36,265.15 187.22,265.4 185.62,265.61 183.91,265.33 182.35,265.05 180.73,264.72 179.05,264.46 177.48,264.16 176.64,262.97 
		176.89,261.51 177.57,260.25 178,258.6 178.04,257.43 178.11,256.21 178.09,254.71 178.29,253.25 178.54,252.11 178.78,250.84 
		179.02,249.6 179.07,248.4 179.36,247.19 179.66,246.03 179.92,244.56 180.36,243.27 180.63,242.02 180.88,240.62 180.9,239.42 
		181.02,238.11 181.28,236.62 181.78,235.17 182.18,233.7 182.41,232.47 182.72,231.12 182.99,229.81 183.23,228.59 183.56,227.21 
		183.86,225.96 183.95,224.76 184.24,223.37 184.55,221.95 184.6,220.77 184.8,219.34 184.82,218.19 184.72,216.78 185.09,215.3 
		185.41,214.17 185.78,212.9 185.96,211.74 186.03,210.26 186.54,208.88 186.77,207.64 186.93,206.44 187.67,205.1 188.18,203.99 
		188.35,202.76 188.62,201.44 188.88,199.95 189.08,198.58 189.43,197.06 189.67,195.61 189.85,194.2 190.4,192.96 191.08,191.69 
		191.45,190.34 191.13,189.2 190.12,190.58 189.56,191.94 189.61,193.15 189.36,194.51 189.25,195.82 189.31,196.96 189.23,198.13 
		189.44,199.28 189.09,200.59 188.2,201.76 187.85,203.18 187.1,204.5 187.07,205.75 187.07,207.32 187.13,208.81 186.78,210.08 
		186.67,211.48 186.35,212.69 185.91,213.89 185.39,215.08 185.3,216.33 185.13,217.77 184.95,218.96 184.9,220.28 184.58,221.68 
		184.13,223.11 183.8,224.53 183.37,225.73 183,226.96 182.63,228.31 182.28,229.7 182.49,230.95 182.28,232.54 181.82,233.88 
		181.5,235.03 181.52,236.21 181.24,237.46 180.99,238.71 180.96,239.97 180.76,241.3 180.4,242.59 180.2,243.93 179.72,245.26 
		178.9,246.42 178.46,247.85 178.64,249.39 178.23,250.82 178.1,252.29 177.97,253.63 177.63,254.9 177.07,256.09 177.05,257.4 
		177.01,258.97 176.55,260.08 176.07,261.46 175.57,262.55 175.59,263.8 176.79,264.54 178.48,264.7 180.08,264.48 181.83,264.36 
		183.63,264.61 185,265.02 186.64,265.2 188.21,265.1 189.67,265.2 191.34,265.15 193.25,265.41 194.76,265.74 196.38,265.78 
		198.05,266.11 199.84,266.59 201.43,266.68 203.34,266.95 205.12,266.9 206.87,267.24 208.39,267.95 210.04,268.28 211.94,268.33 
		213.48,268.42 214.97,268.49 216.78,268.61 218.35,268.72 220.02,268.7 221.48,268.91 223.15,268.95 224.95,269.04 226.47,269.09 
		228.14,269.51 229.4,270.17 230.77,269.68 230.78,268.37 230.96,267.15 231.16,265.86 231.39,264.54 231.49,263.36 231.6,261.96 
		231.9,260.56 232.3,259.3 232.72,258.08 233.08,256.84 233.22,255.39 233.34,253.94 233.82,252.53 234.13,251.35 234.8,249.91 
		235.27,248.54 235.56,247.22 236.04,245.77 236.12,244.41 235.75,242.98 236.07,241.7 236.31,240.29 236.81,239.06 237.2,237.93 
		236.97,236.66 237.6,235.48 238.11,234.33 238.61,233.16 238.93,231.89 239.06,230.59 239.21,229.18 239.1,227.87 239.12,226.71 
		239.46,225.49 239.43,224.2 239.33,222.87 239.61,221.55 239.92,220.2 239.85,218.77 240.03,217.37 240.74,216.35 240.97,215.2 
		241.21,214.03 241.29,212.84 241.3,211.52 241.66,210.29 242.21,209.06 242.89,207.61 242.98,206.4 243.19,204.91 243.23,203.73 
		243.01,202.49 243.2,201.08 243.78,199.61 244.46,198.07 244.83,196.82 244.7,195.57 244.45,194.12 244.71,192.79 244.95,191.46 
		245.32,190.33 245.37,188.97 245.82,187.74 	"/>
	
		<polyline opacity="0.125" fill="none" stroke="#000000" stroke-width="0.75" stroke-linecap="round" stroke-linejoin="round" stroke-miterlimit="10" points="
		196.44,185.97 195.16,186.34 193.88,186.9 192.47,187.57 190.93,187.88 189.43,187.83 188.86,189.08 188.48,190.34 188.02,191.51 
		188.13,192.71 188.11,193.94 188.21,195.38 188.29,196.78 188.08,198.06 188.23,199.31 188.07,200.49 188.2,201.87 187.82,203.06 
		187.32,204.35 187.25,205.76 187.32,207.08 187.4,208.5 186.96,209.75 186.51,210.88 185.9,212.01 185.71,213.29 185.66,214.47 
		185.19,215.65 185.09,216.88 184.86,218.05 184.82,219.24 184.5,220.57 184.22,221.73 184.22,222.99 184.22,224.29 183.86,225.56 
		183.8,226.98 184.04,228.18 183.94,229.46 183.72,230.68 183.56,232.07 183.05,233.25 182.69,234.44 182.27,235.69 181.85,237.05 
		181.42,238.43 180.78,239.73 180.38,241.06 180.38,242.25 180.08,243.5 180.04,244.72 179.78,246.14 179.34,247.5 178.79,248.81 
		178.57,250.21 178.42,251.4 177.92,252.62 178.07,253.99 178.05,255.33 177.93,256.76 177.83,257.93 177.39,259.16 176.74,260.48 
		176.19,261.65 176.18,263.07 176.11,264.38 177.61,264.84 179.27,264.73 180.9,264.39 182.51,264.3 184,264.32 185.86,264.5 
		187.61,264.59 189.09,264.65 190.83,264.66 192.34,265 193.94,265.23 195.56,265.38 197.16,265.73 198.74,265.95 200.33,266.22 
		201.82,266.55 203.24,266.84 205,267.13 206.73,267.23 208.23,267.38 209.76,267.37 211.46,267.37 213.06,267.68 214.77,267.78 
		216.44,268.11 218.06,268.1 219.55,268.42 221.07,268.5 222.6,268.44 224.1,268.78 225.65,268.97 227.47,269.18 229.19,269.58 
		230.72,269.27 230.95,267.99 231.22,266.59 231.48,265.2 231.8,264.04 232,262.84 232.13,261.59 232.34,260.37 232.44,259.06 
		232.59,257.83 232.89,256.68 233.45,255.4 233.62,254.22 234.23,252.94 234.27,251.68 234.26,250.37 234.38,248.99 234.25,247.82 
		234.31,246.47 234.56,245.26 234.86,244 234.98,242.77 235.11,241.56 235.34,240.32 235.65,239.05 236.02,237.65 236.39,236.37 
		236.7,234.95 236.89,233.53 237.04,232.12 237.52,230.71 237.88,229.39 238.08,228.1 238.22,226.66 238.51,225.47 238.99,224.29 
		239.29,223.08 239.81,221.92 240.01,220.63 240.22,219.34 240.65,218.05 240.93,216.78 241.2,215.64 241.43,214.4 241.41,213.19 
		241.6,211.89 241.3,210.63 241.2,209.48 241.83,208.2 241.78,206.85 241.57,205.5 241.89,204.31 242.23,203.04 242.41,201.65 
		243.1,200.4 243.84,199.06 244.19,197.72 244.83,196.3 244.86,194.92 244.97,193.76 245.27,192.34 245.66,191.21 246.05,190.1 
		246.31,188.71 246.51,187.34 246.64,186 245.29,185.18 243.61,185.12 242.15,185 240.4,184.98 238.79,184.54 237.06,184.27 
		235.4,183.98 233.76,183.8 231.87,183.95 229.99,184.04 228.22,183.69 226.46,183.55 224.72,183.39 222.93,183.26 221.55,182.55 
		221.15,181.09 220.3,179.76 220.21,178.28 220.56,176.81 220.8,175.41 220.92,173.96 220.41,172.86 219.05,173.38 217.76,174.27 
		216.43,175.1 215.04,175.84 213.72,176.75 212.52,177.59 211,178.44 209.48,179.17 207.89,179.95 206.42,180.67 205.26,181.42 
		203.83,182.35 202.37,183.1 200.83,183.67 199.48,184.37 198.12,185.17 196.74,185.85 195.38,186.48 194.08,187.07 192.53,187.83 
		191.2,188.75 189.71,189.13 189.04,190.26 188.88,191.56 188.66,192.92 188.76,194.42 188.93,195.89 189.04,197.27 188.97,198.45 
		188.76,199.77 188.18,200.96 187.94,202.35 187.72,203.57 187.5,205.07 187.04,206.22 186.45,207.52 186.18,208.81 185.42,210.11 
		184.87,211.47 184.14,212.81 184.41,213.96 184.63,215.42 184.51,216.75 184.12,218.02 184.18,219.42 184.06,220.68 183.91,221.99 
		183.53,223.29 183,224.58 182.6,225.85 182.51,227.16 182.29,228.48 182.03,229.64 181.99,230.91 181.79,232.08 181.94,233.45 
		181.6,234.7 181.32,236.16 181.08,237.57 180.88,239.01 180.78,240.34 180.23,241.69 179.84,243 179.63,244.31 179.4,245.59 
		179.07,247.01 178.57,248.37 178.16,249.58 177.7,250.69 177.25,251.91 176.93,253.35 176.92,254.65 176.97,255.99 176.88,257.43 
		177.05,258.8 177.12,259.97 177.15,261.14 177.06,262.35 176.73,263.53 177.61,264.72 179.22,265.02 181.06,265.02 182.56,265.13 
		184.22,265.31 185.91,265.47 187.54,265.57 189.17,265.72 190.91,265.77 192.71,265.65 194.57,265.79 196.3,265.86 198.06,265.96 
		199.83,266.32 201.65,266.72 203.43,267.06 205.29,267.18 207.21,267.47 208.98,267.41 210.55,267.64 212.31,267.92 213.99,268.14 
		215.62,268.23 217.29,268.28 218.83,268.5 220.42,268.7 222.1,269.17 223.87,269.59 225.63,269.56 227.44,269.54 229.37,269.82 
		230.44,268.82 230.77,267.69 231.17,266.22 231.36,264.93 231.43,263.77 231.51,262.48 231.81,261.06 232.17,259.88 232.57,258.72 
		232.71,257.44 233.21,256.22 233.59,255.03 233.68,253.55 233.81,252.05 234.02,250.89 234.12,249.64 234.29,248.27 234.29,246.92 
		234.59,245.51 234.95,244.11 235.21,242.54 235.57,241.41 236.2,240.14 236.21,238.79 236.34,237.39 236.56,235.92 236.86,234.45 
		237.12,233.18 237.45,231.85 237.2,230.5 237.52,229.3 237.54,228.1 237.58,227.45 	"/>
	
		<polyline opacity="0.125" fill="none" stroke="#000000" stroke-width="0.75" stroke-linecap="round" stroke-linejoin="round" stroke-miterlimit="10" points="
		217.87,174.36 211.71,178.91 210.28,179.17 208.64,179.6 207.07,180.23 206.03,181.13 204.69,181.68 203.29,182.32 201.83,183.13 
		200.64,184.04 199.83,185.26 198.44,186.14 196.91,186.52 195.56,187.22 193.92,187.8 192.66,188.42 191.22,189.22 190.5,190.49 
		189.77,191.78 189.25,193.06 188.91,194.33 188.58,195.53 188.14,196.64 188.11,198 188.2,199.33 188.9,200.38 189.13,201.69 
		188.95,202.9 188.94,204.16 189.02,205.55 188.18,206.78 188.67,208.03 187.85,209.25 186.81,210.42 186.21,211.63 186.68,212.76 
		186.27,213.96 185.76,215.2 185.54,216.42 185.16,217.71 185.24,218.88 185.9,220.16 185.92,221.34 185.57,222.69 185.21,223.96 
		184.48,225.14 184.33,226.33 184.01,227.54 183.67,228.77 183.47,229.96 183.1,231.09 182.47,232.54 181.85,233.97 181.18,235.06 
		180.99,236.28 180.69,237.48 180.72,238.69 180.86,240.05 181.31,241.19 181.04,242.56 180.45,243.7 179.81,245.1 179.83,246.38 
		179.81,247.74 179.31,248.9 178.77,250.16 178.68,251.45 179.15,252.72 178.9,253.91 179.01,255.31 178.86,256.53 178.75,257.85 
		178.75,259.08 178.51,260.39 178.39,261.56 178.1,262.96 177.73,264.28 178.79,265.24 180.45,265.66 182.17,265.65 183.69,265.87 
		185.39,265.96 186.91,266.38 188.17,267.2 189.86,267.14 191.53,266.84 192.99,267 194.72,266.95 196.43,266.81 198.06,266.81 
		199.7,266.88 201.4,267.13 202.92,267.27 204.67,267.6 206.19,267.72 207.96,267.65 209.41,267.82 210.68,268.47 212.4,268.9 
		213.89,268.91 215.49,269.04 216.98,269.49 218.61,270.05 220.39,270.32 221.93,270.53 223.72,270.42 225.33,270.54 227.03,270.45 
		228.55,270.77 230.13,271.03 231.03,269.99 231.05,268.7 231.22,267.52 231.36,266.16 231.99,264.65 232.61,263.25 232.89,261.85 
		232.95,260.51 233.26,259.2 233.46,257.93 233.62,256.54 233.73,255.12 233.81,253.94 234.11,252.61 234.31,251.4 234.77,250.25 
		234.82,248.76 234.91,247.56 235.06,246.4 235.63,245.26 235.65,244.06 235.75,242.78 236.09,241.63 236.17,240.39 236.35,239.1 
		236.75,237.83 237.03,236.42 237.02,234.88 237.26,233.61 237.42,232.4 237.65,231.07 237.9,229.89 237.71,228.41 237.84,227.17 
		238.34,225.82 238.72,224.54 239.26,223.28 239.39,222.09 239.89,220.92 240.2,219.47 240.97,218.32 241.39,217.12 241.7,215.98 
		241.75,214.65 242.05,213.19 242.19,211.79 242.2,210.35 242.26,209.08 242.76,207.98 242.71,206.7 242.48,205.48 242.55,204.32 
		242.78,203.18 242.93,201.91 243.37,200.4 243.82,199.22 244.09,197.9 244.37,196.55 244.62,195.36 244.77,194.05 244.79,192.76 
		245.25,191.53 245.57,190.15 245.97,189.02 246.28,187.65 246.11,186.44 244.5,186.21 242.87,186.17 241.17,185.88 239.69,185.59 
		238.1,185.54 236.43,185.27 234.84,184.71 233.32,183.96 231.85,183.4 230.19,183.48 228.42,183.34 226.72,183.07 225.14,182.78 
		223.47,182.6 221.87,182.45 220.64,181.73 219.38,180.73 219.56,179.58 219.73,178.32 220.07,177 220.43,175.77 220.78,174.55 
		221.01,173.3 220.8,173.11 	"/>
	
		<polyline opacity="0.125" fill="none" stroke="#000000" stroke-width="0.75" stroke-linecap="round" stroke-linejoin="round" stroke-miterlimit="10" points="
		218.99,173.41 217.53,174.47 216.17,175.36 214.77,175.82 213.27,176.67 211.59,177.41 210.34,178.06 209.13,178.7 207.59,179.47 
		206.04,180.1 204.68,180.99 203.47,182.03 201.92,182.63 200.36,183.41 198.88,184.11 197.26,184.99 196.06,185.66 194.8,186.34 
		193.76,187.27 192.4,188.2 191.11,188.76 190.49,190.1 189.9,191.37 189.48,192.73 189.47,193.89 189.57,195.33 189.57,196.75 
		189.36,198.15 189.76,199.51 189.91,200.92 189.77,202.35 189.36,203.74 188.84,204.92 188.3,206.22 187.84,207.45 187.77,208.79 
		187.54,210.13 187.31,211.47 187.22,212.81 186.82,214.2 186.77,215.55 186.54,216.76 186.23,218.02 185.94,219.23 185.72,220.41 
		185.32,221.9 185.08,223.32 184.76,224.77 184.35,226.1 184.04,227.26 183.42,228.5 182.97,229.72 182.37,230.82 182.24,232.17 
		182.35,233.56 182.05,234.92 181.7,236.21 180.95,237.52 180.55,238.88 180.01,240.15 179.68,241.45 179.91,242.81 179.65,244.13 
		179.84,245.58 179.43,246.9 179.04,248.18 178.92,249.4 178.57,250.58 178.06,251.71 177.68,252.94 177.39,254.27 177.14,255.63 
		176.98,256.81 177,258.07 176.86,259.42 176.38,260.7 176.2,262 176.16,263.29 177.59,263.95 179.33,263.96 180.82,264.21 
		182.28,264.25 184.21,264.36 186.07,264.46 187.71,264.72 189.36,264.78 191.09,264.98 192.51,265.31 194.38,265.29 195.79,265.61 
		197.59,265.87 199.07,266.11 200.36,266.66 202.04,266.93 203.81,267.19 205.59,267.52 207.15,267.59 208.69,267.73 210.34,267.87 
		212.11,267.88 213.99,267.9 215.65,268.09 217.21,268.36 218.74,268.76 220.55,268.67 222.36,268.91 223.97,269.18 225.69,269.62 
		227.47,269.68 229.14,269.83 230.67,269.6 230.73,268.45 230.76,267.23 230.92,265.9 231.37,264.61 232.02,263.42 232.21,261.97 
		232.04,260.7 232.16,259.25 232.62,257.84 232.89,256.39 233.18,254.91 233.29,253.57 233.93,252.27 234.45,251.03 234.94,249.62 
		235,248.35 235.23,247.17 235.44,245.95 235.61,244.76 235.61,243.31 235.62,241.89 235.44,240.57 235.7,239.16 236.21,237.93 
		236.57,236.49 237.67,235.28 238.03,234.15 238.02,232.98 237.99,231.54 238.21,230.12 238.6,228.82 238.8,227.44 238.98,226 
		239.12,224.53 239.06,223.37 239.38,222.22 239.53,220.82 239.63,219.55 239.7,218.38 240.12,217.15 240.26,215.97 240.35,214.74 
		240.74,213.31 241.34,211.97 241.73,210.85 242.29,209.79 242.6,208.41 242.7,207.14 242.79,205.72 242.79,204.33 242.97,203.18 
		243.16,201.91 243.33,200.7 243.61,199.45 244.06,198.13 244.07,196.8 244.38,195.33 244.8,193.96 244.88,192.65 245.13,191.33 
		244.97,189.98 245.29,188.61 245.86,187.13 245.96,185.94 244.73,185.23 242.94,185.29 241.29,185.26 239.62,185.13 237.86,184.85 
		236.26,184.8 234.79,184.5 233.17,184.37 231.36,184.02 229.85,183.81 228.31,183.68 226.42,183.45 224.75,183.27 223.01,182.91 
		221.56,182.01 220.53,180.85 220.44,179.35 220.37,177.95 220.66,176.61 220.64,175.45 220.85,174.22 220.34,173.12 218.74,173.51 
		217.05,174.05 216.17,174.97 214.81,175.79 213.4,176.54 212.35,177.41 211.26,178.22 209.84,179.1 208.55,179.81 206.99,180.68 
		205.41,181.35 204.1,182.05 202.58,182.77 201.43,183.54 199.95,184.39 198.46,185.07 197.02,185.75 195.42,186.43 194.13,187.16 
		192.86,187.85 191.61,188.84 191.43,190.19 190.77,191.43 190.56,192.74 190.32,194.07 189.84,195.34 189.66,196.69 189.48,197.96 
		188.95,199.29 188.7,200.68 188.43,202.17 187.46,203.39 187.49,204.62 187.85,206.1 187.44,207.41 187.18,208.56 186.89,209.79 
		186.68,211.27 186.37,212.63 186.32,214.1 186.14,215.56 185.95,216.92 185.39,218.12 185,219.29 185.18,220.69 185.14,221.9 
		185.03,223.13 184.86,224.59 184.31,225.94 183.73,227.19 183.56,228.54 183.55,229.84 183.45,231.21 183.18,232.71 182.99,234.13 
		182.4,235.21 181.97,236.64 181.36,237.91 181.13,239.14 181.02,240.5 180.61,241.84 179.91,243.19 179.43,244.64 179.1,246.01 
		178.82,247.31 178.59,248.62 178.22,249.78 178.09,251.14 177.98,252.41 177.96,253.67 177.91,255.03 177.73,256.35 177.96,257.69 
		177.69,258.89 177.18,260.2 177.07,261.52 177.07,262.91 178,263.93 179.72,263.82 181.29,264.07 182.95,264.15 184.65,264.51 
		186.49,264.75 188.45,264.83 190.21,265.19 191.68,265.68 193.28,265.92 194.88,266.22 196.58,266.27 198.07,265.86 199.73,265.18 
		201.46,264.88 202.92,265.06 204.37,265.32 205.81,265.57 207.42,266.16 209.09,266.5 210.7,267.09 212.16,267.36 213.92,267.04 
		215.75,266.38 217.44,266.46 219.11,266.75 220.69,267.28 222.32,267.86 223.83,268.05 225.61,268.46 227.46,268.72 229.14,269.01 
		230.31,268.06 230.42,266.81 230.55,265.57 230.99,264.28 230.94,262.83 231.27,261.53 231.67,260.21 232.22,258.98 232.69,257.84 
		233.12,256.54 233.54,255.3 233.67,254 233.8,252.85 234.07,251.55 234.47,250.22 234.66,248.81 234.7,247.4 234.68,246.14 
		234.98,244.84 235.48,243.61 235.82,242.46 236.29,241.14 236.29,239.66 236.31,238.43 236.35,237.02 236.59,235.6 237.07,234.48 
		237.34,233.24 237.79,231.98 237.58,230.61 237.43,229.16 237.52,227.84 237.74,226.44 238.07,225.05 238.48,223.74 238.89,222.47 
		239.76,221.38 240.33,220.2 240.38,218.86 240.62,217.59 240.53,216.35 240.48,215.02 240.79,213.74 240.9,212.52 241.03,211.36 
		241.44,210.06 242.05,208.82 242.6,207.49 243.2,206.12 243.29,204.68 243.43,203.18 244.05,201.76 244.09,200.32 244.06,199.01 
		244.36,197.51 244.29,196.06 244.41,194.69 244.91,193.24 245.15,192.08 245.69,190.89 245.98,189.72 246.16,188.56 246.52,187.27 
		246.68,185.9 246.69,184.44 244.97,183.9 243.39,183.87 241.56,183.89 239.78,183.82 237.97,183.99 236.33,184.09 234.72,184.09 
		232.94,184.03 231.07,183.75 229.32,183.4 227.54,183.39 225.78,183.5 224.05,183.31 222.75,182.71 221.3,182.22 219.5,182.14 
		218.89,180.8 219.11,179.65 219.43,178.18 219.91,176.81 220.09,175.52 220.53,174.38 220.2,173.23 218.7,173.38 217.01,174.16 
		215.39,174.65 214.06,175.47 212.97,176.38 211.54,177.14 210.26,178.31 209.09,179.23 207.55,180.13 206.24,180.73 204.74,181.26 
		203.88,182.36 202.36,182.84 200.81,183.49 199.65,184.26 198.19,185.21 196.92,186.14 195.38,186.8 193.9,187.3 192.54,187.99 
		191.18,188.85 190.9,190.34 190.5,191.67 190.18,193.03 189.68,194.21 189.27,195.52 189.26,196.86 189.3,198.1 188.89,199.25 
		188.72,200.49 188.44,202.1 188.2,203.24 187.78,204.39 187.59,205.86 187.5,207.21 187.18,208.48 186.98,209.94 186.73,211.29 
		186.5,212.65 	"/>
	
		<polyline opacity="0.125" fill="none" stroke="#000000" stroke-width="0.75" stroke-linecap="round" stroke-linejoin="round" stroke-miterlimit="10" points="
		218.3,173.74 217.39,174.82 215.98,175.81 214.47,176.52 213.15,177.31 211.88,178.23 210.49,178.83 209.07,179.32 207.87,180.39 
		206.82,181.44 205.9,182.39 204.58,183.25 202.75,183.71 201.16,184.28 199.45,185.02 198.23,185.7 196.71,186.4 195.12,187 
		193.75,187.41 192.43,188 191.66,189.08 190.52,189.99 190.34,191.26 190.27,192.74 189.95,193.98 189.66,195.15 189.31,196.5 
		189.38,197.81 189.05,199.09 188.64,200.41 188.59,201.63 188.41,202.92 187.19,203.69 187.05,205 187.18,206.3 186.86,207.45 
		186.63,208.59 186.31,209.91 186.19,211.31 185.87,212.57 185.89,213.84 185.89,215.14 185.26,216.52 185.04,217.79 184.8,218.98 
		183.9,220.29 183.23,221.54 184,222.85 183.9,224.1 183.69,225.32 183.56,226.67 183.3,227.93 182.88,229.26 182.59,230.7 
		182.28,231.86 181.88,233.36 181.31,234.51 180.61,235.71 180.79,237.03 180.55,238.42 180.34,239.62 180,240.95 179.83,242.19 
		179.92,243.6 179.59,244.96 179.52,246.19 179.16,247.36 178.95,248.68 178.78,249.99 178.28,251.27 178.19,252.76 177.72,254.08 
		177.33,255.29 177.89,256.51 177.48,257.88 177.28,259.26 177.12,260.41 176.78,261.53 176.45,262.86 176.52,264.2 177.77,264.91 
		179.25,264.95 180.78,265.09 180.81,266.33 180.79,267.83 179.59,268.7 177.88,268.56 176.24,268.47 174.44,269.35 172.9,270.1 
		171.06,269.73 169.38,270.01 168.49,271.1 168.11,272.6 167.71,273.76 167.56,274.91 166.86,276.03 166.77,277.47 166.16,278.67 
		166.04,280.17 165.61,281.55 165.45,282.74 165.13,283.89 164.3,285.21 164.52,286.56 164.23,287.92 163.82,289.52 163.68,290.91 
		163.58,292.19 163.18,293.53 162.9,294.91 163.48,296.12 163.09,297.41 162.86,298.86 162.58,300.29 161.56,301.22 161.28,302.48 
		161.13,303.87 160.87,305.26 159.74,306.3 158.9,307.66 158.23,308.7 157.88,309.98 156.61,310.92 156.52,312.23 156.6,313.49 
		155.95,314.86 155.1,315.94 154.21,317 152.78,318.25 151.57,318.96 150.08,319.52 148.92,320.22 147.56,321.26 146.13,321.97 
		145.34,320.79 144.67,319.7 143.81,318.67 142.89,317.71 141.69,316.63 140.18,316.08 138.46,316.53 136.78,317.1 135.08,317.81 
		133.42,318.54 131.78,318.57 130.35,317.91 129.35,316.8 128.56,315.38 127.92,314.27 127.16,313.19 125.99,311.99 124.57,310.93 
		122.85,310.33 121,310.39 119.49,310.59 118.01,310.54 116.22,310.22 114.4,309.77 112.87,309.48 111.37,309.42 109.87,309.37 
		108.39,309.29 106.52,309.37 104.7,309.72 103.29,310.1 101.9,310.57 100.44,310.92 99,311.23 97.53,311.32 95.62,311.46 
		93.77,311.84 91.95,311.83 90.69,310.82 90.64,309.66 90.76,308.48 90.81,307.14 90.68,305.98 90.46,304.81 90.34,303.63 
		90.49,302.22 90.74,300.84 91.35,299.76 91.95,298.64 92.64,297.28 93.19,295.93 94.17,294.96 95.1,293.76 94.86,292.55 
		94.09,291.27 93.28,290.02 92.54,288.87 92.35,287.7 92,286.28 91.61,284.8 90.77,283.56 89.83,282.34 89.36,281.25 88.96,280.1 
		88.47,278.74 87.74,277.36 86.86,276.04 86.23,274.93 85.33,273.59 84.65,272.57 83.87,271.19 82.85,269.92 81.84,268.7 
		81.04,267.73 80.33,266.7 79.63,265.66 78.7,264.72 77.79,263.77 76.73,262.56 75.9,261.38 75.11,260.16 74.4,258.84 74.86,257.74 
		76.3,258.08 77.53,258.7 78.2,259.83 79.21,260.85 80.25,261.88 81.17,262.91 82.08,263.96 83.02,265.05 83.97,266.28 
		85.15,267.31 86.3,268.37 86.82,269.82 87.05,271.1 87.47,272.33 87.86,273.62 88.37,274.73 89,275.88 90.1,277.26 90.82,278.36 
		91.67,279.63 92.26,280.72 93,281.74 93.83,282.83 94.53,283.93 95.46,285.09 96.69,285.75 98.18,286.15 99.68,286.98 
		101.07,287.42 102.86,287.78 104.75,288.1 106.26,288.32 107.68,288.63 109.07,289.04 110.37,289.87 111.18,290.9 112.22,292.22 
		113.22,293.06 114.24,294.26 115.65,295.19 117.16,295.84 118.84,296.35 120.26,296.76 121.9,297.32 123.71,297.93 125.08,298.32 
		126.67,298.84 128.17,299.4 129.96,299.76 131.46,300.27 132.96,300.93 134.56,301.4 136.24,301.83 137.78,302.27 139.37,302.35 
		141.13,302.39 142.9,302.7 144.43,303.16 146.17,303.75 147.69,304.51 148.96,305.2 150.12,305.89 151.5,306.93 152.6,308.18 
		153.71,309.3 154.84,310.43 155.97,311.42 157.68,311.15 158.49,310.14 158.96,309.02 159.2,307.87 159.49,306.46 159.64,305.25 
		159.83,303.92 160.06,302.57 160.32,301.12 160.62,299.84 160.95,298.72 161.22,297.53 161.48,296.22 161.67,294.99 162,293.69 
		162.3,292.33 162.75,291.11 162.94,289.78 163.16,288.47 163.26,287.16 163.45,285.91 163.67,284.5 163.82,283.16 164,281.98 
		164.21,280.62 164.39,279.15 164.53,277.8 164.78,276.41 165.12,274.98 165.44,273.58 165.66,272.13 166.08,270.72 166.48,269.59 
		166.81,268.4 166.9,267.68 167.45,266.77 168.31,266.74 170.01,266.83 171.47,267.22 173.19,267.5 174.8,267.46 176.32,267.37 
		177.92,267.52 179.64,267.91 181.22,268.18 182.11,267.09 182.03,265.63 181.47,264.39 179.78,264.27 178.09,264.25 176.5,263.8 
		176.52,262.32 176.79,261 176.87,259.66 177.02,258.29 177.24,256.92 177.61,255.61 177.89,254.13 178.22,252.62 178.42,251.43 
		178.72,250.23 179.19,248.78 179.49,247.27 179.65,246.08 179.78,244.68 180.04,243.23 180.22,241.87 180.59,240.51 180.77,239.11 
		181.06,237.75 181.46,236.48 181.79,235.15 182.08,233.8 182.49,232.56 182.73,231.36 182.97,230.02 183.22,228.58 183.33,227.32 
		183.46,226.05 183.71,224.54 183.89,223.33 184.4,221.95 184.77,220.56 184.76,219.1 184.9,217.74 185.13,216.41 185.23,215.03 
		185.54,213.6 185.8,212.08 186.08,210.58 186.34,209.27 186.66,208.12 186.91,206.9 187.23,205.69 187.66,204.35 187.82,203.06 
		187.93,201.76 188.32,200.5 188.46,199.13 188.9,197.75 189.11,196.55 189.41,195.39 189.91,194.29 189.8,192.57 189.66,191.15 
		190.3,189.94 191.62,189.01 193.01,188 194.52,187.33 195.76,186.48 197.09,185.7 198.33,184.99 199.73,184.12 201.34,183.48 
		202.96,182.99 204.2,182.1 205.5,181.42 206.99,180.96 208.39,180.19 209.41,179.31 210.73,178.7 212.41,178.02 213.2,176.86 
		214.26,176 215.62,175.07 217.38,174.37 218.78,173.96 220.6,173.37 221.92,172.33 223.46,171.56 224.9,170.76 226.02,169.98 
		226.63,171.33 226.72,172.73 226.69,174.18 226.4,175.47 226.2,176.81 226.02,178.01 226.37,179.18 225.68,180.45 225.95,181.64 
		225.63,183.03 225.34,184.52 225.04,186 224.93,187.16 224.24,188.21 223.75,189.71 223.41,191.21 223.2,192.39 222.97,193.65 
		223,194.91 222.7,196.3 221.91,197.27 221.71,198.43 221.51,199.83 221.46,200.22 	"/>
	
		<polyline opacity="0.125" fill="none" stroke="#000000" stroke-width="0.75" stroke-linecap="round" stroke-linejoin="round" stroke-miterlimit="10" points="
		218.55,174.29 218.12,174.52 217.49,174.86 216.88,175.22 216.43,175.28 215.93,175.23 215.33,175.45 214.93,175.73 214.59,176.02 
		213.99,176.5 213.63,176.7 213.26,176.92 212.59,177.14 212.02,177.51 211.49,177.92 210.87,178.37 210.41,178.6 209.98,178.76 
		209.55,178.87 209.16,179.05 208.78,179.26 208.48,179.54 208.16,179.86 207.8,180.18 207.44,180.46 207.07,180.74 206.68,181 
		206.27,181.28 205.83,181.54 205.44,181.8 204.79,182.37 204.51,182.67 204.27,182.96 203.87,183.34 203.47,183.57 202.96,183.76 
		202.43,183.78 202,183.82 201.41,183.86 200.88,184 200.38,183.99 199.96,184.11 199.36,184.4 198.71,184.7 197.92,185.14 
		197.59,185.41 197.24,185.67 196.96,185.99 196.64,186.27 196.28,186.53 195.89,186.71 195.51,186.9 194.97,187.39 194.4,187.94 
		194.06,188.2 193.49,188.47 192.81,188.7 192.34,189.17 192.15,189.52 191.94,189.88 191.7,190.25 191.45,190.61 191.29,190.98 
		191.03,191.29 190.79,191.6 190.52,191.88 190.26,192.19 189.97,192.58 189.79,192.99 189.63,193.38 189.56,193.75 189.43,194.16 
		189.09,194.62 188.91,195.11 188.73,195.68 188.55,196.32 188.52,196.68 188.43,197.25 188.41,197.68 188.34,198.33 188.13,198.95 
		188.14,199.32 188.25,199.9 188.16,200.26 188.13,200.83 188.07,201.22 188,201.62 187.91,201.99 187.66,202.53 187.49,203.01 
		187.4,203.59 187.3,204.26 187.31,204.63 187.34,205.04 187.31,205.44 187.23,205.8 187.08,206.13 186.91,206.45 186.62,207.04 
		186.49,207.64 186.48,207.99 186.45,208.34 186.45,208.71 186.45,209.07 186.45,209.44 186.43,209.81 186.32,210.16 186.19,210.5 
		185.9,211.12 185.68,211.7 185.54,212.3 185.27,212.87 185.03,213.47 185.16,214.2 185.22,214.93 185.03,215.53 184.67,216.08 
		184.54,216.66 184.45,217.28 184.36,217.93 184.22,218.6 184.05,219.28 183.87,219.89 183.74,220.55 183.54,221.16 183.36,221.88 
		183.32,222.24 183.3,222.59 183.3,222.95 183.3,223.32 183.27,223.69 183.21,224.05 183.1,224.4 182.9,225.05 182.69,225.55 
		182.53,226.01 182.5,226.53 182.42,227.09 182.31,227.66 182.22,228.27 182.15,228.91 182.1,229.57 182.11,229.91 182.09,230.26 
		181.87,230.85 181.77,231.29 181.67,231.98 181.67,232.34 181.68,232.95 181.68,233.38 181.63,233.74 181.42,234.49 181.17,235.07 
		180.82,235.44 180.51,235.97 180.23,236.61 180.1,236.99 180.08,237.34 180.18,237.69 180.56,238.26 180.52,238.93 180.34,239.56 
		180.25,239.91 180.18,240.25 180.06,240.88 179.92,241.5 179.77,242.1 179.65,242.73 179.45,243.34 179.24,243.99 179.22,244.33 
		179.13,245 179.1,245.41 179.07,245.85 179,246.2 178.95,246.59 178.91,246.96 178.81,247.51 178.69,247.96 178.55,248.41 
		178.41,248.94 178.16,249.39 177.97,249.87 177.86,250.53 177.83,251.17 177.65,251.8 177.51,252.35 177.57,253.02 177.54,253.36 
		177.41,253.72 177.2,254.22 177.04,254.62 176.92,255.07 176.78,255.45 176.64,255.84 176.51,256.2 176.46,256.54 176.42,257.16 
		176.27,257.69 176.29,258.31 176.36,259.02 176.38,259.38 176.42,259.76 176.46,260.24 176.46,260.62 176.42,261 176.37,261.35 
		176.19,262.01 175.82,262.59 175.7,262.93 175.59,263.61 175.38,264.02 175.6,264.33 176.21,264.46 176.97,264.32 177.39,264.19 
		178.22,264.04 178.86,264.02 179.47,264.06 180.11,264.15 180.45,264.51 180.58,265 180.65,265.6 180.69,265.95 180.73,266.37 
		180.7,266.84 180.63,267.31 180.14,267.72 179.66,267.68 178.91,267.58 178.11,267.5 177.33,267.64 176.95,267.86 176.5,268.1 
		176.02,268.31 175.53,268.5 175.05,268.72 174.57,268.92 174.11,269.1 173.69,269.24 172.84,269.26 172.38,269.2 171.89,269.14 
		171.37,269.08 170.89,269.03 170.39,268.99 169.93,269.03 169.47,269.06 169.03,269.1 168.3,269.06 167.74,268.74 167.18,268.67 
		166.84,269.13 166.63,269.74 166.48,270.36 166.39,270.92 166.11,271.36 165.85,271.8 165.79,272.31 165.9,272.85 165.76,273.35 
		165.73,273.77 165.68,274.44 165.55,275.13 165.35,275.84 165.28,276.22 165.22,276.86 165.3,277.32 165.3,277.72 165.36,278.31 
		165.4,278.81 165.35,279.61 165.25,279.99 165.02,280.61 164.82,281.21 164.73,281.88 164.57,282.56 164.45,283.21 164.25,283.75 
		164.01,284.06 163.78,284.35 163.64,284.7 163.64,285.05 163.77,285.65 163.78,286.03 163.86,286.74 163.93,287.09 163.96,287.45 
		163.94,288.01 163.69,288.52 163.59,289.16 163.59,289.54 163.69,289.93 163.78,290.32 163.78,290.76 163.72,291.19 163.48,291.9 
		163.39,292.63 163.4,292.97 163.18,293.55 162.77,294 162.57,294.45 162.42,294.99 162.41,295.36 162.44,295.73 162.44,296.16 
		162.42,296.57 162.36,297.05 162.3,297.41 162.22,297.76 162.08,298.43 161.92,299.07 161.72,299.67 161.67,300.02 161.6,300.36 
		161.54,300.72 161.36,301.36 161.26,301.99 161.14,302.54 161.13,303.13 161.26,303.78 161.19,304.34 161.09,304.9 160.96,305.56 
		160.65,306.11 160.29,306.38 160.08,306.7 159.88,307.03 159.77,307.42 159.67,307.82 159.5,308.21 159.27,308.65 159.04,309.05 
		158.81,309.45 158.6,309.86 158.42,310.27 158.26,310.64 157.86,311.2 157.36,311.64 156.77,312.05 156.28,312.46 155.95,312.97 
		155.92,313.59 155.93,314.19 155.81,314.76 155.52,315.28 155.24,315.89 155.11,316.27 154.93,316.73 154.73,317.14 154.48,317.53 
		154.21,317.86 153.89,318.1 153.21,318.51 152.56,318.89 151.91,319.27 151.26,319.68 150.64,320.11 149.96,320.4 149.19,320.52 
		148.49,320.7 147.83,320.8 147.15,321.03 146.42,321.25 145.75,320.94 145.54,320.39 145.35,319.89 145.09,319.46 144.9,319 
		144.62,318.51 144.3,318.05 144.02,317.6 143.7,317.17 143.41,316.69 143.25,316.26 142.43,316.04 141.9,316.06 141.08,316.19 
		140.28,316.41 139.5,316.64 138.74,316.87 138.06,317.09 137.45,317.31 136.88,317.53 136.37,317.72 135.86,317.9 135.36,318.1 
		134.87,318.32 134.41,318.54 133.95,318.75 133.52,318.95 133.11,319.1 132.69,319.25 132.27,319.4 131.83,319.54 131.39,319.67 
		130.59,319.57 130.01,319.23 129.82,318.91 129.73,318.53 129.71,318.12 129.76,317.73 129.75,317.36 129.52,316.68 129.38,316.31 
		129.23,315.92 129.05,315.58 128.93,315.23 128.75,314.58 128.48,313.95 128.23,313.58 127.96,313.23 127.67,312.7 127.53,312.28 
		127.17,311.9 126.69,311.66 126.13,311.5 125.63,311.28 125.1,311.1 124.56,310.93 123.98,310.82 123.4,310.72 122.79,310.61 
		122.2,310.51 121.59,310.47 121.04,310.39 120.48,310.33 119.87,310.28 119.4,310.13 118.89,310.02 118.39,309.91 117.87,309.8 
		117.37,309.73 116.87,309.65 116.41,309.57 115.95,309.5 115.49,309.45 115.05,309.39 114.23,309.23 113.46,309.05 112.65,308.93 
		111.84,308.92 111.01,309 110.56,309.04 110.11,309.05 109.57,309.05 109.09,309.04 108.39,308.68 107.7,308.34 106.78,308.43 
		106.28,308.56 105.82,308.68 105.34,308.77 104.52,308.87 103.72,308.96 103.06,309.04 102.42,309.11 101.65,309.25 100.94,309.41 
		100.25,309.56 99.53,309.78 98.81,309.86 98.03,309.87 97.27,309.97 96.41,310.07 95.6,310.24 94.81,310.43 93.82,310.48 
		93.28,310.51 92.81,310.54 92.28,310.5 91.77,310.41 91.28,310.29 90.86,310.14 90.51,309.92 90.24,309.38 90.23,308.8 
		90.54,308.36 90.83,307.88 90.9,307.25 90.88,306.91 90.9,306.29 91,305.87 91.11,305.4 91.22,304.88 91.32,304.34 91.45,303.8 
		91.5,303.19 91.47,302.51 91.27,301.76 91.29,301.36 91.35,300.97 91.55,300.26 91.81,299.68 91.72,299.34 91.92,298.73 
		92.26,298.17 92.67,297.68 93.14,297.18 93.69,296.75 94.27,296.34 94.69,295.78 94.92,295.16 95.17,294.5 95.51,293.98 
		95.72,293.35 95.73,293 95.77,292.36 95.48,291.78 95.17,291.42 94.81,290.82 94.94,290.4 95.01,290 95,289.61 95.16,289.09 
		95.49,288.81 95.99,288.57 96.62,288.33 97.25,288.23 97.59,287.95 97.95,287.6 98.38,287.36 98.85,287.29 99.39,287.39 
		100.04,287.5 100.77,287.7 101.51,287.79 102.27,287.72 102.99,287.72 103.69,287.95 104.34,288.29 104.79,288.47 105.7,288.69 
		106.28,288.75 107.35,288.91 107.83,289.04 108.24,289.22 108.98,289.72 109.39,289.97 109.77,290.24 110.13,290.51 110.46,290.79 
		110.74,291.09 111.04,291.37 111.32,291.68 111.59,291.97 112.08,292.53 112.47,292.76 113.17,293.15 113.77,293.51 114.42,293.98 
		115.08,294.4 115.5,294.57 115.95,294.76 116.62,295.19 116.94,295.44 117.42,295.94 118,296.48 118.36,296.72 118.71,296.96 
		119.25,297.49 119.54,297.75 120.21,298.13 120.93,298.52 121.35,298.68 121.77,298.85 122.54,299.12 123.38,299.34 124.21,299.56 
		124.66,299.66 125.52,299.8 126.3,299.97 126.76,300.09 127.24,300.24 127.65,300.38 128.06,300.52 128.48,300.65 128.89,300.77 
		129.3,300.92 130.11,301.24 130.86,301.57 131.69,301.8 132.64,302.12 133.11,302.3 133.69,302.42 134.2,302.52 135.02,302.71 
		135.34,302.95 135.64,303.22 135.87,303.54 136.2,303.88 136.63,304.17 137.08,304.47 137.45,304.78 137.85,305.08 138.63,305.57 
		139.03,305.82 139.4,306.08 139.8,306.34 140.22,306.57 141.1,306.97 141.54,307.11 142.43,307.37 142.9,307.48 143.35,307.65 
		144.11,307.98 144.81,308.36 145.18,308.57 145.97,308.86 146.36,309.12 147.06,309.56 147.57,310.06 148.22,310.52 148.71,311.04 
		148.97,311.69 149.38,312.32 149.67,312.59 150.19,313.11 150.65,313.67 151.1,314.24 151.65,314.73 151.93,315.05 152.16,315.37 
		152.38,315.77 152.68,316.54 152.89,316.9 153.11,317.22 153.62,317.77 153.32,318.12 152.59,318.44 151.85,318.78 151.24,319.07 
		150.62,319.4 150.01,319.73 149.28,319.99 148.51,320.2 147.72,320.48 147.31,320.62 146.86,320.75 146.42,320.77 145.72,320.62 
		145.59,320.2 145.39,319.81 144.82,319.4 144.53,319.13 144.3,318.55 144.13,317.95 143.64,317.4 143.29,317.1 142.86,316.76 
		142.41,316.45 142.04,316.22 141.25,315.98 140.81,315.94 140.33,315.94 139.74,315.96 139.14,316.08 138.58,316.22 138,316.33 
		137.46,316.41 136.95,316.48 136.44,316.6 135.92,316.82 135.45,317.09 134.92,317.41 134.43,317.72 133.95,317.96 133.42,318.14 
		132.93,318.21 132.47,318.25 132.02,318.26 131.57,318.19 131.16,318.05 130.8,317.85 130.28,317.36 129.91,316.83 129.51,316.32 
		129.29,316.01 129.07,315.4 128.89,314.78 128.6,314.18 128.26,313.59 128.03,313.28 127.6,312.73 127.33,312.45 127.05,312.17 
		126.74,311.9 126.44,311.61 126.13,311.36 125.79,311.14 125.4,310.95 124.97,310.78 124.53,310.6 124.11,310.46 123.67,310.36 
		123.18,310.29 122.71,310.25 122.22,310.22 121.73,310.19 121.27,310.14 120.82,310.07 120.23,310.07 119.66,310.07 119.16,310.02 
		118.32,309.82 117.89,309.61 117.48,309.39 117.03,309.24 116.19,309 115.77,308.87 115.31,308.74 114.88,308.6 114.44,308.47 
		113.99,308.33 113.54,308.18 113.05,308.01 112.56,307.87 112.09,307.75 111.52,307.71 111,307.68 110.52,307.7 110.04,307.73 
		109.55,307.75 109.06,307.78 108.59,307.8 108.06,307.88 107.6,307.94 107.12,307.98 106.65,308 106.19,308.02 105.73,308.07 
		105.25,308.12 104.81,308.19 104.38,308.23 103.54,308.37 102.76,308.65 102.34,308.78 101.52,309 101.09,309.14 100.7,309.34 
		100,309.64 99.27,309.83 98.44,310.02 97.73,309.98 97.23,309.88 96.6,309.73 95.99,309.74 95.33,309.88 94.5,310.11 94.04,310.24 
		93.59,310.36 93.14,310.37 92.71,310.33 91.9,310.16 91.31,309.91 90.86,309.56 90.72,309.11 90.76,308.65 90.78,308.23 
		90.77,307.79 90.91,307.33 90.99,306.83 90.99,306.29 91.02,305.76 90.96,305.29 90.9,304.81 90.85,304.21 90.9,303.67 
		90.96,303.13 91.01,302.65 91.11,302.08 91.35,301.58 91.47,300.92 91.6,300.52 91.73,300.17 91.86,299.84 92.01,299.49 
		92.22,298.8 92.28,298.44 92.35,298.07 92.33,297.7 92.36,297.27 92.38,296.89 92.51,296.53 92.73,296.18 93.08,295.89 
		93.49,295.62 94.26,295.13 94.67,294.94 95.3,294.53 95.62,294.03 95.46,293.62 95.17,293.26 95.49,292.85 95.53,292.37 
		95.32,291.76 95.16,291.4 95.04,291.05 94.91,290.38 94.83,289.77 94.8,289.28 95,288.81 95.4,288.65 95.86,288.42 96.37,288.16 
		96.82,287.95 97.17,287.73 97.54,287.45 98.08,287.29 98.71,287.34 99.18,287.66 99.32,288.22 99.47,288.61 99.56,288.96 
		99.76,289.67 99.85,290.05 99.95,290.41 100.08,290.77 100.25,291.13 100.53,291.56 100.7,291.88 101.09,292.29 101.67,292.62 
		102.12,292.82 102.9,293.17 103.34,293.23 104.08,293.46 104.57,293.48 105.38,293.62 105.94,293.9 106.66,294.18 107.33,294.42 
		108.06,294.46 108.83,294.36 109.68,294.28 110.51,294.37 111.04,294.45 111.57,294.5 112.09,294.58 113.04,294.87 113.49,295.04 
		113.88,295.21 114.67,295.53 115.12,295.71 115.51,295.89 115.89,296.08 116.32,296.3 116.67,296.54 117.3,297 117.78,297.52 
		118.25,298 118.81,298.4 119.45,298.71 120.18,298.97 120.95,299.27 121.38,299.48 121.79,299.63 122.53,299.94 123.31,300.21 
		124.16,300.48 124.63,300.59 125.19,300.68 125.69,300.76 126.11,300.85 126.88,301.04 127.33,301.04 127.94,301.13 128.43,301.45 
		129.06,301.7 129.92,301.81 130.34,301.9 131.09,302.19 131.89,302.44 132.38,302.53 132.83,302.58 133.29,302.62 133.74,302.62 
		134.2,302.57 134.64,302.52 135.13,302.48 135.63,302.48 136.59,302.56 137.12,302.58 137.64,302.6 138.1,302.63 138.59,302.71 
		139.06,302.79 139.53,302.85 140.49,302.99 140.95,303.06 141.84,303.17 142.59,303.37 143.02,303.53 143.41,303.69 143.89,303.79 
		144.35,303.9 144.88,304.01 145.4,304.13 145.9,304.29 146.76,304.73 147.08,304.97 147.72,305.4 148.04,305.74 148.42,306.02 
		148.83,306.29 149.22,306.53 150.14,306.98 150.64,307.19 151.5,307.51 151.97,307.69 153.05,308 153.59,308.09 154.01,308.19 
		154.48,308.38 154.89,308.56 155.28,308.75 155.96,309.2 156.33,309.43 156.65,309.68 157.34,310 157.72,310.19 158.23,310.33 
		158.61,309.75 158.68,309.25 	"/>
	
		<polyline opacity="0.125" fill="none" stroke="#000000" stroke-width="0.75" stroke-linecap="round" stroke-linejoin="round" stroke-miterlimit="10" points="
		217.43,174.57 217.43,174.57 215.27,175.7 212.93,177.08 210.98,178.2 208.63,179.37 206.47,180.1 204.13,181.39 201.97,182.36 
		200.79,183.34 198.84,184.61 196.88,185.89 194.93,186.86 192.18,187.4 190.43,188.62 190.03,190.58 189.25,192.58 189.25,194.64 
		188.86,196.65 188.27,198.75 187.49,200.56 187.09,202.42 186.9,204.13 186.71,206.34 186.31,208.44 185.72,210.59 185.53,212.35 
		185.14,213.92 184.74,215.69 184.55,217.93 184.15,219.65 183.96,221.31 183.77,222.92 183.37,224.54 182.79,226.55 182.59,228.75 
		182.4,230.46 182.2,232.17 182,233.79 181.61,235.35 180.83,237.51 180.24,239.18 179.65,241.09 179.27,243.09 178.87,244.76 
		179.27,246.51 179.46,247.97 178.29,249.5 178.09,251.31 177.7,253.36 176.73,255.22 176.33,257.08 176.14,258.75 175.74,260.46 
		175.55,262.12 176.14,263.93 178.68,263.88 181.22,263.98 182.99,264.28 185.72,264.52 188.66,265.25 191,265.74 193.16,265.74 
		194.72,265.4 197.28,266.09 200.01,266.47 202.36,266.87 204.72,267.06 206.86,267.26 209.6,267.9 212.73,268.24 214.89,268.04 
		216.85,267.95 219.39,268.33 221.55,268.83 223.7,269.08 226.24,269.22 228.99,269.86 230.75,269.08 230.94,266.19 231.34,264.37 
		231.91,262.37 232.5,260.56 232.31,258.51 232.12,255.86 232.31,253.85 233.09,252.29 233.68,250.48 234.27,249.1 234.85,247.05 
		235.25,245.29 235.44,243.52 235.84,241.57 236.22,239.47 236.42,237.21 236.42,235.3 236.81,233.59 237.6,231.49 238.19,229.58 
		238.38,227.23 239.16,225.18 239.35,223.61 239.56,221.56 240.34,219.6 240.34,217.93 240.73,216.02 241.12,214.02 241.7,211.67 
		242.1,210 242.1,207.85 242.69,205.85 243.07,203.74 243.27,202.03 243.66,200.42 244.06,198.06 244.84,195.92 244.84,194.25 
		245.23,192.39 245.82,190.53 246.6,188.53 246.6,186.81 246.79,184.66 247.38,182.5 247.19,180.74 247.58,178.99 247.97,176.78 
		248.36,175.27 249.14,173.6 249.54,171.89 249.14,170.12 246.01,169.74 243.47,169.69 240.34,169.58 237.99,169.34 235.84,168.96 
		233.49,168.66 230.75,168.31 228.59,167.88 227.03,169.05 225.27,169.49 223.5,170.82 222.14,172.14 220.18,173.16 217.83,174.48 
		216.07,175.51 213.71,176.43 211.17,177.51 209.01,178.29 206.67,179.67 204.32,180.85 202.56,182.01 201,183.34 199.03,184.46 
		196.69,185.59 194.53,186.32 192.97,187.79 190.81,189.07 189.64,190.29 189.44,192.44 189.05,194.2 188.66,196.06 187.49,198.16 
		187.28,200.22 187.28,202.13 186.71,204.13 186.12,206.14 186.12,208.2 185.92,209.91 185.33,212.02 184.94,214.21 184.15,216.37 
		183.96,218.28 183.58,220.52 182.99,222.24 182.59,223.91 182.2,225.47 182.2,227.09 182,229.09 182.59,230.71 181.61,232.22 
		181.22,233.98 180.83,235.89 180.64,237.8 180.43,239.85 179.86,241.91 179.46,243.73 178.87,245.43 178.09,247.49 177.7,249.26 
		177.3,251.12 176.92,252.82 176.33,254.93 176.92,256.6 176.33,258.3 175.74,259.97 175.35,261.88 175.55,263.39 177.89,264.37 
		180.24,264.47 182.99,264.52 184.94,264.82 187.49,265.45 189.05,265.55 191.79,265.65 194.34,265.79 196.88,265.84 199.23,266.33 
		201.57,266.68 204.51,267.06 206.67,267.31 209.01,267.76 211.17,268.04 214.11,268.33 216.26,268.73 219.2,269.08 220.18,267.41 
		220.37,264.82 220.56,262.77 220.77,260.75 221.15,258.94 221.74,257.33 222.14,255.57 222.52,253.76 222.71,251.66 223.11,249.8 
		223.5,247.94 223.7,246.27 224.09,244.22 224.49,242.36 224.87,240.5 225.06,238.44 225.46,236.72 225.46,234.92 226.05,232.86 
		226.44,231.3 226.63,229.58 227.03,227.77 227.62,226.15 228,224.59 227.81,222.78 228,221.46 228.4,219.41 229.37,217.64 
		229.77,216.02 229.77,213.97 230.35,211.92 230.75,210 230.94,208.14 231.72,206.14 231.91,204.33 232.31,202.03 232.5,200.27 
		233.49,198.32 233.88,196.25 234.27,194.69 234.66,192.58 235.06,190.93 234.66,189.45 235.44,187.59 235.84,186.27 235.84,184.32 
		236.03,182.12 236.22,180.26 236.03,178.4 236.81,176.24 237.2,174.19 237.99,171.74 238.78,169.79 238.38,168.61 236.62,168.9 
		234.27,168.71 231.91,168.42 230.75,167.63 	"/>
	
		<polyline opacity="0.125" fill="none" stroke="#000000" stroke-width="0.75" stroke-linecap="round" stroke-linejoin="round" stroke-miterlimit="10" points="
		217.83,174.97 217.83,174.97 215.86,175.56 214.49,176.78 211.76,177.56 209.6,178.78 207.85,179.86 205.88,181.23 203.73,182.5 
		202.16,182.95 200.41,183.82 198.64,185.11 196.49,186.43 194.34,187.65 192.77,188.62 191,189.85 191.4,191.61 191,193.32 
		190.22,195.03 189.25,197.54 188.66,199.49 187.87,200.91 187.49,202.72 187.49,204.48 187.09,205.8 186.71,207.36 186.5,209.52 
		186.12,211.38 185.72,212.85 185.53,214.7 184.94,216.76 184.55,218.12 184.36,220.43 183.77,222.43 183.37,223.91 182.79,225.77 
		182.59,227.28 182.59,228.99 182,231.14 182,232.95 181.81,235.06 181.42,236.88 181.02,238.69 180.24,240.84 179.65,242.9 
		179.86,245 179.65,247.15 179.27,248.91 179.46,250.42 178.68,252.48 177.3,254 176.14,256.06 176.33,257.43 176.14,258.84 
		176.14,261.39 176.92,263.15 178.87,263.55 181.22,264.33 181.61,265.5 181.22,267.6 178.87,267.85 177.11,267.31 175.35,267.36 
		172.42,267.41 170.85,268.44 169.48,269.27 167.72,270.83 167.13,272.16 167.52,273.77 165.76,276.26 166.16,278.81 166.73,280.52 
		165.95,282.38 165.17,284.39 164.98,286.5 164.78,287.82 164.19,289.87 164,291.78 163.6,293.35 163.22,294.86 162.63,296.28 
		162.63,297.99 162.44,300.34 161.85,302.2 161.26,303.76 161.06,306.02 159.69,307.64 157.93,309.5 156.37,311.15 155,312.82 
		155.38,315.03 155.38,316.63 152.65,317.13 150.88,318.59 149.12,320.16 146.58,321.09 144.62,321.53 143.45,318.94 142.27,317.46 
		140.71,316.14 138.55,316.1 136.2,317.08 133.66,318.05 131.11,318.1 129.16,316.78 128.38,315.17 128.17,313.9 127.01,312.42 
		124.85,311.2 121.53,310.52 118.78,310.37 115.85,310.18 112.91,309.24 110.96,308.75 108.21,308.61 106.06,308.86 103.71,309.24 
		101.36,309.59 99.61,310.13 97.45,310.66 95.3,310.52 92.95,310.82 90.79,310.72 91.18,309.45 92.17,308.51 91.18,306.35 
		91.18,304.7 91.77,302.98 92.36,301.03 92.17,298.97 92.74,296.82 93.73,295.21 94.51,293.98 95.1,292.6 94.71,291.24 
		94.32,289.87 95.1,288.4 96.67,288.01 98.23,288.15 100.18,288.36 99.4,289.63 100.18,291.09 102.34,292.22 104.89,293.44 
		107.82,293.92 110.18,294.37 112.72,294.03 114.87,294.57 116.82,295.99 118.78,298.09 121.32,299.31 123.88,299.66 125.04,300.34 
		126.02,300.58 127.6,300.53 130.33,301.17 132.48,301.9 134.64,303.08 136.4,304.21 138.36,305.78 140.12,306.7 143.25,307.88 
		145.4,309.05 148.74,310.77 149.52,312.42 150.69,313.95 152.44,314.92 153.23,316.24 153.62,316.78 152.25,317.91 149.71,319.37 
		147.36,320.45 145.59,320.85 144.81,319.43 143.45,317.91 141.49,317.71 139.92,315.9 137.58,313.26 135.81,311.84 134.64,310.86 
		132.29,309.69 129.74,309.39 127.6,308.27 125.04,307.1 123.48,305.87 121.32,304.4 118.78,303.22 117.03,303.52 114.28,303.62 
		111.54,303.28 108.21,302.74 106.46,301.17 104.3,300.04 101.95,298.72 99.99,297.31 98.03,295.84 96.46,294.57 95.89,294.32 
		96.08,293.05 95.49,291.68 94.9,290.22 95.1,288.4 96.67,288.15 98.43,287.52 99.8,288.25 100.58,289.77 101.17,291.38 
		102.93,292.32 104.49,293.44 106.65,293.44 109.38,293.92 113.5,294.08 116.04,294.91 118.19,296.18 119.57,297.75 121.91,298.82 
		123.09,299.66 125.24,299.95 128.17,300.74 130.92,301.27 132.88,301.36 134.45,301.85 136.79,303.28 138.95,305.43 140.51,307 
		142.66,308.42 145.4,309.54 147.16,310.47 148.53,311.69 150.3,313.41 151.47,315.36 153.03,317.27 153.23,317.86 154.6,317.32 
		155.38,316.05 156.37,313.95 156.37,312.58 157.34,311.45 159.5,310.23 160.47,308.51 161.26,306.75 162.23,304.6 162.63,302.54 
		162.63,301.27 163.01,299.47 163.01,297.31 163.8,294.96 164.58,293.19 164.58,290.79 164.98,288.64 165.17,286.69 165.17,284.97 
		165.57,283.7 166.35,281.89 166.35,280.13 167.13,278.36 166.94,276.66 167.52,274.94 167.72,273.13 167.91,270.68 168.5,268.92 
		168.89,267.65 170.45,267.26 172.8,267.51 175.74,267.65 177.89,268 180.24,268.19 182.2,266.87 182.79,265.55 181.42,264.87 
		178.68,264.37 176.33,263.05 176.73,261.83 177.51,261.15 178.09,259.62 178.29,256.84 178.68,254.15 179.07,251.75 179.07,249.8 
		179.27,247.73 179.86,245.68 180.05,243.57 180.24,242.01 180.43,240.05 181.61,238.05 181.81,235.99 182.2,234.03 182.4,232.38 
		182.4,230.66 183.37,228.69 183.96,227.09 184.36,225.47 184.36,223.7 183.96,221.16 184.15,219.01 184.74,217.93 185.53,216.61 
		186.31,214.75 186.9,213.34 187.87,210.99 189.05,209.27 189.64,207.36 189.64,205.31 189.64,203.21 189.64,200.86 189.84,198.6 
		190.43,195.87 190.43,193.91 190.03,192.1 191,189.7 	"/>
</g>
</svg>
